<svg width="28" height="19" viewBox="0 0 28 19" fill="none" xmlns="http://www.w3.org/2000/svg">
<g clip-path="url(#clip0_101_8)">
<path d="M25.433 0H2.059C1.513 0.000264984 0.98944 0.21728 0.60336 0.60336C0.21728 0.98944 0.000264984 1.513 0 2.059L0 15.953C0.000264984 16.499 0.21728 17.0226 0.60336 17.4086C0.98944 17.7947 1.513 18.0117 2.059 18.012H25.433C25.979 18.0117 26.5026 17.7947 26.8886 17.4086C27.2747 17.0226 27.4917 16.499 27.492 15.953V2.059C27.4917 1.513 27.2747 0.98944 26.8886 0.60336C26.5026 0.21728 25.979 0.000264984 25.433 0Z" fill="#F5F5F5"/>
<path d="M0.113 1.386H27.379C27.2389 0.981385 26.9762 0.63048 26.6274 0.382079C26.2787 0.133679 25.8612 0.000128587 25.433 0L2.059 0C1.63082 0.000128587 1.21332 0.133679 0.864553 0.382079C0.515788 0.63048 0.253094 0.981385 0.113 1.386ZM0 5.542H27.492V6.928H0V5.542ZM0 2.771H27.492V4.157H0V2.771ZM0 9.225C0 9.487 0.212 9.699 0.474 9.699H27.492V8.315H0V9.225ZM0 13.856H27.492V15.242H0V13.856ZM27.379 16.626H0.113C0.253094 17.0306 0.515788 17.3815 0.864553 17.6299C1.21332 17.8783 1.63082 18.0119 2.059 18.012H25.433C25.8612 18.0119 26.2787 17.8783 26.6274 17.6299C26.9762 17.3815 27.2389 17.0306 27.379 16.626ZM0 11.085H27.492V12.471H0V11.085Z" fill="#FF4B55"/>
<path d="M0.474 9.699H12.324C12.45 9.7 12.571 9.65 12.66 9.561C12.749 9.472 12.8 9.351 12.8 9.225V0.474C12.8 0.348 12.75 0.228 12.661 0.139C12.572 0.05 12.452 0 12.326 0H2.059C1.513 0.000264984 0.98944 0.21728 0.60336 0.60336C0.21728 0.98944 0.000264984 1.513 0 2.059L0 9.225C0 9.351 0.05 9.471 0.139 9.56C0.228 9.649 0.348 9.699 0.474 9.699Z" fill="#41479B"/>
<path d="M1.33002 1.08899L1.43002 1.40399H1.76202C1.78102 1.40399 1.79802 1.41699 1.80402 1.43499C1.81002 1.45299 1.80302 1.47299 1.78802 1.48499L1.52102 1.68499L1.62102 2.00099C1.62702 2.01899 1.62002 2.03899 1.60402 2.05099C1.58802 2.06299 1.56702 2.06199 1.55202 2.05099L1.28202 1.85799L1.01202 2.05099C0.996016 2.06199 0.975016 2.06199 0.960016 2.05099C0.945016 2.03999 0.938016 2.01999 0.943016 2.00099L1.04302 1.68499L0.776016 1.48499C0.761016 1.47299 0.754016 1.45399 0.760016 1.43499C0.766016 1.41599 0.783016 1.40399 0.802016 1.40399H1.13402L1.23402 1.08899C1.23402 1.06199 1.25502 1.04099 1.28202 1.04099C1.30902 1.04099 1.33002 1.06199 1.33002 1.08899V1.08899Z" fill="#F5F5F5"/>
<path d="M1.33002 2.733L1.43002 3.048H1.76202C1.78102 3.048 1.79802 3.061 1.80402 3.079C1.81002 3.097 1.80302 3.117 1.78802 3.129L1.52102 3.329L1.62102 3.645C1.62702 3.663 1.62002 3.683 1.60402 3.695C1.58802 3.707 1.56702 3.706 1.55202 3.695L1.28202 3.502L1.01202 3.695C0.996016 3.706 0.975016 3.706 0.960016 3.695C0.945016 3.684 0.938016 3.664 0.943016 3.645L1.04302 3.329L0.776016 3.129C0.761016 3.117 0.754016 3.098 0.760016 3.079C0.766016 3.06 0.783016 3.048 0.802016 3.048H1.13402L1.23402 2.733C1.23402 2.706 1.25502 2.685 1.28202 2.685C1.30902 2.685 1.33002 2.706 1.33002 2.733V2.733Z" fill="#F5F5F5"/>
<path d="M1.33002 4.37899L1.43002 4.69399H1.76202C1.78102 4.69399 1.79802 4.70699 1.80402 4.72499C1.81002 4.74299 1.80302 4.76299 1.78802 4.77499L1.52102 4.97499L1.62102 5.29099C1.62702 5.30899 1.62002 5.32899 1.60402 5.34099C1.58802 5.35299 1.56702 5.35199 1.55202 5.34099L1.28202 5.14799L1.01202 5.34099C0.996016 5.35199 0.975016 5.35199 0.960016 5.34099C0.945016 5.32999 0.938016 5.30999 0.943016 5.29099L1.04302 4.97499L0.776016 4.77499C0.761016 4.76299 0.754016 4.74399 0.760016 4.72499C0.766016 4.70599 0.783016 4.69399 0.802016 4.69399H1.13402L1.23402 4.37899C1.23402 4.35199 1.25502 4.33099 1.28202 4.33099C1.30902 4.33099 1.33002 4.35199 1.33002 4.37899V4.37899Z" fill="#F5F5F5"/>
<path d="M1.33002 6.02499L1.43002 6.33999H1.76202C1.78102 6.33999 1.79802 6.35299 1.80402 6.37099C1.81002 6.38899 1.80302 6.40899 1.78802 6.42099L1.52102 6.62099L1.62102 6.93699C1.62702 6.95499 1.62002 6.97499 1.60402 6.98699C1.58802 6.99899 1.56702 6.99799 1.55202 6.98699L1.28202 6.79399L1.01202 6.98699C0.996016 6.99799 0.975016 6.99799 0.960016 6.98699C0.945016 6.97599 0.938016 6.95599 0.943016 6.93699L1.04302 6.62099L0.776016 6.42099C0.761016 6.40899 0.754016 6.38999 0.760016 6.37099C0.766016 6.35199 0.783016 6.33999 0.802016 6.33999H1.13402L1.23402 6.02499C1.23402 5.99799 1.25502 5.97699 1.28202 5.97699C1.30902 5.97699 1.33002 5.99799 1.33002 6.02499Z" fill="#F5F5F5"/>
<path d="M1.33002 7.67099L1.43002 7.98599H1.76202C1.78102 7.98599 1.79802 7.99899 1.80402 8.01699C1.81002 8.03499 1.80302 8.05499 1.78802 8.06699L1.52102 8.26699L1.62102 8.58299C1.62702 8.60099 1.62002 8.62099 1.60402 8.63299C1.58802 8.64499 1.56702 8.64399 1.55202 8.63299L1.28202 8.43999L1.01202 8.63299C0.996016 8.64399 0.975016 8.64399 0.960016 8.63299C0.945016 8.62199 0.938016 8.60199 0.943016 8.58299L1.04302 8.26699L0.776016 8.06699C0.761016 8.05499 0.754016 8.03599 0.760016 8.01699C0.766016 7.99799 0.783016 7.98599 0.802016 7.98599H1.13402L1.23402 7.67099C1.23402 7.64399 1.25502 7.62299 1.28202 7.62299C1.30902 7.62299 1.33002 7.64399 1.33002 7.67099V7.67099Z" fill="#F5F5F5"/>
<path d="M2.60803 1.89498L2.70803 2.20998H3.04003C3.05903 2.20998 3.07603 2.22298 3.08203 2.24098C3.08803 2.25898 3.08103 2.27898 3.06603 2.29098L2.79903 2.49098L2.89903 2.80698C2.90503 2.82498 2.89803 2.84498 2.88203 2.85698C2.86603 2.86898 2.84503 2.86798 2.83003 2.85698L2.56003 2.66398L2.29003 2.85698C2.27403 2.86798 2.25303 2.86798 2.23803 2.85698C2.22303 2.84598 2.21603 2.82598 2.22103 2.80698L2.32103 2.49098L2.05403 2.29098C2.03903 2.27898 2.03203 2.25998 2.03803 2.24098C2.04403 2.22198 2.06103 2.20998 2.08003 2.20998H2.41203L2.51203 1.89498C2.51203 1.86798 2.53303 1.84698 2.56003 1.84698C2.58703 1.84698 2.60803 1.86798 2.60803 1.89498V1.89498Z" fill="#F5F5F5"/>
<path d="M2.60805 3.53997L2.70805 3.85497H3.04005C3.05905 3.85497 3.07605 3.86797 3.08205 3.88597C3.08805 3.90397 3.08105 3.92397 3.06605 3.93597L2.79905 4.13597L2.89905 4.45197C2.90505 4.46997 2.89805 4.48997 2.88205 4.50197C2.86605 4.51397 2.84505 4.51297 2.83005 4.50197L2.56005 4.30897L2.29005 4.50197C2.27405 4.51297 2.25305 4.51297 2.23805 4.50197C2.22305 4.49097 2.21605 4.47097 2.22105 4.45197L2.32105 4.13597L2.05405 3.93597C2.04005 3.92297 2.03605 3.90297 2.04305 3.88497C2.05005 3.86697 2.06805 3.85697 2.08705 3.85797H2.41905L2.51905 3.54297C2.52105 3.52097 2.54005 3.50397 2.56205 3.50297C2.58405 3.50197 2.60405 3.51797 2.60805 3.53997Z" fill="#F5F5F5"/>
<path d="M2.60803 5.186L2.70803 5.501H3.04003C3.05903 5.501 3.07603 5.514 3.08203 5.532C3.08803 5.55 3.08103 5.57 3.06603 5.582L2.79903 5.782L2.89903 6.098C2.90503 6.116 2.89803 6.136 2.88203 6.148C2.86603 6.16 2.84503 6.159 2.83003 6.148L2.56003 5.955L2.29003 6.148C2.27403 6.159 2.25303 6.159 2.23803 6.148C2.22303 6.137 2.21603 6.117 2.22103 6.098L2.32103 5.782L2.05403 5.582C2.03903 5.57 2.03203 5.551 2.03803 5.532C2.04403 5.513 2.06103 5.501 2.08003 5.501H2.41203L2.51203 5.186C2.51203 5.159 2.53303 5.138 2.56003 5.138C2.58703 5.138 2.60803 5.159 2.60803 5.186V5.186Z" fill="#F5F5F5"/>
<path d="M2.60803 6.83297L2.70803 7.14797H3.04003C3.05903 7.14797 3.07603 7.16097 3.08203 7.17897C3.08803 7.19697 3.08103 7.21697 3.06603 7.22897L2.79903 7.42897L2.89903 7.74497C2.90503 7.76297 2.89803 7.78297 2.88203 7.79497C2.86603 7.80697 2.84503 7.80597 2.83003 7.79497L2.56003 7.60197L2.29003 7.79497C2.27403 7.80597 2.25303 7.80597 2.23803 7.79497C2.22303 7.78397 2.21603 7.76397 2.22103 7.74497L2.32103 7.42897L2.05403 7.22897C2.03903 7.21697 2.03203 7.19797 2.03803 7.17897C2.04403 7.15997 2.06103 7.14797 2.08003 7.14797H2.41203L2.51203 6.83297C2.51203 6.80597 2.53303 6.78497 2.56003 6.78497C2.58703 6.78497 2.60803 6.80597 2.60803 6.83297V6.83297Z" fill="#F5F5F5"/>
<path d="M3.88202 1.08899L3.98202 1.40399H4.31402C4.33302 1.40399 4.35002 1.41699 4.35602 1.43499C4.36202 1.45299 4.35502 1.47299 4.34002 1.48499L4.07302 1.68499L4.17302 2.00099C4.17902 2.01899 4.17202 2.03899 4.15602 2.05099C4.14002 2.06299 4.11902 2.06199 4.10402 2.05099L3.83402 1.85799L3.56402 2.05099C3.54802 2.06199 3.52702 2.06199 3.51202 2.05099C3.49702 2.03999 3.49002 2.01999 3.49502 2.00099L3.59502 1.68499L3.32802 1.48499C3.31302 1.47299 3.30602 1.45399 3.31202 1.43499C3.31802 1.41599 3.33502 1.40399 3.35402 1.40399H3.68602L3.78602 1.08899C3.78602 1.06199 3.80702 1.04099 3.83402 1.04099C3.86102 1.04099 3.88202 1.06199 3.88202 1.08899V1.08899Z" fill="#F5F5F5"/>
<path d="M3.88202 2.73397L3.98202 3.04897H4.31402C4.33302 3.04897 4.35002 3.06197 4.35602 3.07997C4.36202 3.09797 4.35502 3.11797 4.34002 3.12997L4.07302 3.32997L4.17302 3.64597C4.17902 3.66397 4.17202 3.68397 4.15602 3.69597C4.14002 3.70797 4.11902 3.70697 4.10402 3.69597L3.83402 3.50297L3.56402 3.69597C3.54802 3.70697 3.52702 3.70697 3.51202 3.69597C3.49702 3.68497 3.49002 3.66497 3.49502 3.64597L3.59502 3.32997L3.32802 3.12997C3.31302 3.11797 3.30602 3.09897 3.31202 3.07997C3.31802 3.06097 3.33502 3.04897 3.35402 3.04897H3.68602L3.78602 2.73397C3.78602 2.70697 3.80702 2.68597 3.83402 2.68597C3.86102 2.68597 3.88202 2.70697 3.88202 2.73397V2.73397Z" fill="#F5F5F5"/>
<path d="M3.88202 4.37899L3.98202 4.69399H4.31402C4.33302 4.69399 4.35002 4.70699 4.35602 4.72499C4.36202 4.74299 4.35502 4.76299 4.34002 4.77499L4.07302 4.97499L4.17302 5.29099C4.17902 5.30899 4.17202 5.32899 4.15602 5.34099C4.14002 5.35299 4.11902 5.35199 4.10402 5.34099L3.83402 5.14799L3.56402 5.34099C3.54802 5.35199 3.52702 5.35199 3.51202 5.34099C3.49702 5.32999 3.49002 5.30999 3.49502 5.29099L3.59502 4.97499L3.32802 4.77499C3.31302 4.76299 3.30602 4.74399 3.31202 4.72499C3.31802 4.70599 3.33502 4.69399 3.35402 4.69399H3.68602L3.78602 4.37899C3.78602 4.35199 3.80702 4.33099 3.83402 4.33099C3.86102 4.33099 3.88202 4.35199 3.88202 4.37899V4.37899Z" fill="#F5F5F5"/>
<path d="M3.88202 6.02499L3.98202 6.33999H4.31402C4.33302 6.33999 4.35002 6.35299 4.35602 6.37099C4.36202 6.38899 4.35502 6.40899 4.34002 6.42099L4.07302 6.62099L4.17302 6.93699C4.17902 6.95499 4.17202 6.97499 4.15602 6.98699C4.14002 6.99899 4.11902 6.99799 4.10402 6.98699L3.83402 6.79399L3.56402 6.98699C3.54802 6.99799 3.52702 6.99799 3.51202 6.98699C3.49702 6.97599 3.49002 6.95599 3.49502 6.93699L3.59502 6.62099L3.32802 6.42099C3.31302 6.40899 3.30602 6.38999 3.31202 6.37099C3.31802 6.35199 3.33502 6.33999 3.35402 6.33999H3.68602L3.78602 6.02499C3.78602 5.99799 3.80702 5.97699 3.83402 5.97699C3.86102 5.97699 3.88202 5.99799 3.88202 6.02499V6.02499Z" fill="#F5F5F5"/>
<path d="M3.88202 7.67199L3.98202 7.98699H4.31402C4.33302 7.98699 4.35002 7.99999 4.35602 8.01799C4.36202 8.03599 4.35502 8.05599 4.34002 8.06799L4.07302 8.26799L4.17302 8.58399C4.17902 8.60199 4.17202 8.62199 4.15602 8.63399C4.14002 8.64599 4.11902 8.64499 4.10402 8.63399L3.83402 8.44099L3.56402 8.63399C3.54802 8.64499 3.52702 8.64499 3.51202 8.63399C3.49702 8.62299 3.49002 8.60299 3.49502 8.58399L3.59502 8.26799L3.32802 8.06799C3.31302 8.05599 3.30602 8.03699 3.31202 8.01799C3.31802 7.99899 3.33502 7.98699 3.35402 7.98699H3.68602L3.78602 7.67199C3.78602 7.64499 3.80702 7.62399 3.83402 7.62399C3.86102 7.62399 3.88202 7.64499 3.88202 7.67199V7.67199Z" fill="#F5F5F5"/>
<path d="M5.16504 1.89498L5.26504 2.20998H5.59704C5.61604 2.20998 5.63304 2.22298 5.63904 2.24098C5.64504 2.25898 5.63804 2.27898 5.62304 2.29098L5.35604 2.49098L5.45604 2.80698C5.46204 2.82498 5.45504 2.84498 5.43904 2.85698C5.42304 2.86898 5.40204 2.86798 5.38704 2.85698L5.11704 2.66398L4.84704 2.85698C4.83104 2.86798 4.81004 2.86798 4.79504 2.85698C4.78004 2.84598 4.77304 2.82598 4.77804 2.80698L4.87804 2.49098L4.61104 2.29098C4.59604 2.27898 4.58904 2.25998 4.59504 2.24098C4.60104 2.22198 4.61804 2.20998 4.63704 2.20998H4.96904L5.06904 1.89498C5.06904 1.86798 5.09004 1.84698 5.11704 1.84698C5.14404 1.84698 5.16504 1.86798 5.16504 1.89498V1.89498Z" fill="#F5F5F5"/>
<path d="M5.16504 3.53997L5.26504 3.85497H5.59704C5.61604 3.85497 5.63304 3.86797 5.63904 3.88597C5.64504 3.90397 5.63804 3.92397 5.62304 3.93597L5.35604 4.13597L5.45604 4.45197C5.46204 4.46997 5.45504 4.48997 5.43904 4.50197C5.42304 4.51397 5.40204 4.51297 5.38704 4.50197L5.11704 4.30897L4.84704 4.50197C4.83104 4.51297 4.81004 4.51297 4.79504 4.50197C4.78004 4.49097 4.77304 4.47097 4.77804 4.45197L4.87804 4.13597L4.61104 3.93597C4.59604 3.92397 4.58904 3.90497 4.59504 3.88597C4.60104 3.86697 4.61804 3.85497 4.63704 3.85497H4.96904L5.06904 3.53997C5.06904 3.51297 5.09004 3.49197 5.11704 3.49197C5.14404 3.49197 5.16504 3.51297 5.16504 3.53997V3.53997Z" fill="#F5F5F5"/>
<path d="M5.16504 5.186L5.26504 5.501H5.59704C5.61604 5.501 5.63304 5.514 5.63904 5.532C5.64504 5.55 5.63804 5.57 5.62304 5.582L5.35604 5.782L5.45604 6.098C5.46204 6.116 5.45504 6.136 5.43904 6.148C5.42304 6.16 5.40204 6.159 5.38704 6.148L5.11704 5.955L4.84704 6.148C4.83104 6.159 4.81004 6.159 4.79504 6.148C4.78004 6.137 4.77304 6.117 4.77804 6.098L4.87804 5.782L4.61104 5.582C4.59604 5.57 4.58904 5.551 4.59504 5.532C4.60104 5.513 4.61804 5.501 4.63704 5.501H4.96904L5.06904 5.186C5.06904 5.159 5.09004 5.138 5.11704 5.138C5.14404 5.138 5.16504 5.159 5.16504 5.186V5.186Z" fill="#F5F5F5"/>
<path d="M5.16504 6.83297L5.26504 7.14797H5.59704C5.61604 7.14797 5.63304 7.16097 5.63904 7.17897C5.64504 7.19697 5.63804 7.21697 5.62304 7.22897L5.35604 7.42897L5.45604 7.74497C5.46204 7.76297 5.45504 7.78297 5.43904 7.79497C5.42304 7.80697 5.40204 7.80597 5.38704 7.79497L5.11704 7.60197L4.84704 7.79497C4.83104 7.80597 4.81004 7.80597 4.79504 7.79497C4.78004 7.78397 4.77304 7.76397 4.77804 7.74497L4.87804 7.42897L4.61104 7.22897C4.59604 7.21697 4.58904 7.19797 4.59504 7.17897C4.60104 7.15997 4.61804 7.14797 4.63704 7.14797H4.96904L5.06904 6.83297C5.06904 6.80597 5.09004 6.78497 5.11704 6.78497C5.14404 6.78497 5.16504 6.80597 5.16504 6.83297V6.83297Z" fill="#F5F5F5"/>
<path d="M6.44104 1.08899L6.54104 1.40399H6.87304C6.89204 1.40399 6.90904 1.41699 6.91504 1.43499C6.92104 1.45299 6.91404 1.47299 6.89904 1.48499L6.63204 1.68499L6.73204 2.00099C6.73804 2.01899 6.73104 2.03899 6.71504 2.05099C6.69904 2.06299 6.67804 2.06199 6.66304 2.05099L6.39304 1.85799L6.12304 2.05099C6.10704 2.06199 6.08604 2.06199 6.07104 2.05099C6.05604 2.03999 6.04904 2.01999 6.05404 2.00099L6.15404 1.68499L5.88704 1.48499C5.87204 1.47299 5.86504 1.45399 5.87104 1.43499C5.87704 1.41599 5.89404 1.40399 5.91304 1.40399H6.24504L6.34504 1.08899C6.34504 1.06199 6.36604 1.04099 6.39304 1.04099C6.42004 1.04099 6.44104 1.06199 6.44104 1.08899V1.08899Z" fill="#F5F5F5"/>
<path d="M6.44104 2.73397L6.54104 3.04897H6.87304C6.89204 3.04897 6.90904 3.06197 6.91504 3.07997C6.92104 3.09797 6.91404 3.11797 6.89904 3.12997L6.63204 3.32997L6.73204 3.64597C6.73804 3.66397 6.73104 3.68397 6.71504 3.69597C6.69904 3.70797 6.67804 3.70697 6.66304 3.69597L6.39304 3.50297L6.12304 3.69597C6.10704 3.70697 6.08604 3.70697 6.07104 3.69597C6.05604 3.68497 6.04904 3.66497 6.05404 3.64597L6.15404 3.32997L5.88704 3.12997C5.87204 3.11797 5.86504 3.09897 5.87104 3.07997C5.87704 3.06097 5.89404 3.04897 5.91304 3.04897H6.24504L6.34504 2.73397C6.34504 2.70697 6.36604 2.68597 6.39304 2.68597C6.42004 2.68597 6.44104 2.70697 6.44104 2.73397V2.73397Z" fill="#F5F5F5"/>
<path d="M6.44104 4.37899L6.54104 4.69399H6.87304C6.89204 4.69399 6.90904 4.70699 6.91504 4.72499C6.92104 4.74299 6.91404 4.76299 6.89904 4.77499L6.63204 4.97499L6.73204 5.29099C6.73804 5.30899 6.73104 5.32899 6.71504 5.34099C6.69904 5.35299 6.67804 5.35199 6.66304 5.34099L6.39304 5.14799L6.12304 5.34099C6.10704 5.35199 6.08604 5.35199 6.07104 5.34099C6.05604 5.32999 6.04904 5.30999 6.05404 5.29099L6.15404 4.97499L5.88704 4.77499C5.87204 4.76299 5.86504 4.74399 5.87104 4.72499C5.87704 4.70599 5.89404 4.69399 5.91304 4.69399H6.24504L6.34504 4.37899C6.34504 4.35199 6.36604 4.33099 6.39304 4.33099C6.42004 4.33099 6.44104 4.35199 6.44104 4.37899V4.37899Z" fill="#F5F5F5"/>
<path d="M6.44104 6.02499L6.54104 6.33999H6.87304C6.89204 6.33999 6.90904 6.35299 6.91504 6.37099C6.92104 6.38899 6.91404 6.40899 6.89904 6.42099L6.63204 6.62099L6.73204 6.93699C6.73804 6.95499 6.73104 6.97499 6.71504 6.98699C6.69904 6.99899 6.67804 6.99799 6.66304 6.98699L6.39304 6.79399L6.12304 6.98699C6.10704 6.99799 6.08604 6.99799 6.07104 6.98699C6.05604 6.97599 6.04904 6.95599 6.05404 6.93699L6.15404 6.62099L5.88704 6.42099C5.87204 6.40899 5.86504 6.38999 5.87104 6.37099C5.87704 6.35199 5.89404 6.33999 5.91304 6.33999H6.24504L6.34504 6.02499C6.34504 5.99799 6.36604 5.97699 6.39304 5.97699C6.42004 5.97699 6.44104 5.99799 6.44104 6.02499V6.02499Z" fill="#F5F5F5"/>
<path d="M6.44104 7.67199L6.54104 7.98699H6.87304C6.89204 7.98699 6.90904 7.99999 6.91504 8.01799C6.92104 8.03599 6.91404 8.05599 6.89904 8.06799L6.63204 8.26799L6.73204 8.58399C6.73804 8.60199 6.73104 8.62199 6.71504 8.63399C6.69904 8.64599 6.67804 8.64499 6.66304 8.63399L6.39304 8.44099L6.12304 8.63399C6.10704 8.64499 6.08604 8.64499 6.07104 8.63399C6.05604 8.62299 6.04904 8.60299 6.05404 8.58399L6.15404 8.26799L5.88704 8.06799C5.87204 8.05599 5.86504 8.03699 5.87104 8.01799C5.87704 7.99899 5.89404 7.98699 5.91304 7.98699H6.24504L6.34504 7.67199C6.34504 7.64499 6.36604 7.62399 6.39304 7.62399C6.42004 7.62399 6.44104 7.64499 6.44104 7.67199V7.67199Z" fill="#F5F5F5"/>
<path d="M7.71802 1.89498L7.81802 2.20998H8.15002C8.16902 2.20998 8.18602 2.22298 8.19202 2.24098C8.19802 2.25898 8.19102 2.27898 8.17602 2.29098L7.90902 2.49098L8.00902 2.80698C8.01502 2.82498 8.00802 2.84498 7.99202 2.85698C7.97602 2.86898 7.95502 2.86798 7.94002 2.85698L7.67002 2.66398L7.40002 2.85698C7.38402 2.86798 7.36302 2.86798 7.34802 2.85698C7.33302 2.84598 7.32602 2.82598 7.33102 2.80698L7.43102 2.49098L7.16402 2.29098C7.14902 2.27898 7.14202 2.25998 7.14802 2.24098C7.15402 2.22198 7.17102 2.20998 7.19002 2.20998H7.52202L7.62202 1.89498C7.62202 1.86798 7.64302 1.84698 7.67002 1.84698C7.69702 1.84698 7.71802 1.86798 7.71802 1.89498V1.89498Z" fill="#F5F5F5"/>
<path d="M7.71802 3.53997L7.81802 3.85497H8.15002C8.16902 3.85497 8.18602 3.86797 8.19202 3.88597C8.19802 3.90397 8.19102 3.92397 8.17602 3.93597L7.90902 4.13597L8.00902 4.45197C8.01502 4.46997 8.00802 4.48997 7.99202 4.50197C7.97602 4.51397 7.95502 4.51297 7.94002 4.50197L7.67002 4.30897L7.40002 4.50197C7.38402 4.51297 7.36302 4.51297 7.34802 4.50197C7.33302 4.49097 7.32602 4.47097 7.33102 4.45197L7.43102 4.13597L7.16402 3.93597C7.14902 3.92397 7.14202 3.90497 7.14802 3.88597C7.15402 3.86697 7.17102 3.85497 7.19002 3.85497H7.52202L7.62202 3.53997C7.62202 3.51297 7.64302 3.49197 7.67002 3.49197C7.69702 3.49197 7.71802 3.51297 7.71802 3.53997V3.53997Z" fill="#F5F5F5"/>
<path d="M7.71802 5.186L7.81802 5.501H8.15002C8.16902 5.501 8.18602 5.514 8.19202 5.532C8.19802 5.55 8.19102 5.57 8.17602 5.582L7.90902 5.782L8.00902 6.098C8.01502 6.116 8.00802 6.136 7.99202 6.148C7.97602 6.16 7.95502 6.159 7.94002 6.148L7.67002 5.955L7.40002 6.148C7.38402 6.159 7.36302 6.159 7.34802 6.148C7.33302 6.137 7.32602 6.117 7.33102 6.098L7.43102 5.782L7.16402 5.582C7.14902 5.57 7.14202 5.551 7.14802 5.532C7.15402 5.513 7.17102 5.501 7.19002 5.501H7.52202L7.62202 5.186C7.62202 5.159 7.64302 5.138 7.67002 5.138C7.69702 5.138 7.71802 5.159 7.71802 5.186V5.186Z" fill="#F5F5F5"/>
<path d="M7.71802 6.83297L7.81802 7.14797H8.15002C8.16902 7.14797 8.18602 7.16097 8.19202 7.17897C8.19802 7.19697 8.19102 7.21697 8.17602 7.22897L7.90902 7.42897L8.00902 7.74497C8.01502 7.76297 8.00802 7.78297 7.99202 7.79497C7.97602 7.80697 7.95502 7.80597 7.94002 7.79497L7.67002 7.60197L7.40002 7.79497C7.38402 7.80597 7.36302 7.80597 7.34802 7.79497C7.33302 7.78397 7.32602 7.76397 7.33102 7.74497L7.43102 7.42897L7.16402 7.22897C7.14902 7.21697 7.14202 7.19797 7.14802 7.17897C7.15402 7.15997 7.17102 7.14797 7.19002 7.14797H7.52202L7.62202 6.83297C7.62202 6.80597 7.64302 6.78497 7.67002 6.78497C7.69702 6.78497 7.71802 6.80597 7.71802 6.83297V6.83297Z" fill="#F5F5F5"/>
<path d="M8.99603 1.08899L9.09603 1.40399H9.42803C9.44703 1.40399 9.46403 1.41699 9.47003 1.43499C9.47603 1.45299 9.46903 1.47299 9.45403 1.48499L9.18703 1.68499L9.28703 2.00099C9.29303 2.01899 9.28603 2.03899 9.27003 2.05099C9.25403 2.06299 9.23303 2.06199 9.21803 2.05099L8.94803 1.85799L8.67803 2.05099C8.66203 2.06199 8.64103 2.06199 8.62603 2.05099C8.61103 2.03999 8.60403 2.01999 8.60903 2.00099L8.70903 1.68499L8.44203 1.48499C8.42703 1.47299 8.42003 1.45399 8.42603 1.43499C8.43203 1.41599 8.44903 1.40399 8.46803 1.40399H8.80003L8.90003 1.08899C8.90003 1.06199 8.92103 1.04099 8.94803 1.04099C8.97503 1.04099 8.99603 1.06199 8.99603 1.08899Z" fill="#F5F5F5"/>
<path d="M8.99603 2.73397L9.09603 3.04897H9.42803C9.44703 3.04897 9.46403 3.06197 9.47003 3.07997C9.47603 3.09797 9.46903 3.11797 9.45403 3.12997L9.18703 3.32997L9.28703 3.64597C9.29303 3.66397 9.28603 3.68397 9.27003 3.69597C9.25403 3.70797 9.23303 3.70697 9.21803 3.69597L8.94803 3.50297L8.67803 3.69597C8.66203 3.70697 8.64103 3.70697 8.62603 3.69597C8.61103 3.68497 8.60403 3.66497 8.60903 3.64597L8.70903 3.32997L8.44203 3.12997C8.42703 3.11797 8.42003 3.09897 8.42603 3.07997C8.43203 3.06097 8.44903 3.04897 8.46803 3.04897H8.80003L8.90003 2.73397C8.90003 2.70697 8.92103 2.68597 8.94803 2.68597C8.97503 2.68597 8.99603 2.70697 8.99603 2.73397Z" fill="#F5F5F5"/>
<path d="M8.99603 4.37899L9.09603 4.69399H9.42803C9.44703 4.69399 9.46403 4.70699 9.47003 4.72499C9.47603 4.74299 9.46903 4.76299 9.45403 4.77499L9.18703 4.97499L9.28703 5.29099C9.29303 5.30899 9.28603 5.32899 9.27003 5.34099C9.25403 5.35299 9.23303 5.35199 9.21803 5.34099L8.94803 5.14799L8.67803 5.34099C8.66203 5.35199 8.64103 5.35199 8.62603 5.34099C8.61103 5.32999 8.60403 5.30999 8.60903 5.29099L8.70903 4.97499L8.44203 4.77499C8.42703 4.76299 8.42003 4.74399 8.42603 4.72499C8.43203 4.70599 8.44903 4.69399 8.46803 4.69399H8.80003L8.90003 4.37899C8.90003 4.35199 8.92103 4.33099 8.94803 4.33099C8.97503 4.33099 8.99603 4.35199 8.99603 4.37899Z" fill="#F5F5F5"/>
<path d="M8.99603 6.02499L9.09603 6.33999H9.42803C9.44703 6.33999 9.46403 6.35299 9.47003 6.37099C9.47603 6.38899 9.46903 6.40899 9.45403 6.42099L9.18703 6.62099L9.28703 6.93699C9.29303 6.95499 9.28603 6.97499 9.27003 6.98699C9.25403 6.99899 9.23303 6.99799 9.21803 6.98699L8.94803 6.79399L8.67803 6.98699C8.66203 6.99799 8.64103 6.99799 8.62603 6.98699C8.61103 6.97599 8.60403 6.95599 8.60903 6.93699L8.70903 6.62099L8.44203 6.42099C8.42703 6.40899 8.42003 6.38999 8.42603 6.37099C8.43203 6.35199 8.44903 6.33999 8.46803 6.33999H8.80003L8.90003 6.02499C8.90003 5.99799 8.92103 5.97699 8.94803 5.97699C8.97503 5.97699 8.99603 5.99799 8.99603 6.02499Z" fill="#F5F5F5"/>
<path d="M8.99603 7.67199L9.09603 7.98699H9.42803C9.44703 7.98699 9.46403 7.99999 9.47003 8.01799C9.47603 8.03599 9.46903 8.05599 9.45403 8.06799L9.18703 8.26799L9.28703 8.58399C9.29303 8.60199 9.28603 8.62199 9.27003 8.63399C9.25403 8.64599 9.23303 8.64499 9.21803 8.63399L8.94803 8.44099L8.67803 8.63399C8.66203 8.64499 8.64103 8.64499 8.62603 8.63399C8.61103 8.62299 8.60403 8.60299 8.60903 8.58399L8.70903 8.26799L8.44203 8.06799C8.42703 8.05599 8.42003 8.03699 8.42603 8.01799C8.43203 7.99899 8.44903 7.98699 8.46803 7.98699H8.80003L8.90003 7.67199C8.90003 7.64499 8.92103 7.62399 8.94803 7.62399C8.97503 7.62399 8.99603 7.64499 8.99603 7.67199Z" fill="#F5F5F5"/>
<path d="M10.274 1.89498L10.374 2.20998H10.706C10.725 2.20998 10.742 2.22298 10.748 2.24098C10.754 2.25898 10.747 2.27898 10.732 2.29098L10.465 2.49098L10.565 2.80698C10.571 2.82498 10.564 2.84498 10.548 2.85698C10.532 2.86898 10.511 2.86798 10.496 2.85698L10.226 2.66398L9.95605 2.85698C9.94005 2.86798 9.91905 2.86798 9.90405 2.85698C9.88905 2.84598 9.88205 2.82598 9.88705 2.80698L9.98705 2.49098L9.72005 2.29098C9.70505 2.27898 9.69805 2.25998 9.70405 2.24098C9.71005 2.22198 9.72705 2.20998 9.74605 2.20998H10.078L10.178 1.89498C10.178 1.86798 10.199 1.84698 10.226 1.84698C10.253 1.84698 10.274 1.86798 10.274 1.89498V1.89498Z" fill="#F5F5F5"/>
<path d="M10.274 3.53997L10.374 3.85497H10.706C10.725 3.85497 10.742 3.86797 10.748 3.88597C10.754 3.90397 10.747 3.92397 10.732 3.93597L10.465 4.13597L10.565 4.45197C10.571 4.46997 10.564 4.48997 10.548 4.50197C10.532 4.51397 10.511 4.51297 10.496 4.50197L10.226 4.30897L9.95605 4.50197C9.94005 4.51297 9.91905 4.51297 9.90405 4.50197C9.88905 4.49097 9.88205 4.47097 9.88705 4.45197L9.98705 4.13597L9.72005 3.93597C9.70505 3.92397 9.69805 3.90497 9.70405 3.88597C9.71005 3.86697 9.72705 3.85497 9.74605 3.85497H10.078L10.178 3.53997C10.178 3.51297 10.199 3.49197 10.226 3.49197C10.253 3.49197 10.274 3.51297 10.274 3.53997V3.53997Z" fill="#F5F5F5"/>
<path d="M10.274 5.186L10.374 5.501H10.706C10.725 5.501 10.742 5.514 10.748 5.532C10.754 5.55 10.747 5.57 10.732 5.582L10.465 5.782L10.565 6.098C10.571 6.116 10.564 6.136 10.548 6.148C10.532 6.16 10.511 6.159 10.496 6.148L10.226 5.955L9.95605 6.148C9.94005 6.159 9.91905 6.159 9.90405 6.148C9.88905 6.137 9.88205 6.117 9.88705 6.098L9.98705 5.782L9.72005 5.582C9.70505 5.57 9.69805 5.551 9.70405 5.532C9.71005 5.513 9.72705 5.501 9.74605 5.501H10.078L10.178 5.186C10.178 5.159 10.199 5.138 10.226 5.138C10.253 5.138 10.274 5.159 10.274 5.186V5.186Z" fill="#F5F5F5"/>
<path d="M10.274 6.83297L10.374 7.14797H10.706C10.725 7.14797 10.742 7.16097 10.748 7.17897C10.754 7.19697 10.747 7.21697 10.732 7.22897L10.465 7.42897L10.565 7.74497C10.571 7.76297 10.564 7.78297 10.548 7.79497C10.532 7.80697 10.511 7.80597 10.496 7.79497L10.226 7.60197L9.95605 7.79497C9.94005 7.80597 9.91905 7.80597 9.90405 7.79497C9.88905 7.78397 9.88205 7.76397 9.88705 7.74497L9.98705 7.42897L9.72005 7.22897C9.70505 7.21697 9.69805 7.19797 9.70405 7.17897C9.71005 7.15997 9.72705 7.14797 9.74605 7.14797H10.078L10.178 6.83297C10.178 6.80597 10.199 6.78497 10.226 6.78497C10.253 6.78497 10.274 6.80597 10.274 6.83297V6.83297Z" fill="#F5F5F5"/>
<path d="M11.551 1.08899L11.651 1.40399H11.983C12.002 1.40399 12.019 1.41699 12.025 1.43499C12.031 1.45299 12.024 1.47299 12.009 1.48499L11.742 1.68499L11.842 2.00099C11.848 2.01899 11.841 2.03899 11.825 2.05099C11.809 2.06299 11.788 2.06199 11.773 2.05099L11.503 1.85799L11.233 2.05099C11.217 2.06199 11.196 2.06199 11.181 2.05099C11.166 2.03999 11.159 2.01999 11.164 2.00099L11.264 1.68499L10.997 1.48499C10.982 1.47299 10.975 1.45399 10.981 1.43499C10.987 1.41599 11.004 1.40399 11.023 1.40399H11.355L11.455 1.08899C11.455 1.06199 11.476 1.04099 11.503 1.04099C11.53 1.04099 11.551 1.06199 11.551 1.08899V1.08899Z" fill="#F5F5F5"/>
<path d="M11.551 2.73397L11.651 3.04897H11.983C12.002 3.04897 12.019 3.06197 12.025 3.07997C12.031 3.09797 12.024 3.11797 12.009 3.12997L11.742 3.32997L11.842 3.64597C11.848 3.66397 11.841 3.68397 11.825 3.69597C11.809 3.70797 11.788 3.70697 11.773 3.69597L11.503 3.50297L11.233 3.69597C11.217 3.70697 11.196 3.70697 11.181 3.69597C11.166 3.68497 11.159 3.66497 11.164 3.64597L11.264 3.32997L10.997 3.12997C10.982 3.11797 10.975 3.09897 10.981 3.07997C10.987 3.06097 11.004 3.04897 11.023 3.04897H11.355L11.455 2.73397C11.455 2.70697 11.476 2.68597 11.503 2.68597C11.53 2.68597 11.551 2.70697 11.551 2.73397V2.73397Z" fill="#F5F5F5"/>
<path d="M11.551 4.37899L11.651 4.69399H11.983C12.002 4.69399 12.019 4.70699 12.025 4.72499C12.031 4.74299 12.024 4.76299 12.009 4.77499L11.742 4.97499L11.842 5.29099C11.848 5.30899 11.841 5.32899 11.825 5.34099C11.809 5.35299 11.788 5.35199 11.773 5.34099L11.503 5.14799L11.233 5.34099C11.217 5.35199 11.196 5.35199 11.181 5.34099C11.166 5.32999 11.159 5.30999 11.164 5.29099L11.264 4.97499L10.997 4.77499C10.982 4.76299 10.975 4.74399 10.981 4.72499C10.987 4.70599 11.004 4.69399 11.023 4.69399H11.355L11.455 4.37899C11.455 4.35199 11.476 4.33099 11.503 4.33099C11.53 4.33099 11.551 4.35199 11.551 4.37899V4.37899Z" fill="#F5F5F5"/>
<path d="M11.551 6.02499L11.651 6.33999H11.983C12.002 6.33999 12.019 6.35299 12.025 6.37099C12.031 6.38899 12.024 6.40899 12.009 6.42099L11.742 6.62099L11.842 6.93699C11.848 6.95499 11.841 6.97499 11.825 6.98699C11.809 6.99899 11.788 6.99799 11.773 6.98699L11.503 6.79399L11.233 6.98699C11.217 6.99799 11.196 6.99799 11.181 6.98699C11.166 6.97599 11.159 6.95599 11.164 6.93699L11.264 6.62099L10.997 6.42099C10.982 6.40899 10.975 6.38999 10.981 6.37099C10.987 6.35199 11.004 6.33999 11.023 6.33999H11.355L11.455 6.02499C11.455 5.99799 11.476 5.97699 11.503 5.97699C11.53 5.97699 11.551 5.99799 11.551 6.02499V6.02499Z" fill="#F5F5F5"/>
<path d="M11.551 7.67199L11.651 7.98699H11.983C12.002 7.98699 12.019 7.99999 12.025 8.01799C12.031 8.03599 12.024 8.05599 12.009 8.06799L11.742 8.26799L11.842 8.58399C11.848 8.60199 11.841 8.62199 11.825 8.63399C11.809 8.64599 11.788 8.64499 11.773 8.63399L11.503 8.44099L11.233 8.63399C11.217 8.64499 11.196 8.64499 11.181 8.63399C11.166 8.62299 11.159 8.60299 11.164 8.58399L11.264 8.26799L10.997 8.06799C10.982 8.05599 10.975 8.03699 10.981 8.01799C10.987 7.99899 11.004 7.98699 11.023 7.98699H11.355L11.455 7.67199C11.455 7.64499 11.476 7.62399 11.503 7.62399C11.53 7.62399 11.551 7.64499 11.551 7.67199V7.67199Z" fill="#F5F5F5"/>
</g>
<defs>
<clipPath id="clip0_101_8">
<rect width="27.492" height="18.012" fill="white"/>
</clipPath>
</defs>
</svg>
