<svg width="28" height="19" viewBox="0 0 28 19" fill="none" xmlns="http://www.w3.org/2000/svg">
<g clip-path="url(#clip0_101_2)">
<path d="M25.433 0H2.059C1.513 0.000264984 0.98944 0.21728 0.60336 0.60336C0.21728 0.98944 0.000264984 1.513 0 2.059L0 15.953C0.000264984 16.499 0.21728 17.0226 0.60336 17.4086C0.98944 17.7947 1.513 18.0117 2.059 18.012H25.433C25.979 18.0117 26.5026 17.7947 26.8886 17.4086C27.2747 17.0226 27.4917 16.499 27.492 15.953V2.059C27.4917 1.513 27.2747 0.98944 26.8886 0.60336C26.5026 0.21728 25.979 0.000264984 25.433 0Z" fill="#41479B"/>
<path d="M27.464 1.719C27.3834 1.23876 27.1353 0.802607 26.7637 0.487923C26.392 0.173239 25.921 0.000373613 25.434 0L24.9 0L16.119 5.753V0H11.379V5.753L2.595 0H2.059C1.57205 0.000373613 1.10097 0.173239 0.729349 0.487923C0.357733 0.802607 0.109607 1.23876 0.029 1.719L7.534 6.636H0V11.376H7.534L0.029 16.293C0.109607 16.7732 0.357733 17.2094 0.729349 17.5241C1.10097 17.8388 1.57205 18.0116 2.059 18.012H2.595L11.376 12.259V18.012H16.116V12.259L24.897 18.012H25.433C25.92 18.0116 26.391 17.8388 26.7627 17.5241C27.1343 17.2094 27.3824 16.7732 27.463 16.293L19.958 11.376H27.492V6.636H19.958L27.464 1.719Z" fill="#F5F5F5"/>
<path d="M15.168 0H12.324V7.584H0V10.424H12.324V18.008H15.168V10.424H27.492V7.584H15.168V0ZM1.331 17.879L11.35 11.379H9.608L0.495 17.295C0.720317 17.5567 1.00779 17.7575 1.331 17.879ZM18.598 11.376H16.858L26.558 17.676C26.8299 17.4977 27.056 17.2579 27.218 16.976L18.598 11.376ZM0.217 1.138L8.686 6.638H10.428L0.828 0.408C0.57 0.6 0.361 0.85 0.217 1.138ZM17.857 6.636L26.987 0.709C26.7596 0.446748 26.4696 0.246207 26.144 0.126L16.116 6.636H17.857Z" fill="#FF4B55"/>
</g>
<defs>
<clipPath id="clip0_101_2">
<rect width="27.492" height="18.012" fill="white"/>
</clipPath>
</defs>
</svg>
