<svg width="97" height="132" viewBox="0 0 97 132" fill="none" xmlns="http://www.w3.org/2000/svg">
<g clip-path="url(#clip0_108_2)">
<mask id="mask0_108_2" style="mask-type:luminance" maskUnits="userSpaceOnUse" x="0" y="0" width="97" height="132">
<path d="M97 0H0V131.374H97V0Z" fill="white"/>
</mask>
<g mask="url(#mask0_108_2)">
<g opacity="0.4">
<path d="M6 124.67C6.71797 124.67 7.3 124.088 7.3 123.37C7.3 122.652 6.71797 122.07 6 122.07C5.28203 122.07 4.7 122.652 4.7 123.37C4.7 124.088 5.28203 124.67 6 124.67Z" fill="white"/>
<path d="M20.4 124.67C21.118 124.67 21.7 124.088 21.7 123.37C21.7 122.652 21.118 122.07 20.4 122.07C19.682 122.07 19.1 122.652 19.1 123.37C19.1 124.088 19.682 124.67 20.4 124.67Z" fill="white"/>
<path d="M34.8 124.67C35.518 124.67 36.1 124.088 36.1 123.37C36.1 122.652 35.518 122.07 34.8 122.07C34.082 122.07 33.5 122.652 33.5 123.37C33.5 124.088 34.082 124.67 34.8 124.67Z" fill="white"/>
<path d="M49.2 124.67C49.918 124.67 50.5 124.088 50.5 123.37C50.5 122.652 49.918 122.07 49.2 122.07C48.482 122.07 47.9 122.652 47.9 123.37C47.9 124.088 48.482 124.67 49.2 124.67Z" fill="white"/>
<path d="M63.6 124.67C64.318 124.67 64.9 124.088 64.9 123.37C64.9 122.652 64.318 122.07 63.6 122.07C62.882 122.07 62.3 122.652 62.3 123.37C62.3 124.088 62.882 124.67 63.6 124.67Z" fill="white"/>
<path d="M78 124.67C78.718 124.67 79.3 124.088 79.3 123.37C79.3 122.652 78.718 122.07 78 122.07C77.282 122.07 76.7 122.652 76.7 123.37C76.7 124.088 77.282 124.67 78 124.67Z" fill="white"/>
<path d="M92.4 124.67C93.118 124.67 93.7 124.088 93.7 123.37C93.7 122.652 93.118 122.07 92.4 122.07C91.682 122.07 91.1 122.652 91.1 123.37C91.1 124.088 91.682 124.67 92.4 124.67Z" fill="white"/>
<path d="M-1.2 110.27C-0.48203 110.27 0.0999999 109.688 0.0999999 108.97C0.0999999 108.252 -0.48203 107.67 -1.2 107.67C-1.91797 107.67 -2.5 108.252 -2.5 108.97C-2.5 109.688 -1.91797 110.27 -1.2 110.27Z" fill="white"/>
<path d="M13.2 110.27C13.918 110.27 14.5 109.688 14.5 108.97C14.5 108.252 13.918 107.67 13.2 107.67C12.482 107.67 11.9 108.252 11.9 108.97C11.9 109.688 12.482 110.27 13.2 110.27Z" fill="white"/>
<path d="M27.6 110.27C28.318 110.27 28.9 109.688 28.9 108.97C28.9 108.252 28.318 107.67 27.6 107.67C26.882 107.67 26.3 108.252 26.3 108.97C26.3 109.688 26.882 110.27 27.6 110.27Z" fill="white"/>
<path d="M42 110.27C42.718 110.27 43.3 109.688 43.3 108.97C43.3 108.252 42.718 107.67 42 107.67C41.282 107.67 40.7 108.252 40.7 108.97C40.7 109.688 41.282 110.27 42 110.27Z" fill="white"/>
<path d="M56.4 110.27C57.118 110.27 57.7 109.688 57.7 108.97C57.7 108.252 57.118 107.67 56.4 107.67C55.682 107.67 55.1 108.252 55.1 108.97C55.1 109.688 55.682 110.27 56.4 110.27Z" fill="white"/>
<path d="M70.8 110.27C71.518 110.27 72.1 109.688 72.1 108.97C72.1 108.252 71.518 107.67 70.8 107.67C70.082 107.67 69.5 108.252 69.5 108.97C69.5 109.688 70.082 110.27 70.8 110.27Z" fill="white"/>
<path d="M85.2 110.27C85.918 110.27 86.5 109.688 86.5 108.97C86.5 108.252 85.918 107.67 85.2 107.67C84.482 107.67 83.9 108.252 83.9 108.97C83.9 109.688 84.482 110.27 85.2 110.27Z" fill="white"/>
<path d="M6 95.8699C6.71797 95.8699 7.3 95.2879 7.3 94.5699C7.3 93.852 6.71797 93.2699 6 93.2699C5.28203 93.2699 4.7 93.852 4.7 94.5699C4.7 95.2879 5.28203 95.8699 6 95.8699Z" fill="white"/>
<path d="M20.4 95.8699C21.118 95.8699 21.7 95.2879 21.7 94.5699C21.7 93.852 21.118 93.2699 20.4 93.2699C19.682 93.2699 19.1 93.852 19.1 94.5699C19.1 95.2879 19.682 95.8699 20.4 95.8699Z" fill="white"/>
<path d="M34.8 95.8699C35.518 95.8699 36.1 95.2879 36.1 94.5699C36.1 93.852 35.518 93.2699 34.8 93.2699C34.082 93.2699 33.5 93.852 33.5 94.5699C33.5 95.2879 34.082 95.8699 34.8 95.8699Z" fill="white"/>
<path d="M49.2 95.8699C49.918 95.8699 50.5 95.2879 50.5 94.5699C50.5 93.852 49.918 93.2699 49.2 93.2699C48.482 93.2699 47.9 93.852 47.9 94.5699C47.9 95.2879 48.482 95.8699 49.2 95.8699Z" fill="white"/>
<path d="M63.6 95.8699C64.318 95.8699 64.9 95.2879 64.9 94.5699C64.9 93.852 64.318 93.2699 63.6 93.2699C62.882 93.2699 62.3 93.852 62.3 94.5699C62.3 95.2879 62.882 95.8699 63.6 95.8699Z" fill="white"/>
<path d="M78 95.8699C78.718 95.8699 79.3 95.2879 79.3 94.5699C79.3 93.852 78.718 93.2699 78 93.2699C77.282 93.2699 76.7 93.852 76.7 94.5699C76.7 95.2879 77.282 95.8699 78 95.8699Z" fill="white"/>
<path d="M92.4 95.8699C93.118 95.8699 93.7 95.2879 93.7 94.5699C93.7 93.852 93.118 93.2699 92.4 93.2699C91.682 93.2699 91.1 93.852 91.1 94.5699C91.1 95.2879 91.682 95.8699 92.4 95.8699Z" fill="white"/>
<path d="M-1.2 81.4699C-0.48203 81.4699 0.0999999 80.8879 0.0999999 80.1699C0.0999999 79.452 -0.48203 78.8699 -1.2 78.8699C-1.91797 78.8699 -2.5 79.452 -2.5 80.1699C-2.5 80.8879 -1.91797 81.4699 -1.2 81.4699Z" fill="white"/>
<path d="M13.2 81.4699C13.918 81.4699 14.5 80.8879 14.5 80.1699C14.5 79.452 13.918 78.8699 13.2 78.8699C12.482 78.8699 11.9 79.452 11.9 80.1699C11.9 80.8879 12.482 81.4699 13.2 81.4699Z" fill="white"/>
<path d="M27.6 81.4699C28.318 81.4699 28.9 80.8879 28.9 80.1699C28.9 79.452 28.318 78.8699 27.6 78.8699C26.882 78.8699 26.3 79.452 26.3 80.1699C26.3 80.8879 26.882 81.4699 27.6 81.4699Z" fill="white"/>
<path d="M42 81.4699C42.718 81.4699 43.3 80.8879 43.3 80.1699C43.3 79.452 42.718 78.8699 42 78.8699C41.282 78.8699 40.7 79.452 40.7 80.1699C40.7 80.8879 41.282 81.4699 42 81.4699Z" fill="white"/>
<path d="M56.4 81.4699C57.118 81.4699 57.7 80.8879 57.7 80.1699C57.7 79.452 57.118 78.8699 56.4 78.8699C55.682 78.8699 55.1 79.452 55.1 80.1699C55.1 80.8879 55.682 81.4699 56.4 81.4699Z" fill="white"/>
<path d="M70.8 81.4699C71.518 81.4699 72.1 80.8879 72.1 80.1699C72.1 79.452 71.518 78.8699 70.8 78.8699C70.082 78.8699 69.5 79.452 69.5 80.1699C69.5 80.8879 70.082 81.4699 70.8 81.4699Z" fill="white"/>
<path d="M85.2 81.4699C85.918 81.4699 86.5 80.8879 86.5 80.1699C86.5 79.452 85.918 78.8699 85.2 78.8699C84.482 78.8699 83.9 79.452 83.9 80.1699C83.9 80.8879 84.482 81.4699 85.2 81.4699Z" fill="white"/>
<path d="M6 67.0699C6.71797 67.0699 7.3 66.4879 7.3 65.7699C7.3 65.052 6.71797 64.4699 6 64.4699C5.28203 64.4699 4.7 65.052 4.7 65.7699C4.7 66.4879 5.28203 67.0699 6 67.0699Z" fill="white"/>
<path d="M20.4 67.0699C21.118 67.0699 21.7 66.4879 21.7 65.7699C21.7 65.052 21.118 64.4699 20.4 64.4699C19.682 64.4699 19.1 65.052 19.1 65.7699C19.1 66.4879 19.682 67.0699 20.4 67.0699Z" fill="white"/>
<path d="M34.8 67.0699C35.518 67.0699 36.1 66.4879 36.1 65.7699C36.1 65.052 35.518 64.4699 34.8 64.4699C34.082 64.4699 33.5 65.052 33.5 65.7699C33.5 66.4879 34.082 67.0699 34.8 67.0699Z" fill="white"/>
<path d="M49.2 67.0699C49.918 67.0699 50.5 66.4879 50.5 65.7699C50.5 65.052 49.918 64.4699 49.2 64.4699C48.482 64.4699 47.9 65.052 47.9 65.7699C47.9 66.4879 48.482 67.0699 49.2 67.0699Z" fill="white"/>
<path d="M63.6 67.0699C64.318 67.0699 64.9 66.4879 64.9 65.7699C64.9 65.052 64.318 64.4699 63.6 64.4699C62.882 64.4699 62.3 65.052 62.3 65.7699C62.3 66.4879 62.882 67.0699 63.6 67.0699Z" fill="white"/>
<path d="M78 67.0699C78.718 67.0699 79.3 66.4879 79.3 65.7699C79.3 65.052 78.718 64.4699 78 64.4699C77.282 64.4699 76.7 65.052 76.7 65.7699C76.7 66.4879 77.282 67.0699 78 67.0699Z" fill="white"/>
<path d="M92.4 67.0699C93.118 67.0699 93.7 66.4879 93.7 65.7699C93.7 65.052 93.118 64.4699 92.4 64.4699C91.682 64.4699 91.1 65.052 91.1 65.7699C91.1 66.4879 91.682 67.0699 92.4 67.0699Z" fill="white"/>
<path d="M-1.2 52.6699C-0.48203 52.6699 0.0999999 52.0879 0.0999999 51.3699C0.0999999 50.6519 -0.48203 50.0699 -1.2 50.0699C-1.91797 50.0699 -2.5 50.6519 -2.5 51.3699C-2.5 52.0879 -1.91797 52.6699 -1.2 52.6699Z" fill="white"/>
<path d="M13.2 52.6699C13.918 52.6699 14.5 52.0879 14.5 51.3699C14.5 50.6519 13.918 50.0699 13.2 50.0699C12.482 50.0699 11.9 50.6519 11.9 51.3699C11.9 52.0879 12.482 52.6699 13.2 52.6699Z" fill="white"/>
<path d="M27.6 52.6699C28.318 52.6699 28.9 52.0879 28.9 51.3699C28.9 50.6519 28.318 50.0699 27.6 50.0699C26.882 50.0699 26.3 50.6519 26.3 51.3699C26.3 52.0879 26.882 52.6699 27.6 52.6699Z" fill="white"/>
<path d="M42 52.6699C42.718 52.6699 43.3 52.0879 43.3 51.3699C43.3 50.6519 42.718 50.0699 42 50.0699C41.282 50.0699 40.7 50.6519 40.7 51.3699C40.7 52.0879 41.282 52.6699 42 52.6699Z" fill="white"/>
<path d="M56.4 52.6699C57.118 52.6699 57.7 52.0879 57.7 51.3699C57.7 50.6519 57.118 50.0699 56.4 50.0699C55.682 50.0699 55.1 50.6519 55.1 51.3699C55.1 52.0879 55.682 52.6699 56.4 52.6699Z" fill="white"/>
<path d="M70.8 52.6699C71.518 52.6699 72.1 52.0879 72.1 51.3699C72.1 50.6519 71.518 50.0699 70.8 50.0699C70.082 50.0699 69.5 50.6519 69.5 51.3699C69.5 52.0879 70.082 52.6699 70.8 52.6699Z" fill="white"/>
<path d="M85.2 52.6699C85.918 52.6699 86.5 52.0879 86.5 51.3699C86.5 50.6519 85.918 50.0699 85.2 50.0699C84.482 50.0699 83.9 50.6519 83.9 51.3699C83.9 52.0879 84.482 52.6699 85.2 52.6699Z" fill="white"/>
<path d="M6 38.2699C6.71797 38.2699 7.3 37.6879 7.3 36.9699C7.3 36.252 6.71797 35.6699 6 35.6699C5.28203 35.6699 4.7 36.252 4.7 36.9699C4.7 37.6879 5.28203 38.2699 6 38.2699Z" fill="white"/>
<path d="M20.4 38.2699C21.118 38.2699 21.7 37.6879 21.7 36.9699C21.7 36.252 21.118 35.6699 20.4 35.6699C19.682 35.6699 19.1 36.252 19.1 36.9699C19.1 37.6879 19.682 38.2699 20.4 38.2699Z" fill="white"/>
<path d="M34.8 38.2699C35.518 38.2699 36.1 37.6879 36.1 36.9699C36.1 36.252 35.518 35.6699 34.8 35.6699C34.082 35.6699 33.5 36.252 33.5 36.9699C33.5 37.6879 34.082 38.2699 34.8 38.2699Z" fill="white"/>
<path d="M49.2 38.2699C49.918 38.2699 50.5 37.6879 50.5 36.9699C50.5 36.252 49.918 35.6699 49.2 35.6699C48.482 35.6699 47.9 36.252 47.9 36.9699C47.9 37.6879 48.482 38.2699 49.2 38.2699Z" fill="white"/>
<path d="M63.6 38.2699C64.318 38.2699 64.9 37.6879 64.9 36.9699C64.9 36.252 64.318 35.6699 63.6 35.6699C62.882 35.6699 62.3 36.252 62.3 36.9699C62.3 37.6879 62.882 38.2699 63.6 38.2699Z" fill="white"/>
<path d="M78 38.2699C78.718 38.2699 79.3 37.6879 79.3 36.9699C79.3 36.252 78.718 35.6699 78 35.6699C77.282 35.6699 76.7 36.252 76.7 36.9699C76.7 37.6879 77.282 38.2699 78 38.2699Z" fill="white"/>
<path d="M92.4 38.2699C93.118 38.2699 93.7 37.6879 93.7 36.9699C93.7 36.252 93.118 35.6699 92.4 35.6699C91.682 35.6699 91.1 36.252 91.1 36.9699C91.1 37.6879 91.682 38.2699 92.4 38.2699Z" fill="white"/>
<path d="M-1.2 23.8699C-0.48203 23.8699 0.0999999 23.2879 0.0999999 22.5699C0.0999999 21.852 -0.48203 21.2699 -1.2 21.2699C-1.91797 21.2699 -2.5 21.852 -2.5 22.5699C-2.5 23.2879 -1.91797 23.8699 -1.2 23.8699Z" fill="white"/>
<path d="M13.2 23.8699C13.918 23.8699 14.5 23.2879 14.5 22.5699C14.5 21.852 13.918 21.2699 13.2 21.2699C12.482 21.2699 11.9 21.852 11.9 22.5699C11.9 23.2879 12.482 23.8699 13.2 23.8699Z" fill="white"/>
<path d="M27.6 23.8699C28.318 23.8699 28.9 23.2879 28.9 22.5699C28.9 21.852 28.318 21.2699 27.6 21.2699C26.882 21.2699 26.3 21.852 26.3 22.5699C26.3 23.2879 26.882 23.8699 27.6 23.8699Z" fill="white"/>
<path d="M42 23.8699C42.718 23.8699 43.3 23.2879 43.3 22.5699C43.3 21.852 42.718 21.2699 42 21.2699C41.282 21.2699 40.7 21.852 40.7 22.5699C40.7 23.2879 41.282 23.8699 42 23.8699Z" fill="white"/>
<path d="M56.4 23.8699C57.118 23.8699 57.7 23.2879 57.7 22.5699C57.7 21.852 57.118 21.2699 56.4 21.2699C55.682 21.2699 55.1 21.852 55.1 22.5699C55.1 23.2879 55.682 23.8699 56.4 23.8699Z" fill="white"/>
<path d="M70.8 23.8699C71.518 23.8699 72.1 23.2879 72.1 22.5699C72.1 21.852 71.518 21.2699 70.8 21.2699C70.082 21.2699 69.5 21.852 69.5 22.5699C69.5 23.2879 70.082 23.8699 70.8 23.8699Z" fill="white"/>
<path d="M85.2 23.8699C85.918 23.8699 86.5 23.2879 86.5 22.5699C86.5 21.852 85.918 21.2699 85.2 21.2699C84.482 21.2699 83.9 21.852 83.9 22.5699C83.9 23.2879 84.482 23.8699 85.2 23.8699Z" fill="white"/>
<path d="M6 9.46992C6.71797 9.46992 7.3 8.88789 7.3 8.16992C7.3 7.45195 6.71797 6.86992 6 6.86992C5.28203 6.86992 4.7 7.45195 4.7 8.16992C4.7 8.88789 5.28203 9.46992 6 9.46992Z" fill="white"/>
<path d="M20.4 9.46992C21.118 9.46992 21.7 8.88789 21.7 8.16992C21.7 7.45195 21.118 6.86992 20.4 6.86992C19.682 6.86992 19.1 7.45195 19.1 8.16992C19.1 8.88789 19.682 9.46992 20.4 9.46992Z" fill="white"/>
<path d="M34.8 9.46992C35.518 9.46992 36.1 8.88789 36.1 8.16992C36.1 7.45195 35.518 6.86992 34.8 6.86992C34.082 6.86992 33.5 7.45195 33.5 8.16992C33.5 8.88789 34.082 9.46992 34.8 9.46992Z" fill="white"/>
<path d="M49.2 9.46992C49.918 9.46992 50.5 8.88789 50.5 8.16992C50.5 7.45195 49.918 6.86992 49.2 6.86992C48.482 6.86992 47.9 7.45195 47.9 8.16992C47.9 8.88789 48.482 9.46992 49.2 9.46992Z" fill="white"/>
<path d="M63.6 9.46992C64.318 9.46992 64.9 8.88789 64.9 8.16992C64.9 7.45195 64.318 6.86992 63.6 6.86992C62.882 6.86992 62.3 7.45195 62.3 8.16992C62.3 8.88789 62.882 9.46992 63.6 9.46992Z" fill="white"/>
<path d="M78 9.46992C78.718 9.46992 79.3 8.88789 79.3 8.16992C79.3 7.45195 78.718 6.86992 78 6.86992C77.282 6.86992 76.7 7.45195 76.7 8.16992C76.7 8.88789 77.282 9.46992 78 9.46992Z" fill="white"/>
<path d="M92.4 9.46992C93.118 9.46992 93.7 8.88789 93.7 8.16992C93.7 7.45195 93.118 6.86992 92.4 6.86992C91.682 6.86992 91.1 7.45195 91.1 8.16992C91.1 8.88789 91.682 9.46992 92.4 9.46992Z" fill="white"/>
</g>
</g>
</g>
<defs>
<clipPath id="clip0_108_2">
<rect width="97" height="131.374" fill="white"/>
</clipPath>
</defs>
</svg>
