<svg width="31" height="31" viewBox="0 0 31 31" fill="none" xmlns="http://www.w3.org/2000/svg">
<g clip-path="url(#clip0_104_2)">
<path d="M30.201 15.1041C30.2018 12.2181 29.3755 9.39229 27.82 6.96136C26.2645 4.53043 24.0449 2.59619 21.4242 1.38768C18.8034 0.179163 15.8911 -0.252996 13.0323 0.142383C10.1736 0.537763 7.48795 1.74411 5.29355 3.61858C3.09915 5.49305 1.48788 7.95712 0.650552 10.719C-0.186777 13.4808 -0.215096 16.4248 0.568956 19.2023C1.35301 21.9797 2.91658 24.4743 5.07453 26.3907C7.23247 28.307 9.89437 29.5648 12.745 30.0151V19.4651H8.90704V15.1041H12.74V11.7751C12.74 7.99108 14.994 5.90108 18.44 5.90108C19.5721 5.91687 20.7014 6.01547 21.819 6.19608V9.91108H19.919C19.5947 9.86808 19.2648 9.89859 18.9538 10.0003C18.6428 10.1021 18.3586 10.2725 18.1224 10.4989C17.8862 10.7254 17.7039 11.002 17.5891 11.3084C17.4743 11.6149 17.4298 11.9432 17.459 12.2691V15.1041H21.646L20.977 19.4681H17.463V30.0181C21.0141 29.4557 24.2481 27.6446 26.5831 24.9107C28.9181 22.1768 30.201 18.6994 30.201 15.1041Z" fill="#1877F2"/>
<path d="M20.981 19.4651L21.65 15.1011H17.466V12.2691C17.4368 11.9431 17.4812 11.6148 17.5961 11.3084C17.7109 11.002 17.8932 10.7253 18.1294 10.4989C18.3656 10.2725 18.6497 10.1021 18.9607 10.0003C19.2717 9.89858 19.6016 9.86806 19.926 9.91106H21.826V6.19606C20.7084 6.01545 19.579 5.91686 18.447 5.90106C14.998 5.90106 12.747 7.99106 12.747 11.7751V15.1011H8.914V19.4651H12.747V30.0121C14.3102 30.2567 15.9019 30.2567 17.465 30.0121V19.4621L20.981 19.4651Z" fill="white"/>
</g>
<defs>
<clipPath id="clip0_104_2">
<rect width="30.201" height="30.196" fill="white"/>
</clipPath>
</defs>
</svg>
