<svg width="28" height="19" viewBox="0 0 28 19" fill="none" xmlns="http://www.w3.org/2000/svg">
<g clip-path="url(#clip0_101_54)">
<path d="M25.433 0H2.059C1.513 0.000264984 0.98944 0.21728 0.60336 0.60336C0.21728 0.98944 0.000264984 1.513 0 2.059L0 6.004H27.492V2.059C27.4917 1.513 27.2747 0.98944 26.8886 0.60336C26.5026 0.21728 25.979 0.000264984 25.433 0Z" fill="#FAB446"/>
<path d="M0 15.953C0.000264984 16.499 0.21728 17.0226 0.60336 17.4086C0.98944 17.7947 1.513 18.0117 2.059 18.012H25.433C25.979 18.0117 26.5026 17.7947 26.8886 17.4086C27.2747 17.0226 27.4917 16.499 27.492 15.953V12.008H0V15.953Z" fill="#73AF00"/>
<path d="M0 6.004H27.492V12.008H0V6.004Z" fill="#F5F5F5"/>
<path d="M13.746 11.553C13.0704 11.5525 12.4226 11.2839 11.9449 10.8061C11.4671 10.3284 11.1985 9.68061 11.198 9.005C11.1985 8.32939 11.4671 7.68161 11.9449 7.20388C12.4226 6.72615 13.0704 6.45753 13.746 6.457C14.4216 6.45753 15.0694 6.72615 15.5471 7.20388C16.0248 7.68161 16.2935 8.32939 16.294 9.005C16.2935 9.68061 16.0248 10.3284 15.5471 10.8061C15.0694 11.2839 14.4216 11.5525 13.746 11.553ZM13.746 6.931C12.601 6.931 11.672 7.86 11.672 9.005C11.672 10.15 12.601 11.079 13.746 11.079C14.891 11.079 15.82 10.15 15.82 9.005C15.82 7.86 14.891 6.932 13.746 6.931Z" fill="#41479B"/>
<path d="M13.746 9.29501C13.9056 9.29501 14.035 9.16562 14.035 9.00601C14.035 8.8464 13.9056 8.71701 13.746 8.71701C13.5864 8.71701 13.457 8.8464 13.457 9.00601C13.457 9.16562 13.5864 9.29501 13.746 9.29501Z" fill="#41479B"/>
<path d="M13.746 9.049L13.012 9.123L11.435 9.049V8.962L13.012 8.888L13.746 8.962V9.049Z" fill="#41479B"/>
<path d="M13.746 9.049L14.48 9.123L16.057 9.049V8.962L14.48 8.888L13.746 8.962V9.049Z" fill="#41479B"/>
<path d="M13.702 9.00601L13.628 8.27201L13.702 6.69501H13.789L13.863 8.27201L13.789 9.00601H13.702Z" fill="#41479B"/>
<path d="M13.702 9.00601L13.628 9.74001L13.702 11.317H13.789L13.863 9.74001L13.789 9.00601H13.702Z" fill="#41479B"/>
<path d="M13.715 9.041L13.144 8.574L12.081 7.402L12.142 7.341L13.309 8.404L13.776 8.975L13.715 9.041Z" fill="#41479B"/>
<path d="M13.715 9.03601L14.182 9.60701L15.349 10.67L15.41 10.609L14.347 9.44201L13.776 8.97501L13.715 9.03601Z" fill="#41479B"/>
<path d="M13.715 8.975L14.182 8.404L15.349 7.341L15.41 7.402L14.347 8.569L13.776 9.036L13.715 8.975Z" fill="#41479B"/>
<path d="M13.715 8.97501L13.144 9.44201L12.081 10.609L12.142 10.67L13.309 9.60701L13.776 9.03601L13.715 8.97501Z" fill="#41479B"/>
<path d="M13.761 9.046L13.111 9.395L11.626 9.93L11.593 9.85L13.021 9.178L13.727 8.966L13.761 9.046Z" fill="#41479B"/>
<path d="M13.762 9.04499L14.468 8.83199L15.896 8.15999L15.863 8.07999L14.378 8.61499L13.728 8.96399L13.762 9.04499Z" fill="#41479B"/>
<path d="M13.705 9.021L13.356 8.371L12.821 6.886L12.901 6.853L13.573 8.281L13.785 8.987L13.705 9.021Z" fill="#41479B"/>
<path d="M13.706 9.02201L13.918 9.72801L14.59 11.156L14.67 11.123L14.135 9.63801L13.786 8.98801L13.706 9.02201Z" fill="#41479B"/>
<path d="M13.729 9.04499L13.023 8.83199L11.595 8.15999L11.628 8.07999L13.113 8.61499L13.763 8.96399L13.729 9.04499Z" fill="#41479B"/>
<path d="M13.729 9.046L14.379 9.395L15.864 9.93L15.897 9.85L14.469 9.178L13.763 8.966L13.729 9.046Z" fill="#41479B"/>
<path d="M13.706 8.98901L13.918 8.28301L14.59 6.85501L14.67 6.88801L14.135 8.37301L13.786 9.02301L13.706 8.98901Z" fill="#41479B"/>
<path d="M13.705 8.98901L13.356 9.63901L12.821 11.124L12.901 11.157L13.573 9.72901L13.785 9.02301L13.705 8.98901Z" fill="#41479B"/>
<path d="M13.746 9.396C13.9614 9.396 14.136 9.22139 14.136 9.006C14.136 8.79061 13.9614 8.616 13.746 8.616C13.5306 8.616 13.356 8.79061 13.356 9.006C13.356 9.22139 13.5306 9.396 13.746 9.396Z" fill="#F5F5F5"/>
<path d="M13.746 9.24C13.8753 9.24 13.98 9.13524 13.98 9.006C13.98 8.87677 13.8753 8.772 13.746 8.772C13.6168 8.772 13.512 8.87677 13.512 9.006C13.512 9.13524 13.6168 9.24 13.746 9.24Z" fill="#41479B"/>
</g>
<defs>
<clipPath id="clip0_101_54">
<rect width="27.492" height="18.012" fill="white"/>
</clipPath>
</defs>
</svg>
