<svg width="30" height="30" viewBox="0 0 30 30" fill="none" xmlns="http://www.w3.org/2000/svg">
<g clip-path="url(#clip0_116_2)">
<mask id="mask0_116_2" style="mask-type:luminance" maskUnits="userSpaceOnUse" x="0" y="0" width="30" height="30">
<path d="M15 30C23.2843 30 30 23.2843 30 15C30 6.71573 23.2843 0 15 0C6.71573 0 0 6.71573 0 15C0 23.2843 6.71573 30 15 30Z" fill="white"/>
</mask>
<g mask="url(#mask0_116_2)">
<path d="M14.3491 14.77C14.3491 14.9528 14.2769 15.1283 14.1483 15.2583C14.0196 15.3882 13.8449 15.4621 13.662 15.464H11.877C11.6942 15.4621 11.5194 15.3882 11.3908 15.2583C11.2622 15.1283 11.19 14.9528 11.19 14.77V12.999C11.19 12.8161 11.2622 12.6407 11.3908 12.5107C11.5194 12.3808 11.6942 12.3068 11.877 12.305H13.662C13.8449 12.3068 14.0196 12.3808 14.1483 12.5107C14.2769 12.6407 14.3491 12.8161 14.3491 12.999V14.77Z" fill="url(#paint0_radial_116_2)"/>
<path d="M13.83 13.857C13.83 13.271 13.355 12.796 12.769 12.796C12.183 12.796 11.708 13.271 11.708 13.857V13.92C11.708 14.506 12.183 14.981 12.769 14.981C13.355 14.981 13.83 14.506 13.83 13.92V13.857Z" stroke="white" stroke-width="2" stroke-miterlimit="10"/>
<path d="M13.411 13.387C13.4916 13.387 13.557 13.3216 13.557 13.241C13.557 13.1603 13.4916 13.095 13.411 13.095C13.3304 13.095 13.265 13.1603 13.265 13.241C13.265 13.3216 13.3304 13.387 13.411 13.387Z" fill="white"/>
<path d="M30.067 23.428C30.069 24.2892 29.9013 25.1424 29.5734 25.9388C29.2456 26.7353 28.7641 27.4593 28.1564 28.0696C27.5487 28.6799 26.8268 29.1645 26.0318 29.4957C25.2367 29.8269 24.3843 29.9983 23.523 30H6.54403C5.68274 29.9984 4.83018 29.8271 4.03511 29.496C3.24005 29.1648 2.51802 28.6802 1.9103 28.0699C1.30258 27.4596 0.821083 26.7355 0.493306 25.939C0.165528 25.1425 -0.00208386 24.2893 1.95543e-05 23.428V6.57298C-0.00208386 5.71169 0.165528 4.85843 0.493306 4.06196C0.821083 3.26548 1.30258 2.5414 1.9103 1.93108C2.51802 1.32076 3.24005 0.836165 4.03511 0.50499C4.83018 0.173814 5.68274 0.00255048 6.54403 0.000976562H23.526C24.3872 0.00268168 25.2396 0.174045 26.0346 0.50528C26.8295 0.836514 27.5515 1.32113 28.1591 1.93143C28.7667 2.54174 29.2481 3.26578 29.5758 4.06219C29.9035 4.8586 30.0711 5.71178 30.069 6.57298L30.067 23.428Z" fill="url(#paint1_radial_116_2)"/>
<path d="M19.091 25.498H10.974C9.34683 25.4956 7.787 24.8481 6.63641 23.6976C5.48583 22.547 4.83838 20.9871 4.836 19.36V10.702C4.83944 9.07549 5.48735 7.51667 6.63782 6.36695C7.78829 5.21723 9.34752 4.57034 10.974 4.56796H19.089C20.7162 4.57034 22.2761 5.21779 23.4266 6.36837C24.5772 7.51895 25.2246 9.0788 25.227 10.706V19.368C25.2236 20.9941 24.5759 22.5526 23.4259 23.7023C22.2759 24.8519 20.7171 25.4991 19.091 25.502V25.498ZM10.974 6.77996C9.93449 6.78128 8.93792 7.19481 8.20288 7.92986C7.46784 8.6649 7.05436 9.66146 7.05304 10.701V19.359C7.05436 20.3985 7.46784 21.395 8.20288 22.1301C8.93792 22.8651 9.93449 23.2786 10.974 23.28H19.089C20.1285 23.2786 21.1251 22.8651 21.8601 22.1301C22.5952 21.395 23.0087 20.3985 23.01 19.359V10.701C23.0087 9.66146 22.5952 8.6649 21.8601 7.92986C21.1251 7.19481 20.1285 6.78128 19.089 6.77996H10.974Z" fill="white"/>
<path d="M15.034 20.821C13.4917 20.8194 12.0131 20.206 10.9225 19.1155C9.83199 18.0249 9.21857 16.5463 9.21698 15.004C9.21902 14.2177 9.378 13.4397 9.68451 12.7156C9.99102 11.9914 10.4389 11.3358 11.002 10.787C11.5377 10.2588 12.175 9.84479 12.8752 9.56979C13.5754 9.29479 14.324 9.16457 15.076 9.18698C15.8789 9.1773 16.6757 9.32908 17.4188 9.63331C18.162 9.93754 18.8364 10.388 19.402 10.958C19.9004 11.5081 20.2852 12.1514 20.5342 12.8507C20.7832 13.55 20.8916 14.2916 20.853 15.033C20.826 16.5631 20.2104 18.024 19.134 19.112C18.5988 19.6554 17.9604 20.0865 17.2563 20.3799C16.5523 20.6734 15.7967 20.8233 15.034 20.821ZM14.911 11.898C14.1528 11.9005 13.426 12.2007 12.887 12.734C12.584 13.03 12.3429 13.3835 12.1781 13.7738C12.0133 14.1641 11.9279 14.5833 11.927 15.007C11.945 15.8218 12.2823 16.5969 12.8663 17.1654C13.4503 17.7338 14.2343 18.0502 15.0493 18.0462C15.8642 18.0423 16.6451 17.7184 17.2236 17.1443C17.8021 16.5702 18.1319 15.7919 18.142 14.977C18.184 13.077 17.037 11.958 14.995 11.904L14.911 11.898Z" fill="white"/>
<path d="M20.529 10.7359C21.2199 10.7359 21.78 10.1759 21.78 9.48495C21.78 8.79404 21.2199 8.23395 20.529 8.23395C19.8381 8.23395 19.278 8.79404 19.278 9.48495C19.278 10.1759 19.8381 10.7359 20.529 10.7359Z" fill="white"/>
</g>
</g>
<defs>
<radialGradient id="paint0_radial_116_2" cx="0" cy="0" r="1" gradientUnits="userSpaceOnUse" gradientTransform="translate(12.1103 15.4577) scale(3.19065 3.19059)">
<stop stop-color="#FFD676"/>
<stop offset="0.246" stop-color="#F2A454"/>
<stop offset="0.379" stop-color="#F05C3C"/>
<stop offset="0.7" stop-color="#C22F86"/>
<stop offset="0.957" stop-color="#6665AD"/>
<stop offset="0.985" stop-color="#5C6CB2"/>
</radialGradient>
<radialGradient id="paint1_radial_116_2" cx="0" cy="0" r="1" gradientUnits="userSpaceOnUse" gradientTransform="translate(8.75108 29.94) scale(30.3697 30.299)">
<stop stop-color="#FFD676"/>
<stop offset="0.246" stop-color="#F2A454"/>
<stop offset="0.379" stop-color="#F05C3C"/>
<stop offset="0.7" stop-color="#C22F86"/>
<stop offset="0.957" stop-color="#6665AD"/>
<stop offset="0.985" stop-color="#5C6CB2"/>
</radialGradient>
<clipPath id="clip0_116_2">
<rect width="30" height="30" fill="white"/>
</clipPath>
</defs>
</svg>
