<svg width="30" height="30" viewBox="0 0 30 30" fill="none" xmlns="http://www.w3.org/2000/svg">
<g clip-path="url(#clip0_104_32)">
<path d="M15.001 30C23.2852 30 30.001 23.2843 30.001 15C30.001 6.71573 23.2852 0 15.001 0C6.71671 0 0.000976562 6.71573 0.000976562 15C0.000976562 23.2843 6.71671 30 15.001 30Z" fill="#2867B2"/>
<path d="M11.154 22.346V13.015H8.26995V22.346H11.154ZM11.154 9.70897C11.1614 9.51322 11.1281 9.31811 11.0564 9.13585C10.9846 8.95358 10.8758 8.78815 10.737 8.65001C10.5982 8.51177 10.4322 8.40378 10.2496 8.33287C10.067 8.26196 9.87168 8.22968 9.67596 8.23802C9.47905 8.22774 9.28215 8.25852 9.09777 8.32841C8.9134 8.39831 8.74559 8.50573 8.60498 8.64396C8.4644 8.78223 8.35409 8.94822 8.28109 9.13139C8.2081 9.31456 8.17401 9.51093 8.18097 9.70799C8.1731 9.90243 8.20545 10.0964 8.276 10.2778C8.34655 10.4591 8.45378 10.624 8.59097 10.762C8.72808 10.9 8.89216 11.0083 9.07299 11.0801C9.25383 11.1518 9.44752 11.1855 9.64196 11.179H9.65896C9.85601 11.189 10.053 11.1578 10.2374 11.0876C10.4217 11.0173 10.5895 10.9095 10.73 10.771C10.8705 10.6325 10.9806 10.4663 11.0534 10.2829C11.1262 10.0996 11.1601 9.90312 11.153 9.70597L11.154 9.70897ZM15.854 22.346V17.03C15.8403 16.7687 15.8742 16.5071 15.954 16.258C16.0722 15.921 16.2917 15.6289 16.5824 15.4216C16.8732 15.2142 17.2209 15.102 17.578 15.1C17.8343 15.0766 18.0926 15.1109 18.3338 15.2005C18.5751 15.2902 18.7932 15.4328 18.972 15.618C19.1507 15.8031 19.2856 16.026 19.3668 16.2702C19.448 16.5144 19.4733 16.7737 19.441 17.029V22.345H22.341V16.887C22.341 13.968 20.78 12.602 18.698 12.602C18.1182 12.5784 17.5432 12.7153 17.0363 12.9976C16.5294 13.2799 16.1102 13.6967 15.825 14.202L15.846 12.954H12.961C13.002 13.847 12.961 22.341 12.961 22.341L15.854 22.346Z" fill="white"/>
</g>
<defs>
<clipPath id="clip0_104_32">
<rect width="30" height="30" fill="white"/>
</clipPath>
</defs>
</svg>
