<svg width="760" height="229" viewBox="0 0 760 229" fill="none" xmlns="http://www.w3.org/2000/svg">
<path d="M244.5 91.2V10C244.5 7.4 245.4 5.1 247.3 3.3C249.1 1.4 251.4 0.5 254 0.5H263.2V34.2H300.6V0.5H319.6V91.1H300.6V50.9H263.2V91.2H244.5Z" fill="#4842A8"/>
<path d="M334.6 115.9V101.4H339.6C343.1 101.4 345.9 100.6 347.9 98.9C349.9 97.2 350.3 94.6 349.1 90.9L324.6 21.1H344.9L359.1 70.6L371.5 27.4C372.6 23.2 375.4 21.1 379.9 21.1H392.5L365.6 100.9C363.5 106.7 360.9 110.8 357.7 113.3C354.5 115.4 349.4 116.5 342.2 116.5H338.6C338.1 116.3 337.4 116.2 336.6 116.1C335.8 116 335.1 115.9 334.6 115.9Z" fill="#4842A8"/>
<path d="M407.6 108C407.6 110.5 406.7 112.6 405 114.3C403.2 116.1 401.1 116.9 398.7 116.9H389.7V51.4C389.7 39.1 393.3 30.7 400.5 26.2C407.7 21.7 415.5 19.5 423.9 19.5C428.3 19.5 432.7 20.3 437.2 22C441.7 23.7 445.2 26.1 447.9 29.3C453.2 36.1 455.8 44.9 455.8 55.6C455.8 66.7 453.2 75.6 447.9 82.5C442.6 89.2 435.9 92.5 427.6 92.5C423.2 92.5 419.3 91.7 416 90.1C412.5 88.3 409.7 85.6 407.6 81.9V108ZM437.7 56.4C437.7 49.6 436.4 44.3 433.7 40.6C431.1 36.9 427.3 35.1 422.4 35.1C417.7 35.1 414 36.9 411.3 40.6C408.8 43.9 407.6 49.2 407.6 56.4C407.6 63.1 408.9 68.1 411.6 71.4C414.2 75.1 418 76.9 422.9 76.9C427.5 76.9 431.1 75.1 433.7 71.4C436.4 67.7 437.7 62.7 437.7 56.4Z" fill="#4842A8"/>
<path d="M509.1 69.6H522.3C520.4 77 516.7 82.6 511.2 86.5C505.8 90.5 498.9 92.6 490.7 92.6C480.7 92.6 472.9 89.3 467.3 82.9C461.7 76.6 458.9 67.5 458.9 55.8C458.9 44.6 461.6 35.8 467.1 29.5C472.7 23 480.5 19.8 490.6 19.8C501.1 19.8 509.3 23 515.1 29.3C520.7 35.8 523.5 44.8 523.5 56.4V59C523.5 59.9 523.4 60.5 523.2 60.8H477.6C477.8 66.3 479.1 70.3 481.5 72.9C483.8 75.7 487.2 77.1 491.8 77.1C494.8 77.1 497.3 76.5 499.4 75.3C499.9 75.1 500.4 74.8 500.9 74.4C501.3 74 501.8 73.5 502.3 73C502.5 72.5 503.1 71.8 504.3 70.9C505.4 70 507 69.6 509.1 69.6ZM477.5 49H504.4C504 44.3 502.8 40.7 500.7 38.5C498.4 36 495.2 34.8 491 34.8C487.1 34.8 484 36 481.5 38.5C479 40.9 477.7 44.4 477.5 49Z" fill="#4842A8"/>
<path d="M527.6 91.2V57.2C527.6 50.4 528.6 44.6 530.6 39.9C532.6 35.2 535.4 31.5 538.9 28.7C542.2 26.1 546.1 24.1 550.6 22.9C555.1 21.7 559.7 21.1 564.4 21.1H567V39.8H561C555.9 39.8 552.1 41 549.7 43.5C547.2 46 546 49.8 546 55.1V91.2H527.6Z" fill="#4842A8"/>
<path d="M574.7 0.5H584.2C586.7 0.5 588.8 1.3 590.5 3C592.3 4.7 593.1 6.7 593.1 9.2V91.1H574.7V0.5Z" fill="#4842A8"/>
<path d="M602.9 0.5H612.4C614.9 0.5 617 1.4 618.7 3.1C620.5 4.9 621.3 7 621.3 9.4V15H602.9V0.5ZM602.9 21.1H612.4C614.9 21.1 617 22 618.7 23.7C620.5 25.5 621.3 27.6 621.3 30V91.1H602.9V21.1Z" fill="#4842A8"/>
<path d="M688.3 91.2H679C676.4 91.2 674.2 90.4 672.5 88.7C670.8 87 670 84.9 670 82.2V46.4C670 42.2 668.7 39.1 666.2 37.2C663.7 35.3 660.8 34.3 657.6 34.3C654.4 34.3 651.6 35.3 649.2 37.2C646.7 39.1 645.5 42.2 645.5 46.4V91.2H627.1V50.1C627.1 38.2 630.2 30.2 636.5 26.1C642.7 22.1 649.6 19.9 657.2 19.5C664.9 19.5 672 21.5 678.5 25.6C685 29.6 688.2 37.8 688.2 50.1V91.2H688.3Z" fill="#4842A8"/>
<path d="M714.6 46.9L737 21.1H759.1L734.1 48L759.4 91.2H737.3L724.4 67.5C721.8 62.8 719.5 60.7 717.5 61.4C715.6 62.1 714.6 63.1 714.6 64.6V91.2H696.2V0.5H705.7C708.2 0.5 710.3 1.4 712 3.1C713.8 4.9 714.6 6.9 714.6 9.2V46.9Z" fill="#4842A8"/>
<path d="M239.9 206.2V136.3C239.9 134 240.7 132.1 242.3 130.5C243.9 128.9 245.8 128.1 248.1 128.1H256V206.2H239.9Z" fill="#DC2E3D"/>
<path d="M313.7 206.2H305.8C303.5 206.2 301.7 205.5 300.2 204C298.8 202.6 298 200.7 298 198.4V167.5C298 163.9 296.9 161.2 294.7 159.6C292.5 157.9 290.1 157.1 287.3 157.1C284.6 157.1 282.2 157.9 280 159.6C277.9 161.3 276.8 163.9 276.8 167.5V206.1H261V170.7C261 160.4 263.7 153.5 269.1 150.1C274.5 146.6 280.4 144.7 286.9 144.4C293.6 144.4 299.7 146.1 305.3 149.6C310.9 153.1 313.7 160.1 313.7 170.7V206.2Z" fill="#DC2E3D"/>
<path d="M317.3 206.2V144C317.3 138.6 318.7 134.5 321.6 131.7C324.3 129.1 328.8 127.8 335 127.8C336.5 127.8 337.7 127.9 338.6 128C340.3 128 341.6 128.1 342.5 128.2V140.7H338.4C336.3 140.7 334.8 141 333.9 141.6C333.1 142.2 332.8 143.4 332.8 145.2V149.3H342.6V152.7C342.6 155 341.8 156.8 340.3 158.3C338.8 159.7 337 160.5 335.1 160.5H332.8V206.1H317.3V206.2Z" fill="#DC2E3D"/>
<path d="M352.3 200.7C349.1 198 346.9 194.3 345.5 189.7C344.1 185.1 343.5 180.3 343.5 175.3C343.5 171.2 344.1 167.1 345.2 163C346.3 158.9 348.1 155.5 350.5 152.8C354.4 148.3 359.5 145.6 365.7 144.7C371.9 143.9 377.5 144.4 382.5 146.2C388.2 148.5 392.5 152.4 395.2 158C397.8 163 399.1 168.8 399.1 175.5C399.1 180.3 398.6 184.5 397.5 188C396.4 191.5 395.1 194.4 393.4 196.8C389.8 201.8 385.2 204.9 379.6 206.1C374.6 207.5 369.6 207.6 364.5 206.4C359.4 205.4 355.3 203.5 352.3 200.7ZM363.2 160.8C360 164.3 358.6 169.5 358.9 176.3C359.2 183.2 360.5 188 362.8 190.7C363.7 191.9 365.3 192.9 367.6 193.8C369.9 194.6 372.2 194.7 374.5 194C376.8 193.3 378.9 191.6 380.7 188.9C382.5 186.2 383.5 181.8 383.6 175.7C383.6 170.2 382.7 166.2 381 163.4C379.3 160.7 377.3 158.9 375 158.2C372.7 157.4 370.5 157.4 368.2 158.1C365.9 158.9 364.3 159.7 363.2 160.8Z" fill="#DC2E3D"/>
<path d="M402.7 181.9H418.6C419.2 186.4 420.9 189.6 423.8 191.4C426.8 193.5 431 194.6 436.3 194.6C441 194.6 444.5 193.8 447 192.1C449.4 190.4 450.6 188 450.6 184.8C450.6 180 443.8 176 430.2 173L429.7 172.8L427.9 172.3C420.2 170.6 415 168.9 412.5 167.1C409.5 165.4 407.4 163 406.1 159.8C404.6 157.1 403.8 153.6 403.8 149.4C403.8 142 406.4 136.2 411.5 131.9C416.6 127.8 424.1 125.8 434 125.8C443.2 125.8 450.3 127.9 455.3 132.2C460.4 136.9 463.2 143 463.5 150.6H454.4C450.9 150.6 448.4 149 446.9 145.8C446.1 144.3 445.1 143 443.7 141.9C441 139.9 437.3 138.9 432.6 138.9C428.1 138.9 424.8 139.7 422.8 141.4C420.5 143.1 419.4 145.4 419.4 148.4C419.4 152.5 423.8 155.5 432.6 157.5C435.2 158.3 437.1 158.7 438.3 158.9C441 159.8 443.4 160.5 445.4 161.1C447.4 161.6 449.1 162 450.3 162.3C452.4 163.2 454.5 164.1 456.7 165C459.7 166.8 462.1 169.2 463.7 172C465.4 175.2 466.2 178.7 466.2 182.4C466.2 190.6 463.5 196.9 458 201.5C452.6 205.7 444.8 207.9 434.9 207.9C424.6 207.9 416.9 205.7 411.7 201.3C406.2 197 403.2 190.5 402.7 181.9Z" fill="#DC2E3D"/>
<path d="M476.1 227.5V215H480.4C483.4 215 485.8 214.3 487.5 212.8C489.2 211.4 489.6 209.1 488.5 205.9L467.4 145.8H484.9L497.2 188.5L507.9 151.3C508.8 147.7 511.2 145.9 515.2 145.9H526L502.9 214.7C501.1 219.7 498.8 223.2 496.1 225.4C493.4 227.2 488.9 228.1 482.7 228.1H479.5C479 227.9 478.5 227.8 477.8 227.8C477.1 227.6 476.5 227.5 476.1 227.5Z" fill="#DC2E3D"/>
<path d="M540.8 186.2C541 189.2 542.1 191.5 544.2 193C546.5 194.5 549.5 195.3 553.3 195.3C556 195.3 558.4 194.8 560.3 193.7C562.1 192.6 563 191.2 563 189.4C563 186.7 559.8 184.6 553.5 183.3C550.8 182.8 548.7 182.4 547.4 181.9C539.4 179.9 534 177.6 531.3 174.9C528.3 172.2 526.8 168.5 526.8 164C526.8 158.2 529 153.5 533.4 149.7C537.9 146.2 543.8 144.5 551.1 144.5C559 144.5 565.2 146.2 569.9 149.7C574.3 153.5 576.6 158.4 576.9 164.4H567.1C564.2 164.4 562 163.1 560.5 160.5C559.9 159.9 559.3 159.3 558.7 158.7C556.9 157.3 554.4 156.7 551.2 156.7C548.2 156.7 545.9 157.2 544.4 158.1C543 159 542.4 160.4 542.4 162.2C542.4 164.6 546.3 166.7 554.2 168.3C555.1 168.6 555.9 168.8 556.6 169C557.3 169.2 557.9 169.2 558.5 169.2C566.2 171.2 571.6 173.4 574.6 176C577.5 178.7 578.9 182.4 578.9 186.9C578.9 193.6 576.5 198.7 571.6 202.3C567.1 205.6 560.3 207.3 551.2 207.3C542.6 207.3 536.1 205.6 531.9 202.1C527.5 198.6 525.3 193.6 525.3 186.9V186.2H540.8Z" fill="#DC2E3D"/>
<path d="M609.3 206.2C604.3 206.5 598.9 206.4 593.1 206C587.3 205.5 584.4 201.8 584.4 194.9V128.2H592.6C594.6 128.2 596.3 129 597.8 130.5C599.3 132 600.1 133.8 600.1 135.9V146.1H609.4V149.3C609.4 151.6 608.6 153.4 607.1 154.9C605.6 156.3 603.8 157.1 601.7 157.1H600V190.7C600 193.3 601.5 194.6 604.5 194.6H609.3V206.2Z" fill="#DC2E3D"/>
<path d="M653.8 187.6H665.1C663.4 194 660.3 198.8 655.6 202.1C650.9 205.6 645 207.3 637.9 207.3C629.3 207.3 622.5 204.5 617.7 198.9C612.9 193.4 610.4 185.7 610.4 175.5C610.4 165.8 612.7 158.3 617.4 152.8C622.2 147.2 629 144.4 637.6 144.4C646.7 144.4 653.7 147.1 658.7 152.6C663.5 158.2 666 166 666 176V178.5C666 179.3 665.9 179.8 665.8 180.1H626.5C626.6 184.8 627.8 188.3 629.9 190.5C631.9 192.9 634.8 194.1 638.7 194.1C641.3 194.1 643.5 193.6 645.3 192.5C645.8 192.4 646.2 192.1 646.5 191.7C646.9 191.3 647.3 190.9 647.7 190.5C647.8 190 648.4 189.4 649.4 188.7C650.6 188 652 187.6 653.8 187.6ZM626.6 169.9H649.7C649.4 165.8 648.3 162.8 646.5 160.8C644.5 158.7 641.7 157.6 638.1 157.6C634.8 157.6 632 158.7 629.9 160.8C627.9 162.9 626.8 165.9 626.6 169.9Z" fill="#DC2E3D"/>
<path d="M722.4 206.2H706.7V167.6C706.7 164 705.6 161.3 703.4 159.7C701.2 158 698.8 157.2 696 157.2C693.3 157.2 690.9 158 688.7 159.7C686.6 161.4 685.5 164 685.5 167.6V206.2H669.6V170.8C669.6 160.5 672.3 153.6 677.7 150.2C683.1 146.7 689 144.8 695.5 144.5C699 144.5 702.4 144.9 705.7 145.6C709 146.4 712.1 147.9 714.8 150.1C717.1 148.1 719.8 146.7 722.9 145.9C726 145.1 729.2 144.6 732.6 144.4C739.3 144.4 745.4 146.1 751 149.6C756.6 153.1 759.4 160.1 759.4 170.7V206.1H751.5C749.2 206.1 747.4 205.4 745.9 203.9C744.5 202.5 743.8 200.6 743.8 198.3V167.4C743.8 163.8 742.7 161.1 740.5 159.5C738.3 157.8 735.8 157 733.1 157C730.4 157 727.9 157.8 725.7 159.5C723.5 161.2 722.4 163.8 722.4 167.4V206.2Z" fill="#DC2E3D"/>
<path d="M199.7 72.6C181.2 49.7 94.7 0 41.9 0C15.1 0 -3.00004 12.8 0.699957 48.3C5.59996 94.8 42.1 208 84.5 226.7C107.7 236.9 128.9 201.8 124.2 182.6C120.283 166.781 108.933 155.161 97.8428 143.808C94.2104 140.09 90.6061 136.4 87.3 132.6C71.8 114.8 52.2 88.9 52.4 64.1C52.9 11.4 176 52.3 199.7 72.6Z" fill="url(#paint0_radial_102_55)"/>
<path d="M126.1 227.8C128.737 225.163 131.515 222.417 134.387 219.578C180.848 173.656 252.12 103.211 157 67.8C137.7 60.6 121.9 57.2 110 57.2C76.7999 57.2 74.4999 83.9 112.6 128.6C112.6 128.6 170.8 176.7 126.1 227.8Z" fill="url(#paint1_radial_102_55)"/>
<defs>
<radialGradient id="paint0_radial_102_55" cx="0" cy="0" r="1" gradientUnits="userSpaceOnUse" gradientTransform="translate(268.703 102.735) scale(888.126 233.361)">
<stop stop-color="#ED13B3"/>
<stop offset="0.2418" stop-color="#ED13B3"/>
<stop offset="0.6044" stop-color="#D9382F"/>
<stop offset="1" stop-color="#D9382F"/>
</radialGradient>
<radialGradient id="paint1_radial_102_55" cx="0" cy="0" r="1" gradientUnits="userSpaceOnUse" gradientTransform="translate(100.151 71.2567) scale(147.994 147.994)">
<stop stop-color="#8480DF"/>
<stop offset="0.6813" stop-color="#453E9F"/>
<stop offset="1" stop-color="#453E9F"/>
</radialGradient>
</defs>
</svg>
