<svg width="321" height="264" viewBox="0 0 321 264" fill="none" xmlns="http://www.w3.org/2000/svg">
<g clip-path="url(#clip0_108_494)">
<mask id="mask0_108_494" style="mask-type:luminance" maskUnits="userSpaceOnUse" x="0" y="0" width="321" height="264">
<path d="M321 0H0V263.374H321V0Z" fill="white"/>
</mask>
<g mask="url(#mask0_108_494)">
<g opacity="0.5">
<g opacity="0.09">
<path d="M296.279 131.901C291.518 127.131 285.863 123.347 279.638 120.765C273.413 118.183 266.739 116.854 260 116.854C253.261 116.854 246.587 118.183 240.362 120.765C234.137 123.347 228.482 127.131 223.721 131.901L128.528 227.095C123.758 231.856 119.974 237.511 117.392 243.736C114.81 249.961 113.481 256.634 113.481 263.373C113.481 270.113 114.81 276.786 117.392 283.011C119.974 289.236 123.758 294.891 128.528 299.652L223.721 394.846C228.482 399.615 234.137 403.4 240.362 405.981C246.588 408.563 253.261 409.892 260 409.892C266.739 409.892 273.412 408.563 279.638 405.981C285.863 403.4 291.518 399.615 296.279 394.846L391.472 299.652C396.242 294.891 400.026 289.236 402.608 283.011C405.19 276.786 406.519 270.113 406.519 263.373C406.519 256.634 405.19 249.961 402.608 243.736C400.026 237.511 396.242 231.856 391.472 227.095L296.279 131.901ZM299.814 128.366L395.008 223.559C405.567 234.119 411.5 248.44 411.5 263.373C411.5 278.307 405.567 292.628 395.008 303.188L299.814 398.381C289.255 408.941 274.933 414.873 260 414.873C245.067 414.873 230.745 408.941 220.186 398.381L124.992 303.188C114.433 292.628 108.5 278.307 108.5 263.373C108.5 248.44 114.433 234.119 124.992 223.559L220.186 128.366C230.745 117.806 245.067 111.874 260 111.874C274.933 111.874 289.255 117.806 299.814 128.366Z" fill="white"/>
</g>
<g opacity="0.09">
<path d="M296.279 100.411C291.518 95.6413 285.863 91.8572 279.638 89.2753C273.413 86.6934 266.739 85.3644 260 85.3644C253.261 85.3644 246.587 86.6934 240.362 89.2753C234.137 91.8572 228.482 95.6413 223.721 100.411L97.0381 227.094C92.2684 231.855 88.4844 237.51 85.9025 243.735C83.3207 249.961 81.9918 256.634 81.9918 263.373C81.9918 270.112 83.3207 276.785 85.9025 283.011C88.4844 289.236 92.2684 294.891 97.038 299.652L223.721 426.335C228.482 431.105 234.137 434.889 240.362 437.47C246.588 440.052 253.261 441.381 260 441.381C266.739 441.381 273.412 440.052 279.638 437.47C285.863 434.889 291.518 431.105 296.279 426.335L422.962 299.652C427.732 294.891 431.516 289.236 434.098 283.011C436.68 276.786 438.009 270.112 438.009 263.373C438.009 256.634 436.68 249.961 434.098 243.735C431.516 237.51 427.732 231.855 422.962 227.094L296.279 100.411ZM299.814 96.8756L426.497 223.559C431.726 228.787 435.873 234.994 438.703 241.826C441.533 248.657 442.989 255.979 442.989 263.373C442.989 270.767 441.533 278.089 438.703 284.92C435.873 291.752 431.726 297.959 426.497 303.187L299.814 429.871C294.586 435.099 288.379 439.246 281.547 442.076C274.716 444.906 267.394 446.362 260 446.362C252.606 446.362 245.284 444.906 238.453 442.076C231.621 439.246 225.414 435.099 220.186 429.871L93.5025 303.187C88.274 297.959 84.1265 291.752 81.2969 284.92C78.4673 278.089 77.0109 270.767 77.0109 263.373C77.0109 255.979 78.4673 248.657 81.2969 241.826C84.1266 234.994 88.274 228.787 93.5025 223.559L220.186 96.8756C230.745 86.3161 245.067 80.3839 260 80.3839C274.933 80.3839 289.255 86.3161 299.814 96.8756Z" fill="white"/>
</g>
<g opacity="0.09">
<path d="M296.279 66.0261C291.518 61.2563 285.863 57.4722 279.638 54.8903C273.413 52.3084 266.739 50.9794 260 50.9794C253.261 50.9794 246.587 52.3084 240.362 54.8903C234.137 57.4722 228.482 61.2563 223.721 66.0261L62.6529 227.094C57.8827 231.855 54.0983 237.51 51.5161 243.736C48.9339 249.961 47.6047 256.634 47.6045 263.374C47.6043 270.113 48.9331 276.787 51.5149 283.012C54.0968 289.238 57.8809 294.893 62.6507 299.654L223.719 460.722C228.48 465.493 234.135 469.277 240.361 471.86C246.587 474.442 253.26 475.771 260 475.771C266.74 475.771 273.413 474.442 279.639 471.86C285.865 469.277 291.52 465.493 296.281 460.722L457.349 299.654C462.119 294.893 465.903 289.238 468.485 283.012C471.067 276.787 472.396 270.113 472.396 263.374C472.396 256.634 471.066 249.961 468.484 243.736C465.902 237.51 462.117 231.855 457.347 227.094L296.279 66.0261ZM299.814 62.4906L460.883 223.559C466.112 228.787 470.26 234.994 473.09 241.826C475.92 248.657 477.376 255.979 477.376 263.374C477.377 270.768 475.92 278.09 473.091 284.922C470.261 291.754 466.113 297.961 460.885 303.19L299.816 464.258C294.588 469.487 288.381 473.635 281.549 476.465C274.717 479.295 267.395 480.752 260 480.752C252.605 480.752 245.283 479.295 238.451 476.465C231.619 473.635 225.412 469.487 220.184 464.258L59.1152 303.19C53.8865 297.961 49.739 291.754 46.9093 284.922C44.0797 278.09 42.6234 270.768 42.6236 263.374C42.6238 255.979 44.0805 248.657 46.9105 241.826C49.7405 234.994 53.8884 228.787 59.1173 223.559L220.186 62.4906C230.745 51.9311 245.067 45.9989 260 45.9989C274.933 45.9989 289.255 51.9311 299.814 62.4906Z" fill="white"/>
</g>
<g opacity="0.09">
<path d="M296.279 28.3831C291.518 23.6133 285.863 19.8292 279.638 17.2473C273.413 14.6654 266.739 13.3364 260 13.3364C253.261 13.3364 246.587 14.6654 240.362 17.2473C234.137 19.8292 228.482 23.6133 223.721 28.3831L25.01 227.094C20.24 231.855 16.4557 237.51 13.8736 243.735C11.2916 249.96 9.96252 256.634 9.96252 263.373C9.96252 270.112 11.2916 276.786 13.8736 283.011C16.4557 289.236 20.24 294.891 25.01 299.652L223.721 498.363C228.482 503.133 234.137 506.917 240.362 509.499C246.587 512.081 253.261 513.411 260 513.411C266.739 513.411 273.413 512.081 279.638 509.499C285.863 506.917 291.518 503.133 296.279 498.363L494.99 299.652C499.76 294.891 503.544 289.236 506.126 283.011C508.708 276.786 510.037 270.112 510.037 263.373C510.037 256.634 508.708 249.961 506.126 243.735C503.544 237.51 499.76 231.855 494.99 227.094L296.279 28.3831ZM299.814 24.8476L498.525 223.559C509.085 234.118 515.017 248.44 515.017 263.373C515.017 278.306 509.085 292.628 498.525 303.187L299.814 501.899C289.255 512.458 274.933 518.39 260 518.39C245.067 518.39 230.745 512.458 220.186 501.899L21.4745 303.187C10.9151 292.628 4.98286 278.306 4.98286 263.373C4.98286 248.44 10.9151 234.118 21.4745 223.559L220.186 24.8476C230.745 14.2881 245.067 8.35591 260 8.35591C274.933 8.35591 289.255 14.2881 299.814 24.8476Z" fill="white"/>
</g>
</g>
</g>
</g>
<defs>
<clipPath id="clip0_108_494">
<rect width="321" height="263.374" fill="white"/>
</clipPath>
</defs>
</svg>
