<svg width="30" height="30" viewBox="0 0 30 30" fill="none" xmlns="http://www.w3.org/2000/svg">
<g clip-path="url(#clip0_104_7)">
<path d="M14.999 29.998C23.2827 29.998 29.998 23.2827 29.998 14.999C29.998 6.71528 23.2827 0 14.999 0C6.71528 0 0 6.71528 0 14.999C0 23.2827 6.71528 29.998 14.999 29.998Z" fill="#1DA1F2"/>
<path d="M20.523 9.218C20.2217 8.86952 19.8509 8.58796 19.4342 8.39145C19.0176 8.19494 18.5645 8.08782 18.104 8.077C17.658 8.08125 17.2174 8.17455 16.808 8.35143C16.3987 8.5283 16.0287 8.78519 15.72 9.10699C15.4112 9.42888 15.17 9.80921 15.0103 10.2256C14.8505 10.6421 14.7757 11.0862 14.79 11.532C14.7894 11.8009 14.8179 12.0692 14.875 12.332C13.5315 12.2327 12.2253 11.8439 11.0462 11.1923C9.86712 10.5407 8.84294 9.6417 8.04398 8.55701C7.74708 9.10028 7.59261 9.70989 7.59497 10.329C7.58993 10.9038 7.72083 11.4716 7.97699 11.9862C8.23315 12.5008 8.60732 12.9475 9.06897 13.29C8.53849 13.2654 8.0227 13.1079 7.56897 12.832V12.877C7.55206 13.6735 7.80583 14.4522 8.28882 15.0857C8.77181 15.7193 9.45544 16.1703 10.228 16.365C9.944 16.4454 9.65009 16.4851 9.35498 16.483C9.14523 16.4813 8.93618 16.4585 8.73099 16.415C8.92091 17.1008 9.3232 17.7089 9.88013 18.1519C10.4371 18.5949 11.12 18.8502 11.831 18.881C10.6781 19.8496 9.2207 20.3808 7.71497 20.381C7.44916 20.3807 7.18365 20.3637 6.91998 20.33C8.41265 21.3634 10.1845 21.918 12 21.92C18.1 21.92 21.43 16.62 21.43 12.02C21.43 11.8687 21.4266 11.7183 21.42 11.569C22.0729 11.08 22.6328 10.4778 23.073 9.791C22.4707 10.0629 21.8296 10.2387 21.173 10.312C21.8733 9.87646 22.3915 9.20121 22.631 8.412C21.9851 8.8065 21.2739 9.0825 20.531 9.22701L20.523 9.218Z" fill="white"/>
</g>
<defs>
<clipPath id="clip0_104_7">
<rect width="29.999" height="29.999" fill="white"/>
</clipPath>
</defs>
</svg>
