<svg width="73" height="102" viewBox="0 0 73 102" fill="none" xmlns="http://www.w3.org/2000/svg">
<g clip-path="url(#clip0_112_2)">
<path d="M37.782 37.113C37.744 37.299 38.161 41.735 38.126 41.921C38.141 42.136 38.174 42.348 38.226 42.557L38.266 41.289L39.702 38.245C39.749 37.752 37.817 37.242 37.782 37.113ZM59.127 74.063C59.146 74.363 58.927 81.463 58.941 81.763C58.959 82.02 58.892 82.469 58.886 82.782L58.866 80.751L58.1 75.876C58.075 75.082 59.11 74.273 59.127 74.063ZM30.803 6.27499C30.822 6.57499 30.603 13.675 30.62 13.975C30.636 14.234 30.573 14.683 30.563 14.995L30.543 12.964L29.776 8.08599C29.753 7.29699 30.788 6.48299 30.803 6.27499Z" fill="#485754"/>
<path d="M56.169 98.876C56.9381 98.876 57.6758 99.1815 58.2196 99.7254C58.7635 100.269 59.069 101.007 59.069 101.776H63.113C63.0819 101.249 63.1956 100.723 63.4416 100.255C63.6876 99.7875 64.0568 99.396 64.5091 99.1229C64.9614 98.8499 65.4797 98.7055 66.008 98.7055C66.5364 98.7055 67.0547 98.8499 67.507 99.123C67.9593 99.3961 68.3284 99.7876 68.5744 100.255C68.8204 100.723 68.9341 101.249 68.903 101.776H72.988V98.051C72.4606 98.0821 71.9347 97.9684 71.4671 97.7224C70.9995 97.4763 70.608 97.1073 70.3349 96.6549C70.0619 96.2026 69.9175 95.6843 69.9175 95.156C69.9175 94.6276 70.0619 94.1093 70.335 93.657C70.6081 93.2047 70.9996 92.8356 71.4671 92.5896C71.9347 92.3436 72.4606 92.2299 72.988 92.261V88.217C72.479 88.2169 71.979 88.0829 71.5382 87.8283C71.0974 87.5737 70.7314 87.2076 70.4769 86.7668C70.2224 86.326 70.0884 85.8259 70.0885 85.3169C70.0885 84.8079 70.2225 84.3078 70.477 83.867C70.7315 83.4262 71.0975 83.0602 71.5383 82.8056C71.979 82.5511 72.479 82.4171 72.988 82.417V78.377C72.4606 78.4081 71.9347 78.2944 71.4671 78.0484C70.9995 77.8024 70.608 77.4332 70.3349 76.9809C70.0619 76.5286 69.9175 76.0103 69.9175 75.482C69.9175 74.9536 70.0619 74.4353 70.335 73.983C70.6081 73.5307 70.9996 73.1616 71.4671 72.9156C71.9347 72.6696 72.4606 72.5559 72.988 72.587V68.543C72.4606 68.5741 71.9347 68.4604 71.4671 68.2144C70.9995 67.9684 70.608 67.5992 70.3349 67.1469C70.0619 66.6946 69.9175 66.1763 69.9175 65.648C69.9175 65.1196 70.0619 64.6013 70.335 64.149C70.6081 63.6967 70.9996 63.3276 71.4671 63.0816C71.9347 62.8356 72.4606 62.7219 72.988 62.753V58.71C72.4606 58.7411 71.9347 58.6274 71.4671 58.3814C70.9995 58.1354 70.608 57.7662 70.3349 57.3139C70.0619 56.8616 69.9175 56.3433 69.9175 55.815C69.9175 55.2866 70.0619 54.7683 70.335 54.316C70.6081 53.8637 70.9996 53.4946 71.4671 53.2486C71.9347 53.0026 72.4606 52.8889 72.988 52.92V48.876C72.2189 48.876 71.4812 48.5705 70.9374 48.0266C70.3935 47.4828 70.088 46.7451 70.088 45.976C70.088 45.2069 70.3935 44.4692 70.9374 43.9254C71.4812 43.3815 72.2189 43.076 72.988 43.076V39.036C72.479 39.0359 71.979 38.9019 71.5382 38.6473C71.0974 38.3927 70.7314 38.0266 70.4769 37.5858C70.2224 37.145 70.0884 36.6449 70.0885 36.1359C70.0885 35.6269 70.2225 35.1268 70.477 34.686C70.7315 34.2452 71.0975 33.8792 71.5383 33.6246C71.979 33.3701 72.479 33.2361 72.988 33.236V29.2C72.4606 29.2311 71.9347 29.1174 71.4671 28.8714C70.9995 28.6254 70.608 28.2562 70.3349 27.8039C70.0619 27.3516 69.9175 26.8333 69.9175 26.305C69.9175 25.7766 70.0619 25.2583 70.335 24.806C70.6081 24.3537 70.9996 23.9846 71.4671 23.7386C71.9347 23.4926 72.4606 23.3789 72.988 23.41V19.362C72.2189 19.362 71.4812 19.0565 70.9374 18.5126C70.3935 17.9688 70.088 17.2311 70.088 16.462C70.088 15.6929 70.3935 14.9552 70.9374 14.4114C71.4812 13.8675 72.2189 13.562 72.988 13.562V9.522C72.4606 9.55306 71.9347 9.43943 71.4671 9.19339C70.9995 8.94735 70.608 8.57825 70.3349 8.12594C70.0619 7.67364 69.9175 7.15532 69.9175 6.62696C69.9175 6.09861 70.0619 5.5803 70.335 5.128C70.6081 4.67571 70.9996 4.30663 71.4671 4.0606C71.9347 3.81457 72.4606 3.70095 72.988 3.732V0H68.9C68.9 0.768 68.595 1.504 68.052 2.046C67.509 2.588 66.773 2.894 66.006 2.894C65.2389 2.89241 64.5038 2.587 63.9614 2.04462C63.419 1.50223 63.1136 0.767049 63.112 0L59.068 0C59.0664 0.768088 58.7602 1.50417 58.2165 2.04673C57.6728 2.58929 56.9361 2.894 56.168 2.894C55.4 2.895 54.663 2.591 54.119 2.048C53.575 1.505 53.274 0.768 53.275 0H49.231C49.231 1.598 47.935 2.894 46.337 2.894C45.569 2.894 44.833 2.589 44.291 2.046C43.749 1.503 43.443 0.768 43.443 0H39.4C39.4 0.769 39.094 1.506 38.55 2.048C38.006 2.59 37.268 2.895 36.5 2.894C34.903 2.892 33.61 1.597 33.61 0H29.567C29.567 1.598 28.271 2.894 26.673 2.894C26.2916 2.89581 25.9136 2.82237 25.5606 2.67789C25.2077 2.53341 24.8867 2.32072 24.616 2.052C24.3455 1.78301 24.1308 1.46329 23.9841 1.11118C23.8374 0.759061 23.7616 0.381459 23.761 0H19.717C19.717 1.598 18.421 2.894 16.823 2.894C16.054 2.895 15.317 2.591 14.773 2.048C14.229 1.505 13.923 0.768 13.923 0H9.879C9.8791 0.380872 9.80418 0.758034 9.65851 1.10995C9.51283 1.46186 9.29927 1.78163 9.03 2.051C8.76063 2.32027 8.44086 2.53383 8.08895 2.67951C7.73703 2.82518 7.35987 2.9001 6.979 2.9C6.21109 2.89815 5.47526 2.59179 4.93291 2.04814C4.39057 1.50448 4.086 0.767917 4.086 0L0 0V3.719C0.768088 3.72059 1.50417 4.02683 2.04673 4.57051C2.58929 5.11419 2.894 5.85091 2.894 6.619C2.892 8.216 1.597 9.509 0 9.509V13.553C0.768088 13.5546 1.50417 13.8608 2.04673 14.4045C2.58929 14.9482 2.894 15.6849 2.894 16.453C2.89268 17.2202 2.58738 17.9557 2.04497 18.4983C1.50255 19.0409 0.767222 19.3464 0 19.348V23.392C0.768 23.392 1.504 23.697 2.046 24.24C2.588 24.783 2.894 25.519 2.894 26.286C2.89374 27.0539 2.58891 27.7904 2.04638 28.3338C1.50385 28.8773 0.767915 29.1834 0 29.185L0 33.229C0.769 33.229 1.506 33.535 2.048 34.079C2.59 34.623 2.895 35.361 2.894 36.129C2.893 36.897 2.589 37.633 2.046 38.175C1.503 38.717 0.767 39.023 0 39.023V43.067C0.768088 43.0686 1.50417 43.3748 2.04673 43.9185C2.58929 44.4622 2.894 45.1989 2.894 45.967C2.893 47.565 1.598 48.86 0 48.86V52.9C0.769 52.9 1.506 53.206 2.049 53.751C2.592 54.296 2.896 55.034 2.894 55.803C2.89321 56.5706 2.58815 57.3065 2.04567 57.8496C1.5032 58.3926 0.767568 58.6984 0 58.7L0 62.744C0.769 62.744 1.507 63.05 2.05 63.595C2.593 64.14 2.897 64.879 2.894 65.648C2.891 67.244 1.596 68.537 0 68.537V72.581C0.380913 72.5814 0.758011 72.6569 1.10975 72.8031C1.4615 72.9493 1.781 73.1633 2.05 73.433C2.31872 73.7031 2.53157 74.0236 2.67639 74.376C2.82121 74.7285 2.89515 75.106 2.894 75.487C2.89 77.083 1.596 78.374 0 78.374V82.418C0.768088 82.4196 1.50417 82.7258 2.04673 83.2695C2.58929 83.8132 2.894 84.5499 2.894 85.318C2.89268 86.0852 2.58738 86.8207 2.04497 87.3633C1.50255 87.9059 0.767222 88.2114 0 88.213V92.257C0.768 92.257 1.504 92.562 2.046 93.105C2.588 93.648 2.894 94.384 2.894 95.151C2.894 95.9191 2.58929 96.6558 2.04673 97.1995C1.50417 97.7432 0.768088 98.0494 0 98.051V101.773H4.086C4.086 100.175 5.382 98.879 6.98 98.879C8.578 98.879 9.874 100.175 9.874 101.773H13.918C13.918 100.175 15.214 98.879 16.812 98.879C18.41 98.879 19.706 100.175 19.706 101.773H23.75C23.7189 101.246 23.8326 100.72 24.0786 100.252C24.3246 99.7845 24.6938 99.393 25.1461 99.1199C25.5984 98.8469 26.1167 98.7025 26.645 98.7025C27.1734 98.7025 27.6917 98.8469 28.144 99.12C28.5963 99.3931 28.9654 99.7846 29.2114 100.252C29.4574 100.72 29.5711 101.246 29.54 101.773H33.583C33.583 100.175 34.879 98.879 36.477 98.879C38.075 98.879 39.371 100.175 39.371 101.773H43.415C43.415 100.175 44.711 98.879 46.309 98.879C47.907 98.879 49.203 100.175 49.203 101.773H53.247C53.245 101 53.553 100.258 54.102 99.713C54.651 99.168 55.395 98.866 56.168 98.873L56.169 98.876Z" fill="#EAE3DD"/>
<path d="M6.245 6.039H66.744V95.731H6.245V6.039Z" fill="#A7C5B1"/>
<path d="M66.169 6.615V95.155H6.81998V6.615H66.169ZM67.319 5.465H5.66998V96.305H67.318L67.319 5.465Z" fill="white"/>
<path d="M46.06 45.875L46.246 45.689V42.9L9.95997 6.61499H6.81897V15.206L37.488 45.875H46.06ZM58.78 55.895V67.165L66.168 74.553V62.821L59.242 55.895H58.78Z" fill="#9DBAA7"/>
<path d="M59.242 55.895L66.168 62.821V61.372L60.691 55.895H59.242ZM46.246 41.451L11.409 6.61499H9.95997L46.246 42.9V41.451ZM37.488 45.874L6.81897 15.205V16.654L36.039 45.874H37.488ZM58.78 68.615L66.168 76.003V74.554L58.78 67.166V68.615Z" fill="#C5D9CC"/>
<path d="M58.78 45.874H59.242L66.168 38.948V27.217L58.78 34.607V45.874ZM46.246 55.895H37.488L6.81897 86.564V95.155H9.95997L46.246 58.87V55.895Z" fill="#9DBAA7"/>
<path d="M46.246 45.874V45.688L46.06 45.874H46.246ZM60.691 45.874L66.168 40.397V38.948L59.242 45.874H60.691ZM58.78 34.604L66.168 27.217V25.767L58.78 33.155V34.604ZM46.246 58.87L9.95997 95.155H11.409L46.246 60.319V58.87ZM36.039 55.895L6.81897 85.115V86.564L37.488 55.895H36.039Z" fill="#C5D9CC"/>
<path d="M47.109 55.033V95.156H57.917V55.033H66.168V46.733H57.917V6.61499H47.109V46.738H6.81897V55.038L47.109 55.033Z" fill="#9DBAA7"/>
<path d="M58.779 67.166V55.896H66.167V55.033H57.916V95.156H47.109V55.033H6.81897V55.896H46.246V95.156H58.779V67.166ZM47.109 46.738V6.61499H46.246V45.875H6.81897V46.738H47.109ZM57.917 46.738H66.168V45.875H58.78V6.61499H57.917V46.738Z" fill="#C5D9CC"/>
<path d="M43.869 6.61499H66.169V21.046H43.869V6.61499Z" fill="#37443F"/>
<path d="M16.085 90.077L16.995 90.987V81.672H16.085V90.077ZM14.467 82.431L16.367 82.644H16.762L18.196 82.431V81.672H14.466L14.467 82.431ZM9.91501 90.96H10.825V82.442L9.91501 81.672V90.96ZM15.798 90.987H16.998V88.633L11.927 81.672H8.73301V82.442L10.266 82.577L9.45701 82.177L15.798 90.987ZM8.71301 90.96H12.443V90.201L10.623 89.988H10.223L8.71701 90.201L8.71301 90.96ZM13.458 67.273C11.138 67.273 8.96901 68.92 8.96901 72.18C8.96901 75.474 11.126 77.087 13.458 77.087C15.79 77.087 17.943 75.44 17.943 72.18C17.943 68.881 15.773 67.273 13.458 67.273ZM11.473 72.18C11.473 69.845 12.036 68.08 13.459 68.08C14.882 68.08 15.439 69.843 15.439 72.18C15.439 74.517 14.881 76.267 13.459 76.267C12.037 76.267 11.473 74.525 11.473 72.18ZM11.211 62.688H12.885C15.975 62.688 17.964 60.969 17.964 58.019C17.964 55.161 16.15 53.401 13.137 53.401H11.211V54.21H12.918C14.51 54.21 15.512 55.546 15.512 58.034C15.512 60.485 14.512 61.87 12.893 61.87H11.211V62.688ZM10.989 61.717L8.93701 61.929V62.688H11.211V61.717H10.989ZM10.989 54.372H11.211V53.401L8.93701 53.4V54.16L10.989 54.372ZM10.025 58.258L9.98201 62.687H12.441L12.399 58.248V57.783L12.441 53.399H9.98101L10.024 57.783L10.025 58.258ZM16.091 47.668L17.001 48.579V39.263H16.091V47.668ZM14.473 40.024L16.373 40.236H16.773L18.202 40.024V39.264H14.472L14.473 40.024ZM9.91501 48.551H10.825V40.034L9.91501 39.264V48.551ZM15.798 48.579H16.998V46.224L11.927 39.263H8.73301V40.034L10.266 40.169L9.45701 39.769L15.798 48.579ZM8.71301 48.551H12.443V47.792L10.623 47.583H10.223L8.71701 47.795L8.71301 48.551ZM13.458 24.864C11.138 24.864 8.96901 26.513 8.96901 29.772C8.96901 33.066 11.126 34.679 13.458 34.679C15.79 34.679 17.943 33.03 17.943 29.772C17.943 26.478 15.778 24.864 13.458 24.864ZM11.473 29.772C11.473 27.437 12.036 25.672 13.459 25.672C14.882 25.672 15.439 27.435 15.439 29.772C15.439 32.109 14.881 33.859 13.459 33.859C12.037 33.859 11.473 32.117 11.473 29.772ZM16.149 17.505L15.594 20.275L16.672 19.466H12.095V20.275H17.14L17.282 17.505H16.149ZM10.908 15.374V16.192L10.865 20.279H13.323L13.281 16.118V15.374L13.323 10.99H10.864L10.908 15.375V15.374ZM11.872 11.962H12.39L14.482 11.75V10.99H9.82001V11.75L11.872 11.962ZM11.872 19.307L9.82001 19.519V20.279H12.095V19.307H11.872Z" fill="white"/>
<path d="M19.782 68.41C19.783 68.583 19.923 68.723 20.096 68.725H21.432V95.155H26.42V70.184C26.594 70.05 26.703 69.849 26.72 69.63C26.737 69.849 26.846 70.05 27.02 70.184V95.155H27.861V70.184C27.765 70.035 27.793 69.837 27.927 69.721C28.061 69.605 28.261 69.605 28.395 69.721C28.529 69.837 28.557 70.035 28.461 70.184V95.155H29.302V70.184C29.206 70.035 29.234 69.837 29.368 69.721C29.502 69.605 29.702 69.605 29.836 69.721C29.97 69.837 29.998 70.035 29.902 70.184V95.155H30.746V70.184C30.65 70.035 30.678 69.837 30.812 69.721C30.946 69.605 31.146 69.605 31.28 69.721C31.414 69.837 31.442 70.035 31.346 70.184V95.155H32.187V70.184C32.091 70.035 32.119 69.837 32.253 69.721C32.387 69.605 32.587 69.605 32.721 69.721C32.855 69.837 32.883 70.035 32.787 70.184V95.155H33.628V70.184C33.532 70.035 33.56 69.837 33.694 69.721C33.828 69.605 34.028 69.605 34.162 69.721C34.296 69.837 34.324 70.035 34.228 70.184V95.155H35.072V70.184C34.976 70.035 35.004 69.837 35.138 69.721C35.272 69.605 35.472 69.605 35.606 69.721C35.74 69.837 35.768 70.035 35.672 70.184V95.155H40.672V68.725H42.004C41.9621 68.6425 41.9371 68.5525 41.9302 68.4603C41.9234 68.368 41.9349 68.2753 41.9641 68.1875C41.9933 68.0997 42.0396 68.0186 42.1003 67.9488C42.1611 67.8791 42.2351 67.822 42.318 67.781C42.317 67.608 42.177 67.468 42.004 67.466H41.532V49.902H42.004C41.962 49.8194 41.9368 49.7294 41.9299 49.637C41.9229 49.5446 41.9344 49.4518 41.9636 49.3639C41.9928 49.276 42.0392 49.1948 42.1 49.125C42.1608 49.0551 42.2349 48.998 42.318 48.957C42.15 48.954 42.014 48.82 42.009 48.652C42.004 48.484 42.132 48.342 42.299 48.328C42.299 48.162 42.17 48.024 42.004 48.013H40.642V43.835H41.188C41.022 43.492 41.151 43.079 41.483 42.891C41.309 42.891 41.168 42.75 41.168 42.576C41.168 42.402 41.309 42.261 41.483 42.261C41.483 42.095 41.354 41.957 41.188 41.946H40.716V38.258C40.7697 38.2724 40.8183 38.3015 40.8564 38.3419C40.8946 38.3823 40.9207 38.4326 40.932 38.487V37.287C40.9207 37.3414 40.8946 37.3917 40.8564 37.4321C40.8183 37.4725 40.7697 37.5016 40.716 37.516V36.911H40.937V36.633H40.716V36.485H40.574V36.633H40.353V36.911H40.574V37.516C40.464 37.488 40.38 37.399 40.358 37.287V38.487C40.3692 38.4326 40.3954 38.3823 40.4335 38.3419C40.4717 38.3015 40.5203 38.2724 40.574 38.258V41.949H40.41C40.41 41.949 37.703 37.83 37.31 34.28H37.34C37.514 34.28 37.655 34.139 37.655 33.965C37.655 33.791 37.514 33.65 37.34 33.65H37.13V26.016H37.34C37.514 26.016 37.655 25.875 37.655 25.701C37.655 25.527 37.514 25.386 37.34 25.386H36.378V21.972C36.488 22 36.572 22.089 36.594 22.2V21C36.572 21.112 36.488 21.201 36.378 21.229V20.622H36.599V20.352H36.378V20.206H36.222V20.354H36.001V20.624H36.222V21.229C36.112 21.201 36.028 21.112 36.006 21V22.2C36.028 22.089 36.112 22 36.222 21.972V25.39H36.144C33.3341 20.9748 31.5971 15.9631 31.072 10.756C31.17 10.741 31.245 10.661 31.253 10.562C31.261 10.463 31.2 10.372 31.106 10.341V9.39601C31.44 9.42501 31.715 9.67201 31.78 10.001L31.795 9.85501C31.795 9.46501 31.497 9.14001 31.109 9.10401V8.89601C31.21 8.86301 31.272 8.76101 31.255 8.65701C31.238 8.55301 31.148 8.47501 31.042 8.47501C30.936 8.47501 30.846 8.55201 30.829 8.65701C30.812 8.76201 30.874 8.86301 30.975 8.89601V9.09601C30.587 9.13201 30.289 9.45701 30.289 9.84701L30.304 9.99301C30.369 9.66401 30.644 9.41701 30.978 9.38801V10.332C30.876 10.357 30.808 10.451 30.815 10.555C30.822 10.659 30.904 10.743 31.008 10.753C30.4797 15.9611 28.7418 20.9736 25.933 25.391H25.855V21.972C25.965 22 26.049 22.089 26.071 22.2V21C26.049 21.112 25.965 21.201 25.855 21.229V20.622H26.076V20.352H25.855V20.206H25.705V20.354H25.479V20.624H25.699V21.229C25.589 21.201 25.505 21.112 25.483 21V22.2C25.505 22.089 25.589 22 25.699 21.972V25.39H24.733C24.62 25.39 24.516 25.45 24.46 25.547C24.404 25.644 24.404 25.765 24.46 25.862C24.516 25.959 24.62 26.02 24.733 26.019H24.942V33.649H24.733C24.62 33.649 24.516 33.709 24.46 33.806C24.404 33.903 24.404 34.024 24.46 34.121C24.516 34.218 24.62 34.279 24.733 34.278H24.755C24.368 37.827 21.655 41.947 21.655 41.947H21.492V38.256C21.5457 38.2704 21.5943 38.2995 21.6324 38.3399C21.6706 38.3803 21.6967 38.4306 21.708 38.485V37.285C21.6967 37.3394 21.6706 37.3897 21.6324 37.4301C21.5943 37.4705 21.5457 37.4996 21.492 37.514V36.909H21.713V36.631H21.492V36.483H21.35V36.631H21.13V36.909H21.35V37.514C21.2967 37.4993 21.2485 37.4701 21.2107 37.4297C21.1729 37.3893 21.1471 37.3392 21.136 37.285V38.485C21.1471 38.4308 21.1729 38.3808 21.2107 38.3403C21.2485 38.2999 21.2967 38.2707 21.35 38.256V41.947H20.88C21.045 42.29 20.916 42.703 20.585 42.891C20.759 42.891 20.9 43.032 20.9 43.206C20.9 43.38 20.759 43.521 20.585 43.521C20.585 43.687 20.714 43.825 20.88 43.836H21.431V48.015H20.099C20.1408 48.0975 20.1659 48.1875 20.1727 48.2798C20.1796 48.372 20.1681 48.4647 20.1389 48.5525C20.1097 48.6403 20.0634 48.7214 20.0026 48.7912C19.9419 48.861 19.8679 48.918 19.785 48.959C19.959 48.959 20.1 49.1 20.1 49.274C20.1 49.448 19.959 49.589 19.785 49.589C19.785 49.763 19.926 49.904 20.1 49.904H20.572V67.464H20.1C20.1418 67.5465 20.1669 67.6365 20.1737 67.7288C20.1806 67.821 20.1691 67.9137 20.1399 68.0015C20.1107 68.0893 20.0644 68.1704 20.0036 68.2402C19.9429 68.3099 19.8689 68.367 19.786 68.408L19.782 68.41ZM26.332 65.096H26.087C26.2095 65.0521 26.3238 64.9879 26.425 64.906C26.3849 64.9645 26.3536 65.0285 26.332 65.096ZM25.69 64.915C25.559 64.915 25.43 64.887 25.311 64.833C25.585 64.725 25.833 64.558 26.037 64.345C26.225 64.163 26.378 63.949 26.49 63.713L26.525 63.619C26.657 63.903 26.634 64.235 26.465 64.499C26.296 64.763 26.003 64.921 25.689 64.919L25.69 64.915ZM25.315 61.84C25.5189 62.2078 25.7573 62.5553 26.027 62.878C25.8698 62.8307 25.7044 62.8173 25.5417 62.8387C25.3789 62.8601 25.2226 62.9157 25.083 63.002C25.264 62.764 25.359 62.473 25.353 62.174C25.3548 62.0603 25.343 61.9469 25.318 61.836L25.315 61.84ZM25.69 63.079C25.821 63.079 25.951 63.107 26.07 63.161L25.976 63.197C25.739 63.308 25.525 63.461 25.344 63.65C25.1305 63.8543 24.9637 64.1023 24.855 64.377C24.7915 64.237 24.7641 64.0834 24.7753 63.93C24.7865 63.7767 24.8359 63.6287 24.919 63.4994C25.0022 63.3701 25.1164 63.2637 25.2512 63.1899C25.3861 63.1161 25.5373 63.0773 25.691 63.077L25.69 63.079ZM25.455 63.764C25.6222 63.5904 25.8193 63.4485 26.037 63.345C26.109 63.3113 26.1866 63.2913 26.266 63.286L26.401 63.421C26.397 63.5 26.377 63.578 26.343 63.65C26.2389 63.8678 26.0963 64.065 25.922 64.232C25.7142 64.4782 25.4289 64.6464 25.113 64.709L24.978 64.574C25.0378 64.2546 25.2076 63.9662 25.458 63.759L25.455 63.764ZM26.564 65.098C26.75 64.794 27.089 64.619 27.444 64.644C27.799 64.621 28.138 64.796 28.326 65.098H26.564ZM28.564 65.098C28.4692 64.8852 28.3116 64.7065 28.1123 64.586C27.9129 64.4655 27.6814 64.409 27.449 64.424C27.1579 64.4205 26.8737 64.5125 26.64 64.686C26.857 64.394 26.924 64.016 26.819 63.667C27.6638 64.3874 28.6791 64.8793 29.768 65.096L28.564 65.098ZM31.036 64.973C29.3848 64.9517 27.8085 64.281 26.6483 63.106C25.4881 61.931 24.8374 60.3463 24.837 58.695C24.8376 57.0439 25.4885 55.4595 26.6487 54.2847C27.8089 53.1099 29.385 52.4393 31.036 52.418L31.043 52.167V52.418C32.6941 52.4419 34.2694 53.1152 35.4277 54.2921C36.5861 55.469 37.2343 57.0547 37.232 58.706C37.2287 60.3574 36.575 61.9411 35.4125 63.114C34.25 64.287 32.6723 64.9549 31.021 64.973H31.036ZM25.085 54.386C25.2247 54.4721 25.3811 54.5276 25.5438 54.5488C25.7065 54.57 25.8719 54.5564 26.029 54.509C25.7596 54.8319 25.5212 55.1794 25.317 55.547C25.3433 55.4376 25.3564 55.3255 25.356 55.213C25.3622 54.9139 25.2666 54.6216 25.085 54.384V54.386ZM29.765 52.293C28.6761 52.5097 27.6608 53.0016 26.816 53.722C26.921 53.373 26.854 52.995 26.637 52.702C26.8707 52.8755 27.1549 52.9676 27.446 52.964C27.923 52.997 28.368 52.727 28.561 52.29L29.765 52.293ZM29.301 48.021V44.483C29.204 44.333 29.231 44.135 29.366 44.018C29.501 43.901 29.701 43.901 29.836 44.018C29.971 44.135 29.998 44.334 29.901 44.483V48.019L29.301 48.021ZM28.46 48.021H27.86V44.483C27.763 44.333 27.79 44.135 27.925 44.018C28.06 43.901 28.26 43.901 28.395 44.018C28.53 44.135 28.557 44.334 28.46 44.483V48.021ZM28.325 52.293C28.122 52.577 27.794 52.746 27.444 52.746C27.094 52.746 26.766 52.577 26.563 52.293H28.325ZM26.613 53.385C26.613 53.516 26.584 53.646 26.529 53.765L26.494 53.671C26.3826 53.4346 26.2291 53.2204 26.041 53.039C25.837 52.825 25.589 52.658 25.314 52.55C25.454 52.4865 25.6076 52.4591 25.7609 52.4703C25.9143 52.4815 26.0623 52.5309 26.1916 52.6141C26.3209 52.6972 26.4273 52.8114 26.5011 52.9463C26.5749 53.0811 26.6137 53.2323 26.614 53.386L26.613 53.385ZM25.93 53.15C26.105 53.317 26.247 53.514 26.351 53.732C26.385 53.803 26.405 53.881 26.409 53.96L26.274 54.095C26.1947 54.0903 26.117 54.0706 26.045 54.037C25.8272 53.9329 25.63 53.7903 25.463 53.616C25.2167 53.408 25.0479 53.123 24.984 52.807L25.119 52.672C25.436 52.735 25.723 52.905 25.931 53.152L25.93 53.15ZM25.344 53.735C25.526 53.923 25.74 54.076 25.976 54.188L26.07 54.223C25.9002 54.2979 25.7118 54.3197 25.5295 54.2855C25.3472 54.2514 25.1794 54.1629 25.0482 54.0318C24.9171 53.9006 24.8286 53.7328 24.7945 53.5505C24.7603 53.3681 24.7821 53.1797 24.857 53.01C24.9654 53.2819 25.1308 53.5274 25.342 53.73L25.344 53.735ZM30.736 48.018V44.488C30.639 44.338 30.666 44.14 30.801 44.023C30.936 43.906 31.136 43.906 31.271 44.023C31.406 44.14 31.433 44.339 31.336 44.488V48.024L30.736 48.018ZM36.753 55.541C36.5488 55.1731 36.3101 54.8256 36.04 54.503C36.358 54.598 36.701 54.553 36.984 54.38C36.8033 54.617 36.7082 54.9081 36.714 55.206C36.7135 55.3175 36.7263 55.4286 36.752 55.537L36.753 55.541ZM36.377 54.304C36.2467 54.3036 36.1181 54.275 36 54.22C36.547 53.99 36.983 53.554 37.213 53.007C37.345 53.291 37.322 53.623 37.153 53.887C36.984 54.151 36.691 54.309 36.377 54.307V54.304ZM36.613 53.621C36.405 53.8673 36.1199 54.0361 35.804 54.1L35.669 53.965C35.7306 53.6482 35.8998 53.3624 36.148 53.156C36.3578 52.9117 36.642 52.7431 36.957 52.676L37.092 52.811C37.029 53.129 36.86 53.415 36.613 53.624V53.621ZM36.031 53.039C35.8175 53.2433 35.6507 53.4913 35.542 53.766C35.487 53.647 35.457 53.517 35.454 53.386C35.4543 53.2323 35.4931 53.0811 35.5669 52.9463C35.6407 52.8114 35.7471 52.6972 35.8764 52.6141C36.0057 52.5309 36.1537 52.4815 36.307 52.4703C36.4603 52.4591 36.614 52.4865 36.754 52.55C36.481 52.66 36.235 52.828 36.033 53.042L36.031 53.039ZM34.624 52.739C34.4498 52.7498 34.276 52.7134 34.1207 52.6337C33.9655 52.554 33.8347 52.4339 33.742 52.286H35.504C35.4127 52.4349 35.2824 52.556 35.1274 52.6364C34.9723 52.7167 34.7983 52.7532 34.624 52.742V52.739ZM34.209 48.014H33.609V44.483C33.512 44.333 33.539 44.135 33.674 44.018C33.809 43.901 34.009 43.901 34.144 44.018C34.279 44.135 34.306 44.334 34.209 44.483V48.014ZM34.624 52.956C34.9151 52.9596 35.1993 52.8675 35.433 52.694C35.216 52.987 35.149 53.365 35.254 53.714C34.4092 52.9936 33.3939 52.5017 32.305 52.285H33.505C33.701 52.72 34.147 52.989 34.624 52.958V52.956ZM32.772 48.017H32.172V44.487C32.075 44.337 32.102 44.139 32.237 44.022C32.372 43.905 32.572 43.905 32.707 44.022C32.842 44.139 32.869 44.338 32.772 44.487V48.017ZM36.988 63.001C36.8484 62.9147 36.692 62.8591 36.5293 62.8377C36.3666 62.8163 36.2011 62.8297 36.044 62.877C36.314 62.555 36.553 62.207 36.757 61.839C36.7309 61.9484 36.7178 62.0605 36.718 62.173C36.713 62.47 36.807 62.759 36.986 62.996L36.988 63.001ZM36.725 63.649C36.521 63.435 36.273 63.268 35.998 63.16C36.346 63.003 36.754 63.078 37.024 63.347C37.294 63.616 37.368 64.025 37.211 64.373C37.1031 64.0981 36.9366 63.85 36.723 63.646L36.725 63.649ZM37.092 64.572L36.957 64.707C36.6401 64.6467 36.3541 64.4781 36.148 64.23C35.9737 64.063 35.831 63.8658 35.727 63.648C35.693 63.576 35.673 63.498 35.669 63.419L35.804 63.284C36.1208 63.3456 36.4066 63.5149 36.613 63.763C36.8581 63.972 37.0266 64.2566 37.092 64.572ZM33.509 65.094H32.309C33.3979 64.8774 34.4132 64.3854 35.258 63.665C35.153 64.014 35.22 64.392 35.437 64.684C35.203 64.511 34.919 64.419 34.628 64.422C34.15 64.388 33.701 64.657 33.507 65.096L33.509 65.094ZM33.742 65.094C33.8329 64.9444 33.9634 64.8229 34.119 64.7427C34.2747 64.6626 34.4494 64.6271 34.624 64.64C34.7981 64.6286 34.972 64.6648 35.127 64.7448C35.2821 64.8248 35.4124 64.9455 35.504 65.094H33.742ZM35.737 65.094C35.7142 65.027 35.683 64.9631 35.644 64.904C35.7452 64.9859 35.8595 65.0501 35.982 65.094H35.737ZM36.377 64.913C36.1337 64.9125 35.9005 64.8156 35.7284 64.6435C35.5564 64.4715 35.4595 64.2383 35.459 63.995C35.4594 63.8643 35.4873 63.7352 35.541 63.616C35.65 63.89 35.817 64.138 36.03 64.343C36.234 64.556 36.481 64.722 36.755 64.831C36.636 64.885 36.508 64.913 36.377 64.913ZM37.439 65.094H36.773C37.068 64.987 37.308 64.766 37.439 64.481V65.094ZM37.439 63.51C37.3937 63.4122 37.3348 63.3213 37.264 63.24L37.439 63.307V63.51ZM37.439 63.077C37.284 62.9823 37.156 62.8494 37.0672 62.691C36.9783 62.5326 36.9317 62.3541 36.9317 62.1725C36.9317 61.9909 36.9783 61.8124 37.0672 61.654C37.156 61.4956 37.284 61.3627 37.439 61.268V63.077ZM37.439 61.042C37.27 61.087 37.12 61.185 37.01 61.32C37.2023 60.8841 37.3461 60.4283 37.439 59.961V61.042ZM37.439 57.42C37.3461 56.9533 37.2022 56.4983 37.01 56.063C37.1209 56.1972 37.2708 56.2937 37.439 56.339V57.42ZM37.439 56.112C37.2843 56.0173 37.1564 55.8844 37.0678 55.7261C36.9791 55.5678 36.9325 55.3894 36.9325 55.208C36.9325 55.0266 36.9791 54.8482 37.0678 54.6899C37.1564 54.5316 37.2843 54.3987 37.439 54.304V56.112ZM37.439 54.077L37.264 54.144C37.3349 54.0628 37.3938 53.9719 37.439 53.874V54.077ZM40.27 49.905H40.576V67.783H40.276L40.27 49.905ZM37.439 52.288V52.9C37.3741 52.7589 37.2819 52.6321 37.1675 52.527C37.0532 52.422 36.9191 52.3407 36.773 52.288H37.439ZM35.956 39.775C35.9435 39.6826 35.9577 39.5886 35.9967 39.504C36.0358 39.4193 36.0983 39.3476 36.1767 39.2972C36.2551 39.2468 36.3463 39.2199 36.4395 39.2195C36.5327 39.2191 36.6241 39.2453 36.703 39.295C36.7815 39.3458 36.8438 39.418 36.8826 39.503C36.9214 39.5881 36.9351 39.6824 36.922 39.775V41.336H35.956V39.775ZM35.984 52.288C35.8612 52.3314 35.7469 52.3957 35.646 52.478L35.739 52.288H35.984ZM35.148 30.196H35.488V27.94H35.623V33.089H35.151L35.148 30.196ZM35.348 43.927C35.3566 44.0353 35.3877 44.1406 35.4394 44.2362C35.491 44.3318 35.5621 44.4155 35.648 44.482V48.018H35.048V44.483C35.1337 44.415 35.2045 44.3301 35.2561 44.2336C35.3077 44.1371 35.339 44.0311 35.348 43.922V43.927ZM35.123 36.773V38.334H34.157V36.769C34.2742 36.7193 34.3786 36.6436 34.4623 36.5476C34.546 36.4517 34.6067 36.3379 34.64 36.215C34.6733 36.338 34.7343 36.4518 34.8181 36.5478C34.902 36.6438 35.0066 36.7194 35.124 36.769L35.123 36.773ZM33.181 30.196H33.519V27.94H34.449V30.196H34.789V33.096H33.181V30.196ZM33.316 39.776V41.336H32.352V39.772C32.59 39.671 32.768 39.467 32.836 39.218C32.8692 39.3409 32.93 39.4547 33.0137 39.5506C33.0973 39.6466 33.2018 39.7223 33.319 39.772L33.316 39.776ZM31.216 30.196H31.556V27.94H32.489V30.196H32.829V33.096H31.217L31.216 30.196ZM31.032 36.217C31.0652 36.3399 31.126 36.4537 31.2097 36.5496C31.2934 36.6456 31.3978 36.7213 31.515 36.771V38.332H30.55V36.769C30.6672 36.7193 30.7716 36.6436 30.8553 36.5476C30.939 36.4517 30.9997 36.3379 31.033 36.215L31.032 36.217ZM29.252 30.196H29.592V27.94H30.521V30.196H30.861V33.096H29.252V30.196ZM29.239 39.227C29.2723 39.35 29.3333 39.4638 29.4171 39.5598C29.501 39.6558 29.6056 39.7314 29.723 39.781V41.342H28.756V39.772C28.992 39.67 29.168 39.466 29.235 39.218L29.239 39.227ZM27.283 30.196H27.624V27.94H28.553V30.196H28.893V33.096H27.279L27.283 30.196ZM26.954 36.773C27.192 36.672 27.37 36.468 27.438 36.219C27.4712 36.3419 27.532 36.4557 27.6157 36.5516C27.6994 36.6476 27.8038 36.7233 27.921 36.773V38.334H26.955L26.954 36.773ZM26.454 27.944H26.589V30.196H26.929V33.096H26.457L26.454 27.944ZM26.42 44.485C26.594 44.351 26.703 44.149 26.72 43.93C26.737 44.149 26.846 44.351 27.02 44.485V48.021H26.42V44.485ZM26.42 52.485C26.3191 52.4027 26.2048 52.3384 26.082 52.295H26.327L26.42 52.485ZM25.142 39.785C25.2594 39.7354 25.364 39.6598 25.4479 39.5638C25.5317 39.4678 25.5926 39.354 25.626 39.231C25.6592 39.3539 25.72 39.4677 25.8037 39.5636C25.8874 39.6596 25.9918 39.7353 26.109 39.785V41.346H25.142V39.785ZM24.624 52.298H25.29C24.995 52.404 24.755 52.625 24.624 52.91V52.298ZM24.624 53.882C24.6691 53.9799 24.7281 54.0708 24.799 54.152L24.624 54.085V53.882ZM24.624 54.315C24.7787 54.4097 24.9065 54.5426 24.9952 54.7009C25.0839 54.8592 25.1305 55.0376 25.1305 55.219C25.1305 55.4004 25.0839 55.5788 24.9952 55.7371C24.9065 55.8954 24.7787 56.0283 24.624 56.123V54.315ZM24.624 56.349C24.7921 56.3037 24.942 56.2073 25.053 56.073C24.863 56.5092 24.7215 56.9649 24.631 57.432L24.624 56.349ZM24.624 59.971C24.7168 60.4383 24.8607 60.8941 25.053 61.33C24.943 61.195 24.793 61.098 24.624 61.052V59.971ZM24.624 61.279C24.7789 61.3737 24.907 61.5066 24.9958 61.665C25.0846 61.8234 25.1313 62.0019 25.1313 62.1835C25.1313 62.3651 25.0846 62.5437 24.9958 62.702C24.907 62.8604 24.7789 62.9933 24.624 63.088V61.279ZM24.624 63.314L24.799 63.247C24.7282 63.3283 24.6693 63.4192 24.624 63.517V63.314ZM24.624 64.491C24.6887 64.6323 24.781 64.7593 24.8953 64.8645C25.0097 64.9698 25.1438 65.0512 25.29 65.104H24.624V64.491ZM21.501 49.91H21.801V67.788H21.501V49.91Z" fill="#37443F"/>
<path d="M35.927 58.583H36.552C36.5271 57.179 35.9661 55.8377 34.984 54.834L34.541 55.279C35.4052 56.1647 35.9006 57.3458 35.927 58.583ZM34.868 54.721C33.8613 53.7474 32.5212 53.1945 31.121 53.175V53.8C32.3555 53.8202 33.5365 54.3076 34.426 55.164L34.868 54.721Z" fill="#37443F"/>
<path d="M32.715 54.863C33.1592 55.0605 33.5653 55.3343 33.915 55.672L34.303 55.284C33.9004 54.8986 33.4337 54.5863 32.924 54.361L32.715 54.863ZM34.561 62.076L35.004 62.519C35.985 61.5061 36.5395 60.1551 36.553 58.745H35.926C35.9131 59.9889 35.4247 61.1808 34.561 62.076ZM30.67 60.197C30.77 60.158 30.84 59.697 30.84 59.697L30.851 59.286C30.7209 59.2449 30.6078 59.1628 30.5284 59.0519C30.4491 58.941 30.4079 58.8073 30.411 58.671C30.418 58.391 30.611 58.149 30.883 58.08L30.94 56.008C29.48 56.067 28.335 57.283 28.365 58.744C28.395 60.205 29.587 61.374 31.048 61.374C32.509 61.374 33.702 60.205 33.731 58.744C33.76 57.283 32.616 56.067 31.156 56.008L31.213 58.084C31.473 58.161 31.655 58.397 31.662 58.668C31.6651 58.8003 31.6265 58.9303 31.5517 59.0394C31.4768 59.1485 31.3695 59.2313 31.245 59.276L31.257 59.697C31.257 59.697 31.323 60.157 31.425 60.197C31.142 60.163 31.048 60.597 31.048 60.665C31.047 60.602 30.953 60.163 30.67 60.197Z" fill="#37443F"/>
<path d="M30.944 55.842L30.951 55.572V54.672C29.95 54.692 28.993 55.087 28.27 55.779L29.094 56.601C29.5977 56.1313 30.2555 55.8614 30.944 55.842ZM31.15 55.843C31.8302 55.8707 32.4779 56.1418 32.975 56.607L33.799 55.785C33.0753 55.0936 32.1186 54.6986 31.118 54.678L31.15 55.843Z" fill="#37443F"/>
<path d="M32.768 54.293C32.2414 54.0842 31.6813 53.9727 31.115 53.964V54.511C31.6095 54.5208 32.0985 54.6183 32.559 54.799L32.768 54.293ZM30.951 53.796V53.171C29.5494 53.1911 28.2085 53.7455 27.202 54.721L27.647 55.164C28.535 54.306 29.716 53.817 30.951 53.796ZM26.646 60.44L27.153 60.231C26.9631 59.7592 26.8615 59.2565 26.853 58.748H26.304C26.3125 59.3283 26.4285 59.902 26.646 60.44ZM28.248 61.572C28.9735 62.2748 29.9381 62.6771 30.948 62.698V61.535C30.2458 61.5153 29.576 61.2351 29.069 60.749L28.248 61.572Z" fill="#37443F"/>
<path d="M28.014 61.57C27.6814 61.2233 27.4109 60.8222 27.214 60.384L26.707 60.593C26.9301 61.0976 27.2398 61.5592 27.622 61.957L28.014 61.57ZM29.343 63.1C29.8566 63.2973 30.4008 63.4032 30.951 63.413V62.864C30.4722 62.856 29.9984 62.7647 29.551 62.594L29.343 63.1Z" fill="#37443F"/>
<path d="M28.187 58.75H27.024C27.0398 59.7573 27.4352 60.7215 28.131 61.45L28.955 60.626C28.4761 60.1169 28.2026 59.4487 28.187 58.75ZM31.118 61.534V62.697C32.1279 62.676 33.0924 62.2738 33.818 61.571L32.994 60.747C32.4873 61.232 31.819 61.5123 31.118 61.534Z" fill="#37443F"/>
<path d="M31.118 63.413C31.713 63.4037 32.3008 63.2811 32.85 63.052L32.65 62.565L32.804 62.502L33.004 62.985C33.4937 62.7594 33.9414 62.452 34.328 62.076L33.94 61.689C33.183 62.4242 32.175 62.8442 31.12 62.864L31.118 63.413ZM35.764 58.75H35.215C35.2069 59.2963 35.0921 59.8358 34.877 60.338L35.384 60.547C35.627 59.979 35.756 59.368 35.764 58.75ZM34.942 57.208C35.109 57.648 35.2 58.113 35.212 58.583H35.761C35.75 58.0411 35.6451 57.5051 35.451 56.999L34.942 57.208ZM34.055 61.571L34.443 61.958C34.8009 61.5891 35.0961 61.1641 35.317 60.7L34.812 60.491C34.618 60.8886 34.3625 61.253 34.055 61.571Z" fill="#37443F"/>
<path d="M26.739 56.722L27.244 56.931C27.4422 56.5077 27.7091 56.1201 28.034 55.784L27.646 55.403C27.2709 55.788 26.9642 56.234 26.739 56.722ZM29.396 62.531C28.9267 62.3296 28.4983 62.0439 28.132 61.688L27.744 62.075C28.1623 62.482 28.6518 62.8087 29.188 63.039L29.396 62.531ZM35.047 58.583C35.0213 57.5797 34.6194 56.6228 33.921 55.902L33.097 56.724C33.577 57.227 33.857 57.888 33.883 58.583H35.047Z" fill="#37443F"/>
<path d="M34.035 55.783C34.392 56.151 34.678 56.582 34.88 57.053L35.387 56.844C35.1571 56.3081 34.8303 55.8193 34.423 55.402L34.035 55.783ZM26.142 58.75H25.517C25.5299 60.1598 26.0837 61.5108 27.064 62.524L27.506 62.081C26.6435 61.185 26.1556 59.9936 26.142 58.75ZM27.181 62.637C28.1915 63.6241 29.5425 64.1854 30.955 64.205V63.58C29.7102 63.56 28.5204 63.064 27.63 62.194L27.181 62.637ZM33.068 63.138L33.077 63.162L32.922 63.227L32.914 63.205C32.343 63.443 31.732 63.571 31.114 63.58V64.205C32.5267 64.1865 33.8781 63.625 34.888 62.637L34.445 62.194C34.0418 62.5856 33.5744 62.9049 33.063 63.138H33.068ZM29.274 54.899L29.065 54.392C28.585 54.613 28.146 54.913 27.765 55.279L28.153 55.667C28.4822 55.3516 28.8609 55.0921 29.274 54.899ZM28.152 55.902C27.4536 56.6228 27.0517 57.5797 27.026 58.583H28.189C28.217 57.887 28.499 57.226 28.982 56.724L28.152 55.902Z" fill="#37443F"/>
<path d="M26.31 58.583H26.859C26.8711 58.0676 26.979 57.559 27.177 57.083L26.67 56.874C26.4447 57.4163 26.3226 57.9959 26.31 58.583ZM30.95 53.964C30.3543 53.9723 29.7657 54.0945 29.216 54.324L29.425 54.831C29.9084 54.6284 30.4259 54.5195 30.95 54.51V53.964Z" fill="#37443F"/>
<path d="M27.528 55.279L27.083 54.834C26.102 55.838 25.542 57.179 25.517 58.583H26.142C26.1673 57.3456 26.6629 56.1642 27.528 55.279ZM33.938 61.453C34.6345 60.7248 35.0306 59.7606 35.047 58.753H33.884C33.8697 59.4525 33.5968 60.1219 33.118 60.632L33.938 61.453Z" fill="#37443F"/>
<path d="M56.855 17.793H58.365V15.367L59.11 14.654L61.276 17.793H63.109L60.165 13.663L63.005 10.724H61.174L58.363 13.884V10.723H56.853L56.855 17.793ZM55.526 17.793V15.993H53.949V17.793H55.526ZM46.995 10.723V14.888C46.995 17.248 48.369 17.888 49.961 17.888C51.521 17.888 52.935 17.272 52.935 14.855V10.723H51.409V14.934C51.409 16.217 50.86 16.686 49.986 16.686C49.223 16.686 48.526 16.286 48.526 14.934V10.723H46.995Z" fill="white"/>
</g>
<defs>
<clipPath id="clip0_112_2">
<rect width="72.984" height="101.772" fill="white"/>
</clipPath>
</defs>
</svg>
