<svg width="73" height="102" viewBox="0 0 73 102" fill="none" xmlns="http://www.w3.org/2000/svg">
<g clip-path="url(#clip0_112_29)">
<path d="M36.666 17.337C36.63 17.522 37.047 21.958 37.011 22.144C37.0264 22.3584 37.0599 22.5712 37.111 22.78L37.153 21.513L38.582 18.468C38.627 17.975 36.694 17.465 36.666 17.337ZM43.652 78.02C43.614 78.206 44.032 82.641 43.996 82.828C44.0108 83.0425 44.0443 83.2553 44.096 83.464L44.138 82.196L45.572 79.152C45.618 78.659 43.685 78.149 43.652 78.02ZM24.648 1.70001C24.67 2.00001 24.448 9.10001 24.465 9.40001C24.483 9.65901 24.416 10.108 24.41 10.42L24.39 8.38601L23.624 3.50901C23.599 2.72201 24.633 1.90601 24.648 1.70001ZM22.443 92.255C22.462 92.555 22.243 99.655 22.257 99.955C22.275 100.214 22.208 100.663 22.203 100.974L22.181 98.943L21.414 94.066C21.392 93.282 22.426 92.461 22.443 92.255ZM3.817 41.668C3.773 41.968 4.259 49.068 4.217 49.368C4.23479 49.7099 4.27488 50.0503 4.337 50.387L4.384 48.356L6.056 43.478C6.105 42.691 3.853 41.876 3.817 41.668ZM55.518 57.752V57.445C55.5221 57.079 55.605 56.7182 55.761 56.387L52.402 55.301C52.2882 56.9652 52.2651 58.6343 52.333 60.301C52.843 60.751 53.182 61.362 53.295 62.033L56.673 59.968C55.968 59.446 55.542 58.629 55.518 57.752Z" fill="#485754"/>
<path d="M48.709 58.878C48.561 59.178 50.247 66.278 50.102 66.578C49.982 66.838 50.474 67.286 50.527 67.598L50.687 65.567C50.772 65.59 56.387 60.623 56.5 60.689C56.67 59.898 48.838 59.086 48.709 58.878Z" fill="#485754"/>
<path d="M47.66 53.651C47.653 53.736 50.514 67.743 50.514 67.743L47.66 53.651Z" fill="#485754"/>
<path d="M56.17 98.876C56.939 98.876 57.676 99.182 58.218 99.726C58.76 100.27 59.065 101.008 59.064 101.776H63.108C63.0769 101.249 63.1906 100.723 63.4366 100.255C63.6826 99.7875 64.0518 99.396 64.5041 99.1229C64.9564 98.8499 65.4747 98.7055 66.003 98.7055C66.5314 98.7055 67.0497 98.8499 67.502 99.123C67.9543 99.3961 68.3234 99.7876 68.5694 100.255C68.8154 100.723 68.9291 101.249 68.898 101.776H72.983V98.056C71.385 98.056 70.089 96.76 70.089 95.162C70.089 93.564 71.385 92.268 72.983 92.268V88.221C72.4556 88.2521 71.9297 88.1384 71.4621 87.8924C70.9945 87.6464 70.603 87.2772 70.3299 86.8249C70.0569 86.3726 69.9125 85.8543 69.9125 85.326C69.9125 84.7976 70.0569 84.2793 70.33 83.827C70.6031 83.3747 70.9946 83.0056 71.4621 82.7596C71.9297 82.5136 72.4556 82.3999 72.983 82.431V78.388C72.4556 78.4191 71.9297 78.3054 71.4621 78.0594C70.9945 77.8134 70.603 77.4442 70.3299 76.9919C70.0569 76.5396 69.9125 76.0213 69.9125 75.493C69.9125 74.9646 70.0569 74.4463 70.33 73.994C70.6031 73.5417 70.9946 73.1726 71.4621 72.9266C71.9297 72.6806 72.4556 72.5669 72.983 72.598V68.554C71.385 68.554 70.089 67.258 70.089 65.66C70.089 64.062 71.385 62.766 72.983 62.766V58.722C72.4556 58.7531 71.9297 58.6394 71.4621 58.3934C70.9945 58.1474 70.603 57.7782 70.3299 57.3259C70.0569 56.8736 69.9125 56.3553 69.9125 55.827C69.9125 55.2986 70.0569 54.7803 70.33 54.328C70.6031 53.8757 70.9946 53.5066 71.4621 53.2606C71.9297 53.0146 72.4556 52.9009 72.983 52.932V48.888C72.2139 48.888 71.4762 48.5825 70.9324 48.0386C70.3885 47.4948 70.083 46.7571 70.083 45.988C70.083 45.2189 70.3885 44.4812 70.9324 43.9374C71.4762 43.3935 72.2139 43.088 72.983 43.088V39.048C71.385 39.048 70.089 37.752 70.089 36.154C70.089 34.556 71.385 33.26 72.983 33.26V29.215C71.385 29.215 70.089 27.919 70.089 26.321C70.089 24.723 71.385 23.427 72.983 23.427V19.383C72.2139 19.383 71.4762 19.0775 70.9324 18.5336C70.3885 17.9898 70.083 17.2521 70.083 16.483C70.083 15.7139 70.3885 14.9762 70.9324 14.4324C71.4762 13.8885 72.2139 13.583 72.983 13.583V9.543C72.4556 9.57406 71.9297 9.46043 71.4621 9.21439C70.9945 8.96835 70.603 8.59925 70.3299 8.14694C70.0569 7.69464 69.9125 7.17632 69.9125 6.64796C69.9125 6.11961 70.0569 5.6013 70.33 5.149C70.6031 4.69671 70.9946 4.32763 71.4621 4.0816C71.9297 3.83557 72.4556 3.72195 72.983 3.753V0H68.9C68.9 0.768 68.595 1.504 68.052 2.046C67.509 2.588 66.773 2.894 66.006 2.894C65.2393 2.89189 64.5046 2.58624 63.9627 2.04391C63.4207 1.50158 63.1156 0.766704 63.114 0L59.069 0C59.069 1.598 57.773 2.894 56.175 2.894C55.406 2.895 54.669 2.591 54.125 2.048C53.581 1.505 53.276 0.768 53.276 0H49.232C49.232 1.598 47.936 2.894 46.338 2.894C45.57 2.894 44.834 2.589 44.291 2.047C43.748 1.505 43.443 0.768 43.443 0H39.4C39.4 1.598 38.104 2.894 36.506 2.894C35.738 2.894 35.002 2.589 34.459 2.047C33.916 1.505 33.611 0.768 33.611 0H29.567C29.567 1.598 28.271 2.894 26.673 2.894C26.2916 2.89581 25.9136 2.82237 25.5606 2.67789C25.2077 2.53341 24.8867 2.32072 24.616 2.052C24.3455 1.78301 24.1308 1.46329 23.9841 1.11118C23.8374 0.759061 23.7616 0.381459 23.761 0L19.717 0C19.717 1.598 18.421 2.894 16.823 2.894C15.225 2.894 13.929 1.598 13.929 0H9.885C9.8851 0.380872 9.81018 0.758034 9.66451 1.10995C9.51883 1.46186 9.30527 1.78163 9.036 2.051C8.76663 2.32027 8.44686 2.53383 8.09495 2.67951C7.74303 2.82518 7.36587 2.9001 6.985 2.9C6.21605 2.89973 5.47868 2.59408 4.93504 2.05026C4.3914 1.50643 4.086 0.768955 4.086 0L0 0V3.719C0.768 3.719 1.504 4.024 2.046 4.567C2.588 5.11 2.894 5.846 2.894 6.613C2.89294 7.3804 2.58776 8.11609 2.04532 8.65891C1.50288 9.20173 0.767395 9.50741 0 9.509L0 13.553C0.768088 13.5546 1.50417 13.8608 2.04673 14.4045C2.58929 14.9482 2.894 15.6849 2.894 16.453C2.895 17.221 2.59 17.957 2.048 18.5C1.506 19.043 0.768 19.348 0 19.347V23.391C0.769128 23.391 1.50675 23.6965 2.05061 24.2404C2.59447 24.7842 2.9 25.5219 2.9 26.291C2.9 27.0601 2.59447 27.7978 2.05061 28.3416C1.50675 28.8855 0.769128 29.191 0 29.191L0 33.235C1.598 33.235 2.894 34.531 2.894 36.129C2.894 37.727 1.596 39.017 0 39.017V43.061C0.380913 43.0614 0.758011 43.1369 1.10975 43.2831C1.4615 43.4293 1.781 43.6433 2.05 43.913C2.31872 44.1831 2.53157 44.5036 2.67639 44.856C2.82121 45.2085 2.89515 45.586 2.894 45.967C2.894 47.565 1.598 48.861 0 48.861V52.905C0.768801 52.9059 1.5058 53.2119 2.049 53.756C2.59134 54.3007 2.89527 55.0384 2.894 55.807C2.893 57.405 1.598 58.7 0 58.7V62.744C0.768 62.744 1.504 63.049 2.046 63.592C2.588 64.135 2.894 64.871 2.894 65.638C2.893 67.236 1.598 68.531 0 68.531V72.575C0.771 72.575 1.51 72.882 2.053 73.429C2.596 73.976 2.899 74.717 2.894 75.488C2.891 77.084 1.596 78.376 0 78.376V82.42C0.768088 82.4216 1.50417 82.7278 2.04673 83.2715C2.58929 83.8152 2.894 84.5519 2.894 85.32C2.895 86.088 2.591 86.825 2.048 87.369C1.505 87.913 0.768 88.214 0 88.213V92.257C0.768 92.257 1.504 92.562 2.046 93.105C2.588 93.648 2.894 94.384 2.894 95.151C2.894 95.918 2.589 96.655 2.047 97.198C1.505 97.741 0.768 98.046 0 98.046V101.775H4.086C4.086 100.177 5.382 98.881 6.98 98.881C8.578 98.881 9.874 100.177 9.874 101.775H13.918C13.918 100.177 15.214 98.881 16.812 98.881C18.41 98.881 19.706 100.177 19.706 101.775H23.75C23.7189 101.248 23.8326 100.722 24.0786 100.254C24.3246 99.7865 24.6938 99.395 25.1461 99.1219C25.5984 98.8489 26.1167 98.7045 26.645 98.7045C27.1734 98.7045 27.6917 98.8489 28.144 99.122C28.5963 99.3951 28.9654 99.7866 29.2114 100.254C29.4574 100.722 29.5711 101.248 29.54 101.775H33.583C33.583 100.177 34.879 98.881 36.477 98.881C38.075 98.881 39.371 100.177 39.371 101.775H43.415C43.415 100.177 44.711 98.881 46.309 98.881C47.907 98.881 49.203 100.177 49.203 101.775H53.247C53.247 101.392 53.3227 101.014 53.4697 100.66C53.6168 100.307 53.8323 99.9865 54.1038 99.7169C54.3753 99.4474 54.6975 99.2342 55.0518 99.0897C55.406 98.9452 55.7854 98.8722 56.168 98.875L56.17 98.876Z" fill="#EAE3DD"/>
<path d="M6.388 6.18201H66.599V95.588H6.388V6.18201Z" fill="#C1D2DF"/>
<path d="M66.167 6.61501V95.157H6.82V6.61501H66.167ZM67.028 5.75101H5.957V96.02H67.031L67.028 5.75101Z" fill="#446F80"/>
<path d="M13.159 13.527L14.426 16.095L17.261 16.507L15.209 18.507L15.693 21.33L13.159 19.996L10.623 21.329L11.107 18.506L9.05701 16.506L11.892 16.094L13.159 13.527ZM13.159 35.831L14.426 38.4L17.261 38.811L15.209 40.811L15.693 43.634L13.159 42.301L10.623 43.633L11.107 40.81L9.05701 38.81L11.892 38.399L13.159 35.831ZM13.159 58.137L14.426 60.705L17.261 61.116L15.209 63.116L15.693 65.939L13.159 64.606L10.623 65.939L11.107 63.116L9.05701 61.116L11.892 60.705L13.159 58.137ZM13.159 80.442L14.426 83.009L17.261 83.422L15.209 85.422L15.693 88.245L13.159 86.911L10.623 88.243L11.107 85.42L9.05701 83.42L11.892 83.007L13.159 80.442ZM23.479 24.679L24.747 27.247L27.581 27.659L25.531 29.659L26.015 32.482L23.479 31.15L20.945 32.482L21.429 29.659L19.379 27.659L22.212 27.247L23.479 24.679ZM23.479 69.289L24.747 71.857L27.581 72.269L25.531 74.269L26.015 77.092L23.479 75.759L20.945 77.092L21.429 74.269L19.379 72.269L22.212 71.857L23.479 69.289Z" fill="#DFE8EE"/>
<path d="M36.116 24.743H66.168V95.157H36.116V24.743Z" fill="#96C1DA"/>
<path d="M37.241 80.531C37.1462 80.6012 37.0314 80.6391 36.9135 80.6391C36.7956 80.6391 36.6807 80.6012 36.586 80.531V81.103L37.241 81.114V80.531ZM23.82 84.07L23.789 84.077H23.749V84.703H23.82V84.07Z" fill="#88B0C8"/>
<path d="M18.853 78.339H18.864L18.896 78.295L18.864 78.252H18.648C18.6656 78.1514 18.661 78.0481 18.6345 77.9495C18.608 77.8508 18.5602 77.7592 18.4945 77.681C18.4288 77.6028 18.3468 77.5399 18.2542 77.4967C18.1616 77.4536 18.0607 77.4312 17.9585 77.4312C17.8564 77.4312 17.7554 77.4536 17.6629 77.4967C17.5703 77.5399 17.4882 77.6028 17.4225 77.681C17.3568 77.7592 17.309 77.8508 17.2825 77.9495C17.256 78.0481 17.2514 78.1514 17.269 78.252H17.053L17.019 78.295L17.053 78.339H17.064V79.21H16.743L16.699 79.254L16.743 79.297H16.758V80.726H16.458L16.404 80.781L16.458 80.835H16.477V83.411L17.493 83.395V86.385H18.64V84.075H18.597C18.55 84.079 18.505 84.057 18.48 84.017C18.455 83.977 18.455 83.927 18.48 83.887C18.505 83.847 18.55 83.824 18.597 83.829H18.997V79.21H18.841L18.853 78.339ZM54.834 79.207H55.495V78.118H55.506L55.54 78.084L55.506 78.052H55.288C55.267 77.722 55.015 77.454 54.688 77.41V79.21L54.834 79.207ZM37.285 80.496C37.458 80.342 37.517 80.098 37.435 79.882C37.353 79.666 37.146 79.523 36.914 79.523C36.8011 79.5234 36.6909 79.5578 36.5979 79.6219C36.505 79.6859 36.4335 79.7766 36.393 79.882C36.31 80.098 36.37 80.342 36.543 80.496V81.103L35.98 81.094V88.394H36.298V84.938H36.874V83.253L38.118 82.366V81.134L37.285 81.121V80.496ZM37.242 81.113L36.587 81.102V80.53C36.6818 80.6002 36.7966 80.6381 36.9145 80.6381C37.0324 80.6381 37.1473 80.6002 37.242 80.53V81.113ZM65.548 82.967V81.515H65.574L65.651 81.435L65.574 81.358H65.321V78.11H65.33L65.408 78.032L65.33 77.954H65.085V76.57H65.385L64.485 75.001H63.423L63.313 75.194V83.32L64.629 84.069V83.329H65.252V82.304H65.34V83.329H66.181V82.966L65.548 82.967Z" fill="#488BA9"/>
<path d="M58.95 77.563H58.98L59.072 77.471L58.98 77.379H58.798V76.226H58.942L58.798 75.334V74.616H56.506V74.695H56.158L55.907 76.226H56.076V77.374H55.876L55.784 77.466L55.876 77.558H55.906V80.558H55.806V79.292H55.819L55.863 79.249L55.819 79.205H54.688V81.497H54.998L55.098 81.597L54.998 81.697H54.988V85.847H55.313L55.413 85.947L55.313 86.047H55.281V88.867H55.522V85.786H55.5L55.435 85.721L55.5 85.656H56.56V85.117C56.286 84.872 56.192 84.484 56.323 84.14C56.454 83.796 56.783 83.57 57.151 83.57C57.519 83.57 57.848 83.797 57.979 84.14C58.11 84.483 58.016 84.872 57.742 85.117V85.656H59.062L59.128 85.721L59.062 85.786H59.047V88.864H59.263V84.033H58.957L58.95 77.563ZM31.811 76.569H32.111V77.953H31.866L31.788 78.031L31.866 78.109H31.877V80.62L32.829 77.644V75H32.723L31.811 76.569ZM38.693 81.949L38.783 81.886V81.753H38.693V81.949ZM40.978 79.705H40.843V81.65L39.375 82.486V82.967H38.983V84.934H39.559V88.389H40.09V90.381H40.426V87.306H40.393L40.293 87.206L40.393 87.106H40.777V82.996H40.749L40.663 82.91L40.749 82.822H41.218V81.435L40.978 81.572V79.705ZM49.538 80.783H49.666V81.712H49.507L49.438 81.763H48.924V78.156H48.963C48.9948 78.156 49.0253 78.1434 49.0479 78.1209C49.0704 78.0984 49.083 78.0678 49.083 78.036L48.963 77.916H48.706V75.709H48.914L48.588 74.922H47.74V73.912H47.855L47.97 73.797L47.855 73.682H47.455V72.942H47.526L47.6 72.868L47.526 72.794H46.987V70.794H46.887V72.794H46.348L46.274 72.868L46.348 72.942H46.421V73.682H46.021L45.906 73.797L46.021 73.912H46.134V74.922H45.272L44.944 75.709H45.153V77.917H44.897L44.777 78.037C44.777 78.0688 44.7896 78.0994 44.8121 78.1219C44.8347 78.1444 44.8652 78.157 44.897 78.157H44.935V80.412H45.056L45.126 80.482L45.056 80.552H45.033V82.823H45.501L45.589 82.911L45.501 82.997H45.474V87.107H46.202V82.998H46.174L46.086 82.912L46.174 82.824H50.928L51.016 82.912L50.928 82.998H50.901V87.108H51.177V86.047H51.145L51.045 85.947L51.145 85.847H51.47V81.696H51.457L51.357 81.596L51.457 81.496H51.771V79.549H49.737L49.538 80.783ZM44.473 78.516H44.173C44.1995 78.5977 44.2159 78.6823 44.222 78.768H44.456V78.61H44.471L44.518 78.564L44.473 78.516ZM41.853 78.565L41.9 78.611H41.915V78.769H42.03C42.037 78.6834 42.0538 78.5988 42.08 78.517H41.901L41.853 78.565ZM56.63 85.174V85.659H57.672V85.174C57.362 85.4 56.94 85.4 56.63 85.174ZM15.367 81.712H15.214V80.783H15.341L15.141 79.55H13.097L12.897 80.783H13.032V81.712H12.868L12.799 81.763H12.285V78.156H12.323C12.3388 78.1561 12.3546 78.1531 12.3692 78.1472C12.3839 78.1412 12.3973 78.1324 12.4085 78.1212C12.4198 78.1101 12.4287 78.0968 12.4348 78.0822C12.4409 78.0675 12.444 78.0519 12.444 78.036L12.323 77.916H12.067V75.709H12.267L11.941 74.922H11.098V73.912H11.214L11.329 73.797L11.214 73.682H10.814V72.942H10.887L10.961 72.868L10.887 72.794H10.348V70.794H10.248V72.794H9.709L9.635 72.868L9.709 72.942H9.78V73.682H9.38L9.265 73.797L9.38 73.912H9.493V74.922H8.642L8.314 75.709H8.514V77.917H8.257L8.138 78.037C8.138 78.069 8.15 78.099 8.172 78.122C8.194 78.145 8.225 78.157 8.257 78.157H8.296V82.511H7.814V78.611H7.829L7.876 78.565L7.829 78.516H7.414V83.316L8.731 84.066V83.326H9.352V82.302H9.436V83.332H10.63V82.308H10.714V83.332H11.261V85.518L11.444 85.623V86.387H13.444V83.462L16.323 83.415V81.764H15.423L15.367 81.712ZM31.606 78.794H29.07L28.999 78.865L29.07 78.936H29.079V81.908H28.847L28.776 81.979L28.847 82.05H28.87V84.033H28.254V77.567H28.284L28.376 77.475L28.284 77.383H28.084V76.227H28.243L27.992 74.697H25.46L25.209 76.227H25.368V77.38H25.168L25.076 77.472L25.168 77.564H25.198V79.75H27.829L27.944 79.863L27.829 79.976H27.814V84.702H28.183L28.296 84.817L28.183 84.93H28.147V88.084H29.663V87.484L31.624 81.356H31.606H31.586V78.937H31.595L31.668 78.866L31.606 78.794Z" fill="#488BA9"/>
<path d="M65.33 83.33V82.306H65.244V83.33H64.621V84.07L63.305 83.321V73.792H63.329L63.403 73.718L63.329 73.643H59.23L59.156 73.718L59.23 73.792H59.254V88.866H59.04V85.789H59.06L59.126 85.724L59.06 85.659H57.74V85.12C58.015 84.875 58.109 84.486 57.978 84.142C57.847 83.798 57.517 83.571 57.149 83.571C56.781 83.571 56.451 83.798 56.32 84.142C56.189 84.486 56.284 84.875 56.558 85.12V85.659H55.498L55.433 85.724L55.498 85.789H55.52V88.866H55.277V86.046H55.309L55.409 85.946L55.309 85.846H54.989V81.696H55.002L55.102 81.596L55.002 81.496H54.688V67.426H55.067L53.948 65.489H54.029L54.129 65.389L54.029 65.289H53.929V64.324H54.029L54.129 64.224L54.029 64.124H53.683V55.286L52.774 61.486V64.124H52.434L52.334 64.224L52.434 64.324H52.534V65.289H52.434L52.334 65.389L52.434 65.489H52.518L51.4 67.426H51.779V81.496H51.465L51.365 81.596L51.465 81.696H51.478V85.846H51.153L51.053 85.946L51.153 86.046H51.185V87.107H50.909V82.997H50.936L51.024 82.911L50.936 82.823H46.178L46.09 82.911L46.178 82.997H46.206V87.107H45.478V82.997H45.505L45.593 82.911L45.505 82.823H45.037V80.556H45.06L45.13 80.486L45.06 80.416H44.549V78.878H44.567L44.62 78.825L44.567 78.772H44.225C44.219 78.686 44.203 78.602 44.176 78.52C44.038 78.055 43.611 77.736 43.126 77.736C42.641 77.736 42.214 78.055 42.076 78.52C42.0498 78.6018 42.033 78.6864 42.026 78.772H41.685L41.632 78.825L41.685 78.878H41.701V80.416H41.191L41.121 80.486L41.191 80.556H41.214V82.827H40.745L40.659 82.915L40.745 83.001H40.773V87.111H40.389L40.289 87.211L40.389 87.311H40.43V90.386H40.09V88.394H39.56V84.938H38.983V81.749L38.783 81.892L38.693 81.955L38.117 82.369L36.873 83.256V84.941H36.297V88.395H35.98V74.63H35.999L36.057 74.572L35.999 74.514H32.805L32.747 74.572L32.805 74.63H32.824V77.646L31.872 80.622L31.635 81.362L29.674 87.486V88.086H28.158V84.928H28.194L28.307 84.815L28.194 84.7H27.825V79.976H27.84L27.953 79.863L27.84 79.75H23.806L23.693 79.863L23.806 79.976H23.821V83.834H23.386V78.662H23.402C23.47 78.662 23.526 78.606 23.526 78.538C23.526 78.47 23.47 78.414 23.402 78.414H23.011V76.214H23.483L22.042 73.72H20.355L18.915 76.214H19.385V78.414H18.993C18.949 78.414 18.908 78.438 18.886 78.476C18.864 78.514 18.864 78.562 18.886 78.6C18.908 78.638 18.949 78.662 18.993 78.662H19.006V83.829H18.606C18.559 83.825 18.514 83.847 18.489 83.887C18.464 83.927 18.464 83.977 18.489 84.017C18.514 84.057 18.559 84.08 18.606 84.075H18.646V86.385H17.496V83.395L16.48 83.411H16.33L13.451 83.458V86.382H11.458V85.618L11.275 85.513V83.33H10.721V82.306H10.63V83.33H9.43001V82.306H9.34101V83.33H8.73001V84.07L7.41601 83.321V73.792H7.44001L7.51501 73.718L7.44001 73.643H6.82001V95.156H66.17V83.33H65.33ZM23.821 84.702H23.75V84.075H23.821V84.702ZM57.672 85.659H56.63V85.174C56.94 85.4 57.362 85.4 57.672 85.174V85.659Z" fill="#72A7C4"/>
<path d="M66.169 30.658H37.923L36.494 44.212L27.983 30.658L26.57 11.036H66.17L66.169 30.658Z" fill="#DFE8EE"/>
<path d="M43.062 15.8C43.082 15.626 43.033 15.452 42.927 15.313L42.388 14.813L42.3 14.657C42.3 14.6305 42.3105 14.605 42.3293 14.5863C42.348 14.5675 42.3735 14.557 42.4 14.557H45.058C45.0715 14.5563 45.0851 14.5584 45.0978 14.5631C45.1105 14.5678 45.1221 14.5751 45.132 14.5845C45.1418 14.5938 45.1496 14.6051 45.1549 14.6175C45.1603 14.63 45.163 14.6434 45.163 14.657L45.075 14.813L44.536 15.313C44.437 15.455 44.39 15.627 44.401 15.8V25.248C44.401 26.012 44.47 26.708 45.287 26.708C45.929 26.708 46.103 26.008 46.103 25.248V15.8C46.123 15.626 46.074 15.452 45.968 15.313L45.429 14.813L45.341 14.657C45.341 14.6434 45.3437 14.63 45.3491 14.6175C45.3544 14.6051 45.3622 14.5938 45.372 14.5845C45.3819 14.5751 45.3935 14.5678 45.4062 14.5631C45.4189 14.5584 45.4325 14.5563 45.446 14.557H47.825C47.8381 14.557 47.8511 14.5596 47.8633 14.5646C47.8754 14.5696 47.8864 14.577 47.8957 14.5863C47.905 14.5956 47.9124 14.6066 47.9174 14.6187C47.9224 14.6309 47.925 14.6439 47.925 14.657L47.839 14.813L47.3 15.313C47.201 15.455 47.154 15.627 47.165 15.8V25.7C47.1651 25.9582 47.112 26.2137 47.009 26.4505C46.906 26.6874 46.7554 26.9004 46.5664 27.0764C46.3774 27.2524 46.1542 27.3876 45.9107 27.4736C45.6672 27.5595 45.4086 27.5944 45.151 27.576C44.8866 27.6116 44.6176 27.5893 44.3626 27.5106C44.1077 27.432 43.8729 27.2988 43.6745 27.1203C43.4762 26.9418 43.319 26.7224 43.214 26.4771C43.1089 26.2319 43.0584 25.9667 43.066 25.7L43.062 15.8ZM48.916 26.708C48.916 27.125 48.742 27.576 48.273 27.576C47.804 27.576 47.648 27.124 47.648 26.708C47.648 26.292 47.822 25.822 48.273 25.822C48.724 25.822 48.916 26.274 48.916 26.708ZM53.258 19.047C53.258 19.1 53.223 19.135 53.158 19.135C53.093 19.135 53.07 19.082 53.053 19.014C52.775 17.607 51.942 15.414 51.143 15.414C50.709 15.414 50.674 15.779 50.674 16.231C50.674 17.082 50.9 17.931 52.185 20.661C53.398 23.232 53.533 23.805 53.533 25.177C53.533 27.018 52.579 27.577 51.933 27.577C51.582 27.574 51.241 27.458 50.96 27.247C50.857 27.166 50.739 27.107 50.612 27.073C50.543 27.073 50.404 27.196 50.057 27.456C49.988 27.507 49.922 27.577 49.849 27.577C49.776 27.577 49.761 27.543 49.761 27.491V23.114C49.761 23.061 49.779 22.991 49.849 22.991L49.949 23.114C50.262 24.504 50.8 26.714 51.824 26.714C52.154 26.714 52.324 26.349 52.324 25.814C52.324 24.649 51.804 23.388 50.813 21.298C50.039 19.895 49.599 18.331 49.528 16.73C49.528 15.079 50.24 14.558 51.128 14.558C51.4862 14.5864 51.8264 14.7263 52.101 14.958C52.179 15.0106 52.2679 15.0448 52.361 15.058C52.514 15 52.651 14.908 52.761 14.788C52.923 14.64 53.022 14.562 53.126 14.562C53.23 14.562 53.247 14.648 53.247 14.752L53.258 19.047ZM55.43 26.708C55.43 27.125 55.256 27.576 54.787 27.576C54.318 27.576 54.162 27.124 54.162 26.708C54.162 26.292 54.336 25.822 54.787 25.822C55.238 25.822 55.43 26.274 55.43 26.708ZM59.06 24.675C59.042 24.589 58.991 24.519 58.904 24.519H57.618C57.567 24.519 57.532 24.572 57.518 24.64L57.258 26.556C57.2497 26.6113 57.253 26.6677 57.2678 26.7216C57.2826 26.7755 57.3086 26.8257 57.344 26.869L57.727 27.269C57.796 27.357 57.901 27.425 57.901 27.478C57.901 27.531 57.866 27.578 57.78 27.578H55.78C55.7665 27.5787 55.7529 27.5766 55.7402 27.5719C55.7275 27.5671 55.7159 27.5599 55.706 27.5505C55.6962 27.5412 55.6884 27.5299 55.6831 27.5175C55.6777 27.505 55.675 27.4916 55.675 27.478L55.796 27.304L56.283 26.817C56.3743 26.691 56.4218 26.5385 56.418 26.383L57.999 14.711C58.017 14.623 58.05 14.555 58.134 14.555H58.777C58.863 14.555 58.912 14.641 58.933 14.745L60.583 26.401C60.5875 26.5752 60.655 26.7418 60.773 26.87L61.273 27.322L61.373 27.478C61.373 27.529 61.339 27.578 61.252 27.578H58.76C58.674 27.578 58.639 27.525 58.639 27.478L58.76 27.322L59.229 26.853C59.308 26.755 59.339 26.628 59.315 26.505L59.06 24.675ZM58.817 23.597C58.868 23.597 58.903 23.546 58.886 23.476L58.278 19.22H58.243L57.673 23.493C57.655 23.562 57.691 23.593 57.726 23.593L58.817 23.597Z" fill="white"/>
<path d="M58.647 23.599C58.612 23.599 58.578 23.564 58.594 23.499L59.168 19.226H59.202L59.81 23.482C59.828 23.552 59.794 23.603 59.741 23.603L58.647 23.599ZM60.247 26.499C60.273 26.622 60.241 26.75 60.161 26.847L59.692 27.316L59.571 27.472C59.571 27.523 59.606 27.572 59.692 27.572H62.192C62.28 27.572 62.313 27.519 62.313 27.472L62.213 27.316L61.713 26.864C61.5946 26.736 61.5268 26.5693 61.522 26.395L59.872 14.739C59.854 14.639 59.803 14.549 59.716 14.549H59.073C58.987 14.549 58.952 14.618 58.938 14.705L57.358 26.377C57.361 26.533 57.314 26.685 57.223 26.811L56.738 27.298L56.615 27.472C56.615 27.4856 56.6177 27.499 56.6231 27.5115C56.6284 27.5239 56.6362 27.5352 56.646 27.5445C56.6559 27.5539 56.6675 27.5612 56.6802 27.5659C56.6929 27.5706 56.7065 27.5727 56.72 27.572H58.72C58.806 27.572 58.841 27.519 58.841 27.472C58.841 27.425 58.736 27.351 58.667 27.263L58.285 26.863C58.212 26.776 58.18 26.662 58.197 26.55L58.459 24.639C58.475 24.57 58.51 24.518 58.559 24.518H59.844C59.932 24.518 59.979 24.588 60 24.674L60.247 26.499ZM55.714 25.825C55.262 25.825 55.089 26.277 55.089 26.711C55.089 27.145 55.263 27.579 55.714 27.579C56.165 27.579 56.357 27.127 56.357 26.711C56.357 26.295 56.183 25.823 55.714 25.823V25.825ZM54.192 14.739C54.192 14.639 54.157 14.549 54.071 14.549C53.985 14.549 53.862 14.635 53.706 14.774C53.594 14.894 53.458 14.989 53.306 15.052C53.2129 15.0388 53.124 15.0046 53.046 14.952C52.7717 14.7205 52.4318 14.5807 52.074 14.552C51.187 14.552 50.474 15.072 50.474 16.724C50.548 18.325 50.988 19.888 51.76 21.292C52.749 23.376 53.271 24.643 53.271 25.808C53.271 26.347 53.097 26.708 52.771 26.708C51.747 26.708 51.207 24.503 50.895 23.108L50.795 22.985C50.726 22.985 50.707 23.055 50.707 23.108V27.485C50.707 27.538 50.726 27.571 50.795 27.571C50.864 27.571 50.93 27.501 51.003 27.45C51.351 27.19 51.49 27.067 51.56 27.067C51.6865 27.1012 51.8048 27.1603 51.908 27.241C52.188 27.452 52.529 27.568 52.88 27.571C53.523 27.571 54.48 27.016 54.48 25.171C54.48 23.799 54.345 23.226 53.132 20.655C51.846 17.928 51.62 17.076 51.62 16.225C51.62 15.772 51.656 15.408 52.09 15.408C52.89 15.408 53.722 17.596 54 19.008C54.018 19.078 54.051 19.129 54.1 19.129C54.1251 19.1305 54.1499 19.1225 54.1693 19.1066C54.1888 19.0906 54.2015 19.0679 54.205 19.043L54.192 14.739ZM49.204 25.822C48.752 25.822 48.579 26.274 48.579 26.708C48.579 27.142 48.753 27.576 49.204 27.576C49.655 27.576 49.847 27.124 49.847 26.708C49.847 26.292 49.667 25.823 49.202 25.823L49.204 25.822ZM43.993 25.699C43.9854 25.9657 44.0359 26.2309 44.141 26.4761C44.246 26.7214 44.4032 26.9409 44.6015 27.1193C44.7999 27.2978 45.0347 27.431 45.2896 27.5097C45.5446 27.5883 45.8136 27.6106 46.078 27.575C46.3359 27.5931 46.5948 27.558 46.8386 27.472C47.0824 27.3861 47.306 27.251 47.4955 27.0751C47.685 26.8993 47.8365 26.6865 47.9404 26.4498C48.0444 26.2131 48.0987 25.9575 48.1 25.699V15.799C48.089 15.627 48.137 15.456 48.235 15.314L48.774 14.814L48.86 14.658C48.86 14.6444 48.8573 14.631 48.8519 14.6186C48.8466 14.6061 48.8388 14.5948 48.829 14.5855C48.8191 14.5761 48.8075 14.5689 48.7948 14.5641C48.7821 14.5594 48.7685 14.5573 48.755 14.558H46.374C46.3475 14.558 46.322 14.5685 46.3033 14.5873C46.2845 14.6061 46.274 14.6315 46.274 14.658L46.36 14.814L46.899 15.314C47.005 15.452 47.053 15.626 47.034 15.799V25.249C47.034 26.015 46.86 26.709 46.217 26.709C45.4 26.709 45.331 26.015 45.331 25.249V15.799C45.321 15.627 45.368 15.456 45.466 15.314L46.005 14.814L46.093 14.658C46.093 14.6315 46.0825 14.6061 46.0637 14.5873C46.045 14.5685 46.0195 14.558 45.993 14.558H43.337C43.3105 14.558 43.285 14.5685 43.2663 14.5873C43.2475 14.6061 43.237 14.6315 43.237 14.658L43.323 14.814L43.862 15.314C43.968 15.452 44.016 15.626 43.997 15.799L43.993 25.699Z" fill="#446F80"/>
<path d="M59.568 51.661L59.502 51.693L59.559 51.793L59.779 52.063L59.868 52.25L60.584 57.713L60.649 57.761H60.885L60.951 57.713L61.381 53.891H61.397L61.925 57.713L61.991 57.761H62.227L62.292 57.712L62.892 52.249L62.965 52.062L63.235 51.769L63.267 51.696L63.21 51.664H62.177L62.104 51.696L62.144 51.777L62.396 52.029L62.42 52.176L62.103 55.054H62.092L61.701 52.183L61.725 52.048L61.985 51.788L62.034 51.699L61.976 51.667H60.942L60.876 51.699L60.926 51.78L61.178 52.032L61.218 52.179L60.893 55.057H60.875L60.502 52.17L60.542 52.007L60.754 51.771L60.794 51.69L60.729 51.658L59.568 51.661ZM61.229 43.945H61.693C61.7411 43.9409 61.789 43.9543 61.828 43.9828C61.867 44.0113 61.8943 44.0529 61.905 44.1L62.343 45.627L62.409 45.685L62.449 45.635V43.612L62.384 43.539H60.278L60.229 43.586L60.286 43.66L60.529 43.896C60.585 43.958 60.612 44.041 60.603 44.124V49.05C60.612 49.133 60.585 49.216 60.529 49.278L60.286 49.514L60.229 49.587L60.278 49.637H62.384L62.449 49.563V47.519L62.409 47.469L62.351 47.519L61.913 49.08C61.882 49.173 61.791 49.234 61.693 49.226H61.229V46.755H61.408L61.497 46.812L61.773 47.405L61.83 47.463L61.864 47.421V45.697L61.83 45.649L61.781 45.697L61.497 46.266L61.408 46.323H61.229V43.945ZM60.373 40.925C60.3759 41.0073 60.3497 41.0881 60.299 41.153L60.099 41.383L60.042 41.464L60.092 41.504H61.17L61.219 41.464L61.162 41.383L60.933 41.142C60.876 41.084 60.846 41.004 60.852 40.922V36.878H60.87L61.82 41.308C61.844 41.431 61.909 41.508 61.982 41.508H62.324L62.405 41.419V35.992C62.402 35.91 62.428 35.829 62.478 35.764L62.686 35.534L62.743 35.452L62.694 35.413H61.612L61.563 35.452L61.62 35.534L61.848 35.778C61.903 35.837 61.93 35.916 61.921 35.996V39.045H61.905L61.158 35.545C61.14 35.464 61.116 35.41 61.058 35.41H60.083L60.033 35.449L60.09 35.531L60.29 35.766C60.3407 35.8309 60.3669 35.9117 60.364 35.994L60.373 40.925ZM60.416 91.619C60.4201 91.66 60.4158 91.7014 60.4032 91.7406C60.3907 91.7798 60.3702 91.816 60.343 91.847L60.091 92.075L60.042 92.164L60.082 92.204H61.375L61.415 92.164L61.366 92.075L61.114 91.847C61.0868 91.816 61.0663 91.7798 61.0538 91.7406C61.0412 91.7014 61.0369 91.66 61.041 91.619V90.585L61.332 89.709H61.348L61.802 91.571C61.831 91.644 61.822 91.726 61.778 91.791L61.568 92.075L61.503 92.164L61.552 92.204H62.765L62.805 92.164L62.748 92.064L62.472 91.794C62.4185 91.7388 62.3821 91.6694 62.367 91.594L61.659 88.732L62.286 86.845C62.3175 86.7212 62.3786 86.607 62.464 86.512L62.74 86.236L62.805 86.136L62.748 86.097H61.562L61.505 86.136L61.562 86.226L61.814 86.438C61.878 86.491 61.898 86.581 61.863 86.656L61.063 89.049H61.047V86.694C61.0429 86.653 61.0472 86.6116 61.0598 86.5724C61.0723 86.5332 61.0928 86.497 61.12 86.466L61.372 86.238L61.421 86.148L61.381 86.109H60.088L60.048 86.148L60.105 86.238L60.349 86.466C60.3779 86.4958 60.3995 86.5319 60.4122 86.5715C60.4248 86.611 60.4282 86.6529 60.422 86.694L60.416 91.619ZM61.103 78.39H61.224C61.624 78.39 61.785 78.66 61.785 79.49C61.785 80.466 61.623 80.783 61.224 80.783H61.103V78.39ZM61.103 81.19H61.238C61.388 81.206 61.525 81.282 61.619 81.399C61.6657 81.4572 61.7003 81.5242 61.7207 81.596C61.7411 81.6678 61.747 81.7429 61.738 81.817V83.564C61.725 83.706 61.775 83.846 61.876 83.946C61.9257 83.9955 61.9857 84.0336 62.0517 84.0574C62.1177 84.0812 62.1881 84.0903 62.258 84.084H62.681L62.762 84.06L62.697 83.971L62.437 83.701L62.364 83.554V81.854C62.3691 81.6691 62.3232 81.4864 62.2315 81.3257C62.1398 81.1651 62.0058 81.0327 61.844 80.943C62.128 80.765 62.444 80.404 62.444 79.497C62.444 78.44 62.005 77.997 61.159 77.997H60.144L60.094 78.046L60.151 78.119L60.395 78.355C60.4223 78.3859 60.443 78.4221 60.4558 78.4613C60.4685 78.5005 60.473 78.542 60.469 78.583V83.498C60.473 83.5391 60.4685 83.5805 60.4558 83.6197C60.443 83.6589 60.4223 83.6951 60.395 83.726L60.151 83.962L60.094 84.035L60.144 84.084H61.423L61.473 84.035L61.415 83.962L61.171 83.726C61.1438 83.695 61.1233 83.6588 61.1108 83.6196C61.0982 83.5804 61.0939 83.539 61.098 83.498L61.103 81.19ZM61.383 70.271C61.627 70.271 61.806 70.954 61.806 72.759C61.806 74.873 61.627 75.559 61.383 75.559C61.139 75.559 60.968 74.877 60.968 72.759C60.968 70.951 61.147 70.268 61.383 70.268V70.271ZM61.383 69.871C60.407 69.871 60.305 71.587 60.305 72.757C60.305 74.294 60.41 75.968 61.383 75.968C62.356 75.968 62.472 74.294 62.472 72.757C62.472 71.587 62.367 69.867 61.383 69.867V69.871ZM61.064 67.255C61.0681 67.296 61.0638 67.3374 61.0512 67.3766C61.0387 67.4158 61.0182 67.452 60.991 67.483L60.747 67.719L60.689 67.792L60.739 67.84H62.016L62.065 67.792L62.008 67.719L61.763 67.483C61.7358 67.452 61.7153 67.4158 61.7028 67.3766C61.6902 67.3374 61.6859 67.296 61.69 67.255V65.06L62.278 62.328C62.2886 62.2601 62.3165 62.196 62.359 62.142L62.629 61.866L62.686 61.777L62.623 61.734H61.545L61.472 61.774L61.529 61.856L61.789 62.091L61.821 62.246L61.438 64.046H61.423L61.058 62.246L61.082 62.091L61.334 61.856L61.391 61.774L61.326 61.734H60.163L60.106 61.768L60.155 61.857L60.383 62.133L60.472 62.319L61.072 65.303L61.064 67.255Z" fill="white"/>
<path d="M45.763 55.87C46.4067 54.5199 46.7632 53.0509 46.81 51.556L48.149 50.756L49.113 48.413L48.736 47.366C48.736 47.366 49.657 45.859 49.49 45.775L46.142 43.939L44.803 46.031L43.42 44.901C43.42 44.901 42.793 40.801 41.579 40.506C41.2423 40.4434 40.9329 40.2794 40.692 40.036C40.711 39.482 40.604 38.932 40.378 38.426C39.904 37.499 41.208 37.296 41.169 36.539C41.13 35.782 40.793 33.157 40.734 32.622C40.506 32.389 40.365 32.085 40.334 31.761L40.482 31.52L44.51 32.02L40.838 30.942L41.178 30.388L43.892 27.87L40.545 29.97C40.329 29.871 40.108 29.785 39.883 29.71L41.054 25.91L38.845 29.455L38.459 29.406L37.859 24.498L37.259 29.406L36.873 29.455L34.66 25.91L35.834 29.71C35.6091 29.7847 35.3885 29.8715 35.173 29.97L31.823 27.875L34.541 30.393L34.878 30.946L31.207 32.031L35.233 31.531L35.287 31.617C35.0194 33.0475 34.9377 34.5066 35.044 35.958C35.025 36.549 34.893 37.132 34.656 37.674C34.5263 37.4872 34.4566 37.2654 34.456 37.038C34.456 36.159 33.326 35.867 33.326 35.867C33.0388 35.7792 32.7925 35.5917 32.6313 35.3383C32.4702 35.0849 32.4048 34.7823 32.447 34.485C32.489 33.312 31.987 32.268 31.147 32.35C30.785 32.413 30.44 32.549 30.133 32.75C30.092 32.142 29.985 31.541 29.815 30.956C29.591 30.51 29.424 29.956 29.2 27.327C29.1456 26.6229 29.0149 25.9268 28.81 25.251C28.918 24.974 28.973 24.68 28.974 24.383C28.974 24.126 29.045 24.31 29.091 23.844C29.137 23.378 28.811 23.305 28.974 22.956C29.137 22.607 29.062 21.851 28.537 21.923L28.587 21.391C28.7779 21.464 28.9617 21.5543 29.136 21.661L29.62 20.871C29.852 20.973 30.078 21.091 30.294 21.223C30.6533 20.6363 31.0127 20.0523 31.372 19.471C30.7119 19.0666 29.9935 18.766 29.242 18.58C29.696 18.11 29.95 17.482 29.951 16.828C29.951 16.828 30.186 13.938 29.435 13.25C29.705 14.141 29.391 14.137 29.279 13.672C28.749 11.351 27.527 11.053 26.561 11.047C27.592 11.516 27.17 13 25.875 14.297C25.5119 14.6023 25.2314 14.9941 25.0593 15.4362C24.8872 15.8783 24.829 16.3565 24.89 16.827C24.891 17.481 25.145 18.109 25.599 18.579C24.8475 18.765 24.1291 19.0655 23.469 19.47L24.547 21.222C24.7635 21.0896 24.9887 20.972 25.221 20.87L25.705 21.66C25.8793 21.5533 26.0631 21.463 26.254 21.39L26.285 21.715C25.699 22.115 26.049 25.215 26.485 25.673C26.5427 25.7348 26.6063 25.7907 26.675 25.84L26.751 26.657H27.151L27.074 30.678C26.874 31.678 27.574 33.944 27.548 34.335C27.657 35.234 27.851 36.12 28.126 36.982C27.916 37.744 28.055 38.56 28.505 39.21C29.76 40.383 28.568 40.256 28.579 40.675C28.59 41.094 30.095 40.214 29.845 41.596C29.595 42.978 28.973 43.942 29.645 44.896C30.317 45.85 29.896 47.196 29.518 48.37C28.74 49.934 28.927 51.805 29.998 53.184C31.528 55.571 29.265 56.325 29.998 59.002C30.731 61.679 29.598 65.366 29.854 65.952C30.062 66.381 30.149 66.858 30.105 67.332L30.272 73.82C30.02 74.574 31.234 77.168 30.063 77.42C28.892 77.672 27.425 78.005 27.425 78.675H25.71V81.546H26.949V92.291H25.712V95.156H48.212V92.288H46.975V81.554H48.212V78.683H46.512C46.563 76.783 43.212 78.068 43.27 76.661C43.1647 74.7013 43.2768 72.736 43.604 70.801C43.8006 69.6584 43.8943 68.5004 43.884 67.341L44.372 66.693V65.21L44.539 64.5L44 56.881C44 56.881 44.754 57.712 45.763 55.87ZM36.102 37.932L35.808 38.615C35.5736 38.4787 35.3484 38.327 35.134 38.161C35.387 37.907 35.762 37.818 36.102 37.932ZM39.387 39.777C39.3502 39.5908 39.3228 39.4029 39.305 39.214C39.5056 39.3452 39.6917 39.4974 39.86 39.668C39.705 39.716 39.547 39.752 39.387 39.777Z" fill="#446F80"/>
</g>
<defs>
<clipPath id="clip0_112_29">
<rect width="72.984" height="101.774" fill="white"/>
</clipPath>
</defs>
</svg>
