<svg width="31" height="31" viewBox="0 0 31 31" fill="none" xmlns="http://www.w3.org/2000/svg">
<g clip-path="url(#clip0_104_37)">
<path d="M15.099 30.198C23.4379 30.198 30.198 23.4379 30.198 15.099C30.198 6.76005 23.4379 0 15.099 0C6.76005 0 0 6.76005 0 15.099C0 23.4379 6.76005 30.198 15.099 30.198Z" fill="#FF0000"/>
<path d="M22.243 11.789C22.2474 11.7546 22.244 11.7197 22.2331 11.6869C22.2222 11.654 22.204 11.624 22.18 11.599V11.536C22.0904 11.2561 21.9129 11.0127 21.6738 10.8418C21.4347 10.671 21.1468 10.582 20.853 10.588H20.98C19.053 10.3284 17.1104 10.2017 15.166 10.209C13.222 10.2054 11.28 10.332 9.35301 10.588H9.48001C9.18621 10.582 8.89833 10.671 8.65922 10.8418C8.42012 11.0127 8.24257 11.2561 8.15301 11.536V11.599C8.15735 11.6334 8.15395 11.6683 8.14305 11.7011C8.13215 11.734 8.11402 11.764 8.09001 11.789C7.93994 12.9419 7.85548 14.1025 7.83701 15.265C7.85514 16.4275 7.93928 17.588 8.08901 18.741C8.08466 18.7754 8.08806 18.8103 8.09896 18.8431C8.10986 18.876 8.12799 18.906 8.15201 18.931V18.994C8.24157 19.2739 8.41912 19.5173 8.65822 19.6882C8.89733 19.859 9.18521 19.948 9.47901 19.942H9.35201C11.2787 20.2016 13.2209 20.3282 15.165 20.321C17.109 20.3246 19.051 20.198 20.978 19.942H20.851C21.1448 19.948 21.4327 19.859 21.6718 19.6882C21.9109 19.5173 22.0884 19.2739 22.178 18.994V18.931C22.1737 18.8966 22.1771 18.8617 22.188 18.8289C22.1989 18.796 22.217 18.766 22.241 18.741C22.3907 17.588 22.4749 16.4275 22.493 15.265C22.5078 14.1013 22.4249 12.9385 22.243 11.789ZM17.314 15.58L14.344 17.729C14.2893 17.77 14.2228 17.7921 14.1545 17.7921C14.0862 17.7921 14.0197 17.77 13.965 17.729C13.9081 17.6993 13.8605 17.6544 13.8275 17.5994C13.7945 17.5443 13.7774 17.4812 13.778 17.417V13.117C13.7769 13.0518 13.7941 12.9876 13.8277 12.9318C13.8613 12.8759 13.9099 12.8306 13.968 12.801C14.0263 12.7697 14.0914 12.7533 14.1575 12.7533C14.2236 12.7533 14.2888 12.7697 14.347 12.801L17.317 14.95C17.396 15.0366 17.4411 15.1488 17.444 15.266C17.4578 15.2951 17.4653 15.3267 17.4661 15.3589C17.467 15.391 17.4611 15.423 17.4489 15.4527C17.4366 15.4825 17.4183 15.5094 17.3951 15.5316C17.3719 15.5539 17.3442 15.571 17.314 15.582V15.58Z" fill="white"/>
</g>
<defs>
<clipPath id="clip0_104_37">
<rect width="30.197" height="30.197" fill="white"/>
</clipPath>
</defs>
</svg>
